<svg width="30" height="17" viewBox="0 0 30 17" fill="none" xmlns="http://www.w3.org/2000/svg">
<path d="M21.0891 1.35144C21.0891 1.06813 21.2456 0.796418 21.5241 0.596084C21.8026 0.39575 22.1804 0.283203 22.5743 0.283203C23.5203 0.283203 24.4485 0.419938 25.353 0.680589C26.3376 0.963673 27.095 1.38349 27.7827 1.87702C28.4703 2.37268 29.054 2.91748 29.4475 3.62573C29.8099 4.27629 30 4.94394 30 5.62441C30 6.30488 29.8099 6.97253 29.4475 7.62308C29.0599 8.32278 28.4851 8.86224 27.8079 9.35257L26.3465 10.5095C26.3306 10.5219 26.3143 10.534 26.2975 10.5458L21.545 13.9642C20.8574 14.4588 20.1 14.8786 19.1153 15.1627C18.2329 15.4216 17.2896 15.5561 16.3366 15.559C15.3836 15.5558 14.4402 15.4209 13.5579 15.1617C12.5733 14.8786 11.8158 14.4588 11.1282 13.9652C10.4406 13.4696 9.85693 12.9248 9.46337 12.2165C9.08895 11.5476 8.90123 10.8321 8.91089 10.111C8.91089 9.43055 9.10099 8.7629 9.46337 8.11234C9.85693 7.4041 10.4406 6.85929 11.1267 6.3647L12.7604 5.18963C12.8983 5.09038 13.062 5.01164 13.2422 4.9579C13.4224 4.90416 13.6155 4.87647 13.8106 4.87642C14.0057 4.87637 14.1989 4.90396 14.3791 4.95761C14.5594 5.01126 14.7232 5.08992 14.8611 5.1891C14.9991 5.28828 15.1086 5.40604 15.1833 5.53565C15.258 5.66526 15.2965 5.80419 15.2966 5.9445C15.2967 6.08481 15.2583 6.22376 15.1837 6.35341C15.1091 6.48306 14.9998 6.60087 14.8619 6.70012L13.2282 7.87519C12.7277 8.23519 12.4203 8.54498 12.2213 8.90497C12.0012 9.28752 11.8857 9.69701 11.8812 10.111C11.8812 10.6195 11.9955 11.019 12.2213 11.4239C12.4203 11.7839 12.7277 12.0937 13.2282 12.4537C13.7287 12.8137 14.1594 13.0348 14.6599 13.1779C15.2406 13.3456 15.7975 13.4226 16.3366 13.4226C16.8757 13.4226 17.4327 13.3456 18.0134 13.1779C18.5139 13.0348 18.9446 12.8137 19.445 12.4537L24.1723 9.05346L25.6337 7.89655C25.6496 7.88416 25.6659 7.87205 25.6827 7.86023C26.1832 7.50024 26.4906 7.19045 26.6896 6.83045C26.9228 6.41277 27.0297 6.01218 27.0297 5.62441C27.0297 5.23663 26.9228 4.83605 26.6896 4.41836C26.4906 4.05837 26.1832 3.74858 25.6827 3.38858C25.1822 3.02858 24.7515 2.80746 24.251 2.66324C23.719 2.50528 23.1497 2.42259 22.5743 2.41968C22.1804 2.41968 21.8026 2.30714 21.5241 2.1068C21.2456 1.90647 21.0891 1.63476 21.0891 1.35144ZM13.8119 2.9538C13.2728 2.9538 12.7158 3.03072 12.1351 3.19736C11.6347 3.34158 11.204 3.5627 10.7035 3.92377L5.82772 7.42973L4.36634 8.58664L4.31733 8.62296C3.81683 8.98296 3.50941 9.29274 3.30891 9.65274C3.0893 10.0354 2.97433 10.4449 2.9703 10.8588C2.9703 11.2466 3.07723 11.6471 3.30891 12.0648C3.50941 12.4248 3.81683 12.7346 4.31881 13.0946C4.81782 13.4546 5.24851 13.6757 5.74901 13.8199C6.3297 13.9866 6.88663 14.0635 7.42574 14.0635C7.81963 14.0635 8.19738 14.1761 8.4759 14.3764C8.75442 14.5767 8.91089 14.8484 8.91089 15.1317C8.91089 15.4151 8.75442 15.6868 8.4759 15.8871C8.19738 16.0874 7.81963 16.2 7.42574 16.2C6.47277 16.1971 5.52945 16.0625 4.64703 15.8037C3.66238 15.5195 2.90495 15.0997 2.21733 14.6051C1.5297 14.1105 0.946039 13.5657 0.552475 12.8575C0.192121 12.2228 0.00456647 11.5443 0 10.8588C0 10.1783 0.190099 9.51067 0.552475 8.86011C0.940099 8.16041 1.51485 7.62095 2.19208 7.13063L3.65347 5.97372L3.70248 5.9374L8.60347 2.41221C9.29109 1.91761 10.0485 1.49779 11.0332 1.21471C11.9155 0.955513 12.8588 0.820608 13.8119 0.817323C14.7579 0.817323 15.6861 0.954058 16.5906 1.21471C17.5752 1.49779 18.3327 1.91761 19.0203 2.41114C19.7079 2.9068 20.2916 3.4516 20.6851 4.15985C21.0475 4.81041 21.2376 5.47806 21.2376 6.15853C21.2376 6.839 21.0475 7.50665 20.6851 8.15721C20.296 8.8569 19.7213 9.3985 19.0441 9.88775L17.4312 11.1536C17.1649 11.3624 16.7942 11.4866 16.4007 11.4988C16.0071 11.511 15.623 11.4103 15.3327 11.2188C15.0424 11.0273 14.8697 10.7606 14.8528 10.4776C14.8358 10.1945 14.9758 9.91816 15.2421 9.70936L16.8757 8.42747L16.9203 8.39435C17.4208 8.03436 17.7282 7.72457 17.9272 7.36457C18.1604 6.94689 18.2673 6.5463 18.2673 6.15853C18.2673 5.77076 18.1604 5.37017 17.9272 4.95248C17.7282 4.59249 17.4208 4.2827 16.9203 3.9227C16.4198 3.5627 15.9891 3.34158 15.4886 3.19736C14.9567 3.0394 14.3874 2.95671 13.8119 2.9538Z" fill="#31326F"/>
</svg>
