<svg width="38" height="33" viewBox="0 0 38 33" fill="none" xmlns="http://www.w3.org/2000/svg">
<path d="M15.1888 3.25841C12.1676 3.25841 9.27007 4.28889 7.13373 6.12315C4.99739 7.95741 3.7972 10.4452 3.7972 13.0392C3.7972 15.6333 4.99739 18.1211 7.13373 19.9553C9.27007 21.7896 12.1676 22.8201 15.1888 22.8201C18.2101 22.8201 21.1076 21.7896 23.2439 19.9553C25.3802 18.1211 26.5804 15.6333 26.5804 13.0392C26.5804 10.4452 25.3802 7.95741 23.2439 6.12315C21.1076 4.28889 18.2101 3.25841 15.1888 3.25841ZM9.38218e-08 13.0392C0.000346165 10.9638 0.577589 8.91849 1.68376 7.07316C2.78992 5.22784 4.39306 3.63583 6.35995 2.42946C8.32683 1.22309 10.6006 0.437185 12.9924 0.137072C15.3842 -0.163041 17.8249 0.0313 20.1116 0.703945C22.3983 1.37659 24.465 2.50811 26.14 4.00447C27.8149 5.50083 29.0497 7.31881 29.7418 9.30732C30.4339 11.2958 30.5632 13.3974 30.119 15.4375C29.6748 17.4775 28.67 19.3971 27.188 21.0367L37.4158 29.8182C37.7616 30.1257 37.953 30.5375 37.9486 30.9649C37.9443 31.3923 37.7446 31.8011 37.3926 32.1034C37.0406 32.4056 36.5644 32.5771 36.0666 32.5808C35.5688 32.5845 35.0892 32.4202 34.7311 32.1232L24.5034 23.3417C22.2582 24.8383 19.5689 25.764 16.7414 26.0135C13.9139 26.2629 11.0616 25.8262 8.50887 24.7529C5.95611 23.6796 3.80535 22.0128 2.30115 19.942C0.796956 17.8713 -0.000315776 15.4797 9.38218e-08 13.0392Z" fill="#0D0D0D" fill-opacity="0.5"/>
</svg>
