<svg width="19" height="10" viewBox="0 0 19 10" fill="none" xmlns="http://www.w3.org/2000/svg">
<path d="M0.386863 0.356518C0.628058 0.129062 0.955138 0.00160861 1.29617 0.00218519C1.63721 0.00276177 1.96427 0.131321 2.20545 0.359593L9.01258 6.80453L15.8204 0.382611C16.0629 0.161616 16.3878 0.0396534 16.725 0.0429929C17.0623 0.0463323 17.3848 0.174706 17.6233 0.400465C17.8617 0.626224 17.997 0.931305 17.9999 1.25C18.0028 1.56869 17.8732 1.8755 17.6389 2.10434L9.92174 9.38405C9.68055 9.61151 9.35347 9.73896 9.01244 9.73838C8.6714 9.73781 8.34434 9.60925 8.10316 9.38098L0.386776 2.07518C0.145677 1.84684 0.0102454 1.53751 0.0102616 1.21521C0.0102779 0.892914 0.14574 0.584042 0.386863 0.356518Z" fill="#31326F"/>
</svg>
