<svg width="30" height="17" viewBox="0 0 30 17" fill="none" xmlns="http://www.w3.org/2000/svg">
<path d="M21.0891 1.5907C21.0891 1.30739 21.2456 1.03568 21.5241 0.835342C21.8026 0.635008 22.1804 0.522461 22.5743 0.522461C23.5203 0.522461 24.4485 0.659196 25.353 0.919847C26.3376 1.20293 27.095 1.62275 27.7827 2.11628C28.4703 2.61194 29.054 3.15674 29.4475 3.86499C29.8099 4.51554 30 5.18319 30 5.86366C30 6.54413 29.8099 7.21178 29.4475 7.86234C29.0599 8.56204 28.4851 9.1015 27.8079 9.59182L26.3465 10.7487C26.3306 10.7611 26.3143 10.7732 26.2975 10.785L21.545 14.2034C20.8574 14.698 20.1 15.1178 19.1153 15.402C18.2329 15.6608 17.2896 15.7954 16.3366 15.7983C15.3836 15.795 14.4402 15.6601 13.5579 15.4009C12.5733 15.1178 11.8158 14.698 11.1282 14.2045C10.4406 13.7088 9.85693 13.164 9.46337 12.4558C9.08895 11.7868 8.90123 11.0714 8.91089 10.3503C8.91089 9.66981 9.10099 9.00216 9.46337 8.3516C9.85693 7.64335 10.4406 7.09855 11.1267 6.60395L12.7604 5.42889C12.8983 5.32964 13.062 5.2509 13.2422 5.19716C13.4224 5.14341 13.6155 5.11573 13.8106 5.11568C14.0057 5.11563 14.1989 5.14322 14.3791 5.19687C14.5594 5.25052 14.7232 5.32918 14.8611 5.42836C14.9991 5.52754 15.1086 5.64529 15.1833 5.77491C15.258 5.90452 15.2965 6.04345 15.2966 6.18376C15.2967 6.32407 15.2583 6.46302 15.1837 6.59267C15.1091 6.72232 14.9998 6.84013 14.8619 6.93938L13.2282 8.11445C12.7277 8.47444 12.4203 8.78423 12.2213 9.14423C12.0012 9.52678 11.8857 9.93627 11.8812 10.3503C11.8812 10.8588 11.9955 11.2583 12.2213 11.6631C12.4203 12.0231 12.7277 12.3329 13.2282 12.6929C13.7287 13.0529 14.1594 13.274 14.6599 13.4172C15.2406 13.5849 15.7975 13.6618 16.3366 13.6618C16.8757 13.6618 17.4327 13.5849 18.0134 13.4172C18.5139 13.274 18.9446 13.0529 19.445 12.6929L24.1723 9.29272L25.6337 8.13581C25.6496 8.12342 25.6659 8.11131 25.6827 8.09949C26.1832 7.7395 26.4906 7.4297 26.6896 7.06971C26.9228 6.65203 27.0297 6.25144 27.0297 5.86366C27.0297 5.47589 26.9228 5.0753 26.6896 4.65762C26.4906 4.29762 26.1832 3.98783 25.6827 3.62784C25.1822 3.26784 24.7515 3.04671 24.251 2.9025C23.719 2.74454 23.1497 2.66185 22.5743 2.65894C22.1804 2.65894 21.8026 2.5464 21.5241 2.34606C21.2456 2.14573 21.0891 1.87402 21.0891 1.5907ZM13.8119 3.19306C13.2728 3.19306 12.7158 3.26998 12.1351 3.43662C11.6347 3.58083 11.204 3.80196 10.7035 4.16303L5.82772 7.66899L4.36634 8.8259L4.31733 8.86222C3.81683 9.22221 3.50941 9.532 3.30891 9.892C3.0893 10.2746 2.97433 10.6841 2.9703 11.098C2.9703 11.4858 3.07723 11.8864 3.30891 12.3041C3.50941 12.6641 3.81683 12.9739 4.31881 13.3339C4.81782 13.6939 5.24851 13.915 5.74901 14.0592C6.3297 14.2259 6.88663 14.3028 7.42574 14.3028C7.81963 14.3028 8.19738 14.4153 8.4759 14.6156C8.75442 14.816 8.91089 15.0877 8.91089 15.371C8.91089 15.6543 8.75442 15.926 8.4759 16.1264C8.19738 16.3267 7.81963 16.4392 7.42574 16.4392C6.47277 16.4363 5.52945 16.3018 4.64703 16.0429C3.66238 15.7588 2.90495 15.339 2.21733 14.8444C1.5297 14.3498 0.946039 13.805 0.552475 13.0967C0.192121 12.4621 0.00456647 11.7836 0 11.098C0 10.4176 0.190099 9.74992 0.552475 9.09937C0.940099 8.39967 1.51485 7.86021 2.19208 7.36988L3.65347 6.21298L3.70248 6.17666L8.60347 2.65146C9.29109 2.15687 10.0485 1.73705 11.0332 1.45397C11.9155 1.19477 12.8588 1.05987 13.8119 1.05658C14.7579 1.05658 15.6861 1.19332 16.5906 1.45397C17.5752 1.73705 18.3327 2.15687 19.0203 2.6504C19.7079 3.14606 20.2916 3.69086 20.6851 4.39911C21.0475 5.04966 21.2376 5.71732 21.2376 6.39778C21.2376 7.07825 21.0475 7.7459 20.6851 8.39646C20.296 9.09616 19.7213 9.63776 19.0441 10.127L17.4312 11.3929C17.1649 11.6017 16.7942 11.7259 16.4007 11.7381C16.0071 11.7503 15.623 11.6496 15.3327 11.458C15.0424 11.2665 14.8697 10.9999 14.8528 10.7168C14.8358 10.4338 14.9758 10.1574 15.2421 9.94862L16.8757 8.66673L16.9203 8.63361C17.4208 8.27362 17.7282 7.96382 17.9272 7.60383C18.1604 7.18615 18.2673 6.78556 18.2673 6.39778C18.2673 6.01001 18.1604 5.60942 17.9272 5.19174C17.7282 4.83174 17.4208 4.52195 16.9203 4.16196C16.4198 3.80196 15.9891 3.58083 15.4886 3.43662C14.9567 3.27866 14.3874 3.19597 13.8119 3.19306Z" fill="#31326F"/>
</svg>
