<svg width="25" height="23" viewBox="0 0 25 23" fill="none" xmlns="http://www.w3.org/2000/svg">
<path d="M2.64855 2.16677H8.17275L9.95304 6.08646L7.09251 7.76571C6.92406 7.86467 6.78595 7.99872 6.69045 8.15596C6.59494 8.3132 6.54499 8.48877 6.54502 8.66708C6.54871 8.76892 6.54502 8.66817 6.54502 8.66817V8.69092C6.54566 8.73937 6.54812 8.78779 6.5524 8.83609C6.55978 8.92493 6.57208 9.04519 6.59546 9.19361C6.64344 9.48612 6.73572 9.88914 6.91535 10.3637C7.27706 11.317 7.98574 12.551 9.36617 13.7666C10.7466 14.9821 12.1479 15.6062 13.2294 15.9247C13.7695 16.0829 14.226 16.163 14.5606 16.2064C14.7495 16.2296 14.9397 16.244 15.1303 16.2497L15.1463 16.2508H15.1561C15.1561 16.2508 15.2939 16.2443 15.1573 16.2508C15.3858 16.2507 15.6096 16.1946 15.8039 16.0888C15.9982 15.9829 16.1552 15.8316 16.2573 15.6517L17.0816 14.1999L22.5393 15.0016V19.6819C19.9421 20.0123 12.9267 20.3384 7.41486 15.4848C1.90297 10.6313 2.27207 4.45271 2.64855 2.16677ZM9.09549 9.19361L11.3187 7.88921C11.7884 7.61335 12.136 7.20367 12.3034 6.72887C12.4707 6.25407 12.4475 5.74305 12.2378 5.2815L10.4575 1.36182C10.2748 0.959777 9.95948 0.615162 9.55224 0.372427C9.145 0.129691 8.66451 -2.90276e-05 8.17275 4.87222e-09H2.58458C1.4662 4.87222e-09 0.41427 0.683616 0.230951 1.75183C-0.187362 4.18079 -0.754545 11.355 5.67517 17.0167C12.1049 22.6785 20.2521 22.178 23.0106 21.8107C24.2237 21.6482 25 20.723 25 19.7382V15.0016C25.0001 14.4887 24.7935 13.9924 24.4171 13.601C24.0406 13.2096 23.5187 12.9485 22.9441 12.8641L17.4864 12.0635C16.9673 11.9872 16.4341 12.0595 15.9651 12.2697C15.4961 12.4799 15.1159 12.8169 14.8805 13.2314L14.4548 13.9822C14.3043 13.9495 14.1553 13.9116 14.0082 13.8684C13.2454 13.6452 12.1861 13.1859 11.1059 12.2347C10.0256 11.2835 9.50397 10.3507 9.25052 9.67788C9.19001 9.51885 9.13868 9.35722 9.09673 9.19361H9.09549Z" fill="#0D0D0D" fill-opacity="0.5"/>
</svg>
