<svg width="25" height="29" viewBox="0 0 25 29" fill="none" xmlns="http://www.w3.org/2000/svg">
<path d="M12.5 0.847656C5.625 0.847656 0 5.80083 0 11.8547C0 19.2845 10.9375 27.6773 11.4063 28.0901C11.7188 28.2277 12.1875 28.3653 12.5 28.3653C12.8125 28.3653 13.2812 28.2277 13.5937 28.0901C14.0625 27.6773 25 19.2845 25 11.8547C25 5.80083 19.375 0.847656 12.5 0.847656ZM12.5 25.2007C9.21875 22.449 3.125 16.5327 3.125 11.8547C3.125 7.31429 7.34375 3.59942 12.5 3.59942C17.6562 3.59942 21.875 7.31429 21.875 11.8547C21.875 16.3951 15.7812 22.449 12.5 25.2007ZM12.5 6.35118C9.0625 6.35118 6.25 8.82776 6.25 11.8547C6.25 14.8816 9.0625 17.3582 12.5 17.3582C15.9375 17.3582 18.75 14.8816 18.75 11.8547C18.75 8.82776 15.9375 6.35118 12.5 6.35118ZM12.5 14.6065C10.7812 14.6065 9.375 13.3682 9.375 11.8547C9.375 10.3412 10.7812 9.10294 12.5 9.10294C14.2188 9.10294 15.625 10.3412 15.625 11.8547C15.625 13.3682 14.2188 14.6065 12.5 14.6065Z" fill="#0D0D0D" fill-opacity="0.5"/>
</svg>
