<svg width="30" height="17" viewBox="0 0 30 17" fill="none" xmlns="http://www.w3.org/2000/svg">
<path d="M21.0891 1.82947C21.0891 1.54616 21.2456 1.27445 21.5241 1.07411C21.8026 0.873777 22.1804 0.76123 22.5743 0.76123C23.5203 0.76123 24.4485 0.897966 25.353 1.15862C26.3376 1.4417 27.095 1.86152 27.7827 2.35505C28.4703 2.85071 29.054 3.39551 29.4475 4.10376C29.8099 4.75431 30 5.42196 30 6.10243C30 6.7829 29.8099 7.45055 29.4475 8.10111C29.0599 8.80081 28.4851 9.34027 27.8079 9.83059L26.3465 10.9875C26.3306 10.9999 26.3143 11.012 26.2975 11.0238L21.545 14.4422C20.8574 14.9368 20.1 15.3566 19.1153 15.6408C18.2329 15.8996 17.2896 16.0341 16.3366 16.0371C15.3836 16.0338 14.4402 15.8989 13.5579 15.6397C12.5733 15.3566 11.8158 14.9368 11.1282 14.4433C10.4406 13.9476 9.85693 13.4028 9.46337 12.6945C9.08895 12.0256 8.90123 11.3102 8.91089 10.589C8.91089 9.90857 9.10099 9.24093 9.46337 8.59037C9.85693 7.88212 10.4406 7.33732 11.1267 6.84272L12.7604 5.66766C12.8983 5.56841 13.062 5.48967 13.2422 5.43593C13.4224 5.38218 13.6155 5.3545 13.8106 5.35445C14.0057 5.3544 14.1989 5.38199 14.3791 5.43564C14.5594 5.48929 14.7232 5.56795 14.8611 5.66713C14.9991 5.76631 15.1086 5.88406 15.1833 6.01368C15.258 6.14329 15.2965 6.28222 15.2966 6.42253C15.2967 6.56284 15.2583 6.70179 15.1837 6.83144C15.1091 6.96109 14.9998 7.0789 14.8619 7.17815L13.2282 8.35322C12.7277 8.71321 12.4203 9.023 12.2213 9.383C12.0012 9.76555 11.8857 10.175 11.8812 10.589C11.8812 11.0975 11.9955 11.497 12.2213 11.9019C12.4203 12.2619 12.7277 12.5717 13.2282 12.9317C13.7287 13.2917 14.1594 13.5128 14.6599 13.656C15.2406 13.8237 15.7975 13.9006 16.3366 13.9006C16.8757 13.9006 17.4327 13.8237 18.0134 13.656C18.5139 13.5128 18.9446 13.2917 19.445 12.9317L24.1723 9.53149L25.6337 8.37458C25.6496 8.36219 25.6659 8.35008 25.6827 8.33826C26.1832 7.97826 26.4906 7.66847 26.6896 7.30848C26.9228 6.89079 27.0297 6.49021 27.0297 6.10243C27.0297 5.71466 26.9228 5.31407 26.6896 4.89639C26.4906 4.53639 26.1832 4.2266 25.6827 3.86661C25.1822 3.50661 24.7515 3.28548 24.251 3.14127C23.719 2.98331 23.1497 2.90061 22.5743 2.89771C22.1804 2.89771 21.8026 2.78517 21.5241 2.58483C21.2456 2.3845 21.0891 2.11279 21.0891 1.82947ZM13.8119 3.43183C13.2728 3.43183 12.7158 3.50875 12.1351 3.67539C11.6347 3.8196 11.204 4.04073 10.7035 4.40179L5.82772 7.90776L4.36634 9.06466L4.31733 9.10099C3.81683 9.46098 3.50941 9.77077 3.30891 10.1308C3.0893 10.5134 2.97433 10.9229 2.9703 11.3368C2.9703 11.7246 3.07723 12.1252 3.30891 12.5429C3.50941 12.9029 3.81683 13.2126 4.31881 13.5726C4.81782 13.9326 5.24851 14.1538 5.74901 14.298C6.3297 14.4646 6.88663 14.5415 7.42574 14.5415C7.81963 14.5415 8.19738 14.6541 8.4759 14.8544C8.75442 15.0547 8.91089 15.3265 8.91089 15.6098C8.91089 15.8931 8.75442 16.1648 8.4759 16.3651C8.19738 16.5655 7.81963 16.678 7.42574 16.678C6.47277 16.6751 5.52945 16.5406 4.64703 16.2817C3.66238 15.9975 2.90495 15.5777 2.21733 15.0831C1.5297 14.5885 0.946039 14.0437 0.552475 13.3355C0.192121 12.7008 0.00456647 12.0223 0 11.3368C0 10.6563 0.190099 9.98869 0.552475 9.33813C0.940099 8.63844 1.51485 8.09898 2.19208 7.60865L3.65347 6.45175L3.70248 6.41543L8.60347 2.89023C9.29109 2.39564 10.0485 1.97582 11.0332 1.69274C11.9155 1.43354 12.8588 1.29864 13.8119 1.29535C14.7579 1.29535 15.6861 1.43209 16.5906 1.69274C17.5752 1.97582 18.3327 2.39564 19.0203 2.88917C19.7079 3.38483 20.2916 3.92963 20.6851 4.63788C21.0475 5.28843 21.2376 5.95608 21.2376 6.63655C21.2376 7.31702 21.0475 7.98467 20.6851 8.63523C20.296 9.33493 19.7213 9.87653 19.0441 10.3658L17.4312 11.6316C17.1649 11.8405 16.7942 11.9646 16.4007 11.9768C16.0071 11.9891 15.623 11.8883 15.3327 11.6968C15.0424 11.5053 14.8697 11.2387 14.8528 10.9556C14.8358 10.6725 14.9758 10.3962 15.2421 10.1874L16.8757 8.9055L16.9203 8.87238C17.4208 8.51238 17.7282 8.20259 17.9272 7.8426C18.1604 7.42492 18.2673 7.02433 18.2673 6.63655C18.2673 6.24878 18.1604 5.84819 17.9272 5.43051C17.7282 5.07051 17.4208 4.76072 16.9203 4.40073C16.4198 4.04073 15.9891 3.8196 15.4886 3.67539C14.9567 3.51743 14.3874 3.43473 13.8119 3.43183Z" fill="#31326F"/>
</svg>
