<svg width="30" height="16" viewBox="0 0 30 16" fill="none" xmlns="http://www.w3.org/2000/svg">
<path d="M21.0891 1.06824C21.0891 0.784926 21.2456 0.513215 21.5241 0.312881C21.8026 0.112547 22.1804 0 22.5743 0C23.5203 0 24.4485 0.136735 25.353 0.397386C26.3376 0.68047 27.095 1.10029 27.7827 1.59382C28.4703 2.08948 29.054 2.63428 29.4475 3.34252C29.8099 3.99308 30 4.66073 30 5.3412C30 6.02167 29.8099 6.68932 29.4475 7.33988C29.0599 8.03958 28.4851 8.57904 27.8079 9.06936L26.3465 10.2263C26.3306 10.2387 26.3143 10.2508 26.2975 10.2626L21.545 13.681C20.8574 14.1756 20.1 14.5954 19.1153 14.8795C18.2329 15.1384 17.2896 15.2729 16.3366 15.2758C15.3836 15.2726 14.4402 15.1377 13.5579 14.8785C12.5733 14.5954 11.8158 14.1756 11.1282 13.682C10.4406 13.1864 9.85693 12.6416 9.46337 11.9333C9.08895 11.2643 8.90123 10.5489 8.91089 9.82781C8.91089 9.14734 9.10099 8.47969 9.46337 7.82914C9.85693 7.12089 10.4406 6.57609 11.1267 6.08149L12.7604 4.90643C12.8983 4.80718 13.062 4.72844 13.2422 4.67469C13.4224 4.62095 13.6155 4.59327 13.8106 4.59322C14.0057 4.59317 14.1989 4.62076 14.3791 4.67441C14.5594 4.72805 14.7232 4.80671 14.8611 4.90589C14.9991 5.00508 15.1086 5.12283 15.1833 5.25245C15.258 5.38206 15.2965 5.52099 15.2966 5.6613C15.2967 5.80161 15.2583 5.94056 15.1837 6.07021C15.1091 6.19986 14.9998 6.31767 14.8619 6.41692L13.2282 7.59199C12.7277 7.95198 12.4203 8.26177 12.2213 8.62177C12.0012 9.00432 11.8857 9.41381 11.8812 9.82781C11.8812 10.3363 11.9955 10.7358 12.2213 11.1407C12.4203 11.5007 12.7277 11.8105 13.2282 12.1705C13.7287 12.5305 14.1594 12.7516 14.6599 12.8947C15.2406 13.0624 15.7975 13.1394 16.3366 13.1394C16.8757 13.1394 17.4327 13.0624 18.0134 12.8947C18.5139 12.7516 18.9446 12.5305 19.445 12.1705L24.1723 8.77026L25.6337 7.61335C25.6496 7.60096 25.6659 7.58885 25.6827 7.57703C26.1832 7.21703 26.4906 6.90724 26.6896 6.54725C26.9228 6.12956 27.0297 5.72897 27.0297 5.3412C27.0297 4.95343 26.9228 4.55284 26.6896 4.13516C26.4906 3.77516 26.1832 3.46537 25.6827 3.10538C25.1822 2.74538 24.7515 2.52425 24.251 2.38004C23.719 2.22208 23.1497 2.13938 22.5743 2.13648C22.1804 2.13648 21.8026 2.02393 21.5241 1.8236C21.2456 1.62327 21.0891 1.35156 21.0891 1.06824ZM13.8119 2.6706C13.2728 2.6706 12.7158 2.74752 12.1351 2.91416C11.6347 3.05837 11.204 3.2795 10.7035 3.64056L5.82772 7.14653L4.36634 8.30343L4.31733 8.33975C3.81683 8.69975 3.50941 9.00954 3.30891 9.36954C3.0893 9.75216 2.97433 10.1616 2.9703 10.5756C2.9703 10.9634 3.07723 11.3639 3.30891 11.7816C3.50941 12.1416 3.81683 12.4514 4.31881 12.8114C4.81782 13.1714 5.24851 13.3925 5.74901 13.5367C6.3297 13.7034 6.88663 13.7803 7.42574 13.7803C7.81963 13.7803 8.19738 13.8929 8.4759 14.0932C8.75442 14.2935 8.91089 14.5652 8.91089 14.8485C8.91089 15.1319 8.75442 15.4036 8.4759 15.6039C8.19738 15.8042 7.81963 15.9168 7.42574 15.9168C6.47277 15.9139 5.52945 15.7793 4.64703 15.5205C3.66238 15.2363 2.90495 14.8165 2.21733 14.3219C1.5297 13.8273 0.946039 13.2825 0.552475 12.5743C0.192121 11.9396 0.00456647 11.2611 0 10.5756C0 9.89511 0.190099 9.22746 0.552475 8.5769C0.940099 7.87721 1.51485 7.33774 2.19208 6.84742L3.65347 5.69052L3.70248 5.6542L8.60347 2.129C9.29109 1.63441 10.0485 1.21459 11.0332 0.931506C11.9155 0.67231 12.8588 0.537405 13.8119 0.53412C14.7579 0.53412 15.6861 0.670855 16.5906 0.931506C17.5752 1.21459 18.3327 1.63441 19.0203 2.12794C19.7079 2.6236 20.2916 3.1684 20.6851 3.87664C21.0475 4.5272 21.2376 5.19485 21.2376 5.87532C21.2376 6.55579 21.0475 7.22344 20.6851 7.874C20.296 8.5737 19.7213 9.1153 19.0441 9.60455L17.4312 10.8704C17.1649 11.0792 16.7942 11.2034 16.4007 11.2156C16.0071 11.2278 15.623 11.1271 15.3327 10.9356C15.0424 10.7441 14.8697 10.4774 14.8528 10.1944C14.8358 9.91129 14.9758 9.63496 15.2421 9.42616L16.8757 8.14427L16.9203 8.11115C17.4208 7.75115 17.7282 7.44136 17.9272 7.08137C18.1604 6.66368 18.2673 6.26309 18.2673 5.87532C18.2673 5.48755 18.1604 5.08696 17.9272 4.66928C17.7282 4.30928 17.4208 3.99949 16.9203 3.6395C16.4198 3.2795 15.9891 3.05837 15.4886 2.91416C14.9567 2.7562 14.3874 2.6735 13.8119 2.6706Z" fill="#31326F"/>
</svg>
