<svg width="25" height="19" viewBox="0 0 25 19" fill="none" xmlns="http://www.w3.org/2000/svg">
<path d="M0 2.82641C0 2.24256 0.263392 1.68262 0.732233 1.26978C1.20107 0.856933 1.83696 0.625 2.5 0.625H22.5C23.163 0.625 23.7989 0.856933 24.2678 1.26978C24.7366 1.68262 25 2.24256 25 2.82641V16.0349C25 16.6187 24.7366 17.1786 24.2678 17.5915C23.7989 18.0043 23.163 18.2363 22.5 18.2363H2.5C1.83696 18.2363 1.20107 18.0043 0.732233 17.5915C0.263392 17.1786 0 16.6187 0 16.0349V2.82641ZM4.39875 2.82641L12.5 9.0685L20.6013 2.82641H4.39875ZM22.5 4.28924L13.3238 11.3602C13.0958 11.536 12.8031 11.633 12.5 11.633C12.1969 11.633 11.9042 11.536 11.6762 11.3602L2.5 4.28924V16.0349H22.5V4.28924Z" fill="#0D0D0D" fill-opacity="0.5"/>
</svg>
