<svg width="512" height="512" viewBox="0 0 512 512" fill="none" xmlns="http://www.w3.org/2000/svg">
<path d="M246.006 449.039C326.041 449.039 390.922 439.029 390.922 426.68C390.922 414.332 326.041 404.321 246.006 404.321C165.971 404.321 101.089 414.332 101.089 426.68C101.089 439.029 165.971 449.039 246.006 449.039Z" fill="#31326F"/>
<path d="M159.539 381.656L158.783 383.286C158.305 384.318 158.754 385.541 159.785 386.019L198.882 404.134C199.914 404.612 201.137 404.164 201.615 403.132L202.371 401.502C202.849 400.47 202.4 399.247 201.369 398.769L162.271 380.654C161.24 380.176 160.017 380.624 159.539 381.656Z" fill="black"/>
<path d="M160.364 368.2L179.82 373.32L206.1 385.5L201.615 395.187C201.204 396.072 200.458 396.758 199.541 397.094C198.624 397.43 197.612 397.389 196.726 396.979L162.13 380.954L160.364 368.2Z" fill="white"/>
<path d="M198.267 398.336C197.586 398.336 196.913 398.188 196.296 397.901L161.193 381.645L159.145 366.797L180.26 372.372L207.462 385.024L202.542 395.643C202.159 396.451 201.553 397.134 200.796 397.611C200.039 398.088 199.162 398.34 198.267 398.336ZM163.072 380.257L197.156 396.052C197.474 396.202 197.819 396.287 198.17 396.303C198.521 396.318 198.871 396.264 199.201 396.143C199.531 396.022 199.834 395.837 200.092 395.598C200.35 395.359 200.558 395.072 200.704 394.752L204.764 385.992L179.471 374.272L161.587 369.567L163.072 380.257Z" fill="black"/>
<path d="M164.864 388.362L142.735 378.122C141.922 377.745 141.291 377.06 140.982 376.218C140.673 375.376 140.71 374.446 141.087 373.632C142.636 370.292 145.447 367.704 148.904 366.437C152.36 365.169 156.178 365.327 159.519 366.874C161.173 367.64 162.66 368.725 163.895 370.066C165.13 371.407 166.088 372.978 166.716 374.69C167.344 376.401 167.628 378.22 167.553 380.041C167.477 381.863 167.044 383.652 166.277 385.306L164.864 388.362Z" fill="black"/>
<path d="M339.031 172.488L327.68 173.179C322.494 173.494 317.394 171.736 313.504 168.292C309.613 164.848 307.25 160 306.934 154.813L306.294 144.261C306.155 141.978 306.468 139.69 307.214 137.528C307.959 135.366 309.124 133.373 310.641 131.661C312.158 129.949 313.997 128.553 316.053 127.552C318.11 126.552 320.344 125.966 322.627 125.829L331.474 125.292C337.876 124.908 344.168 127.081 348.968 131.334C353.768 135.587 356.684 141.572 357.074 147.973L357.309 151.864C357.62 157.023 355.869 162.094 352.441 165.961C349.013 169.829 344.19 172.177 339.031 172.488Z" fill="black"/>
<path d="M145.219 428.032C144.975 428.036 144.737 427.952 144.55 427.796C144.362 427.64 144.236 427.422 144.195 427.182L116.736 269.481L74.8544 427.1C74.7784 427.354 74.6071 427.568 74.3764 427.698C74.1457 427.828 73.8736 427.864 73.6172 427.798C73.3608 427.732 73.14 427.569 73.0012 427.343C72.8624 427.117 72.8164 426.847 72.8729 426.588L117.146 259.937L146.227 426.849C146.274 427.114 146.214 427.387 146.06 427.609C145.907 427.83 145.673 427.982 145.408 428.032C145.345 428.038 145.282 428.038 145.219 428.032Z" fill="black"/>
<path d="M304.712 250.455H97.3671C94.8815 250.455 92.8666 252.47 92.8666 254.956V260.209C92.8666 262.694 94.8815 264.709 97.3671 264.709H304.712C307.197 264.709 309.212 262.694 309.212 260.209V254.956C309.212 252.47 307.197 250.455 304.712 250.455Z" fill="black"/>
<path d="M290.422 101.96H253.64C248.298 101.96 243.968 106.29 243.968 111.631C243.968 116.973 248.298 121.303 253.64 121.303H290.422C295.763 121.303 300.093 116.973 300.093 111.631C300.093 106.29 295.763 101.96 290.422 101.96Z" fill="white"/>
<path d="M290.427 122.322H253.64C252.216 122.353 250.8 122.1 249.475 121.576C248.151 121.053 246.944 120.27 245.926 119.274C244.908 118.278 244.099 117.089 243.547 115.776C242.994 114.463 242.71 113.053 242.71 111.629C242.71 110.205 242.994 108.795 243.547 107.482C244.099 106.169 244.908 104.98 245.926 103.984C246.944 102.987 248.151 102.205 249.475 101.681C250.8 101.158 252.216 100.905 253.64 100.936H290.427C291.851 100.905 293.267 101.158 294.591 101.681C295.916 102.205 297.123 102.987 298.141 103.984C299.159 104.98 299.968 106.169 300.52 107.482C301.072 108.795 301.357 110.205 301.357 111.629C301.357 113.053 301.072 114.463 300.52 115.776C299.968 117.089 299.159 118.278 298.141 119.274C297.123 120.27 295.916 121.053 294.591 121.576C293.267 122.1 291.851 122.353 290.427 122.322ZM253.64 102.984C252.487 102.956 251.34 103.158 250.266 103.58C249.193 104.002 248.215 104.634 247.389 105.44C246.564 106.246 245.908 107.208 245.46 108.271C245.012 109.334 244.782 110.475 244.782 111.629C244.782 112.782 245.012 113.924 245.46 114.987C245.908 116.049 246.564 117.012 247.389 117.818C248.215 118.623 249.193 119.255 250.266 119.677C251.34 120.099 252.487 120.302 253.64 120.274H290.427C291.58 120.302 292.727 120.099 293.8 119.677C294.874 119.255 295.852 118.623 296.677 117.818C297.503 117.012 298.159 116.049 298.606 114.987C299.054 113.924 299.285 112.782 299.285 111.629C299.285 110.475 299.054 109.334 298.606 108.271C298.159 107.208 297.503 106.246 296.677 105.44C295.852 104.634 294.874 104.002 293.8 103.58C292.727 103.158 291.58 102.956 290.427 102.984H253.64Z" fill="black"/>
<path d="M259.937 116.291L257.316 114.908C257.277 114.888 257.234 114.877 257.19 114.877C257.147 114.877 257.104 114.888 257.065 114.908L254.443 116.291C254.399 116.313 254.349 116.322 254.299 116.318C254.249 116.314 254.201 116.296 254.161 116.266C254.121 116.237 254.09 116.196 254.071 116.15C254.052 116.104 254.046 116.053 254.054 116.004L254.566 113.085C254.573 113.042 254.568 112.997 254.554 112.955C254.54 112.913 254.516 112.876 254.484 112.845L252.365 110.797C252.329 110.762 252.303 110.718 252.291 110.669C252.279 110.621 252.281 110.57 252.296 110.522C252.312 110.475 252.34 110.433 252.379 110.401C252.417 110.368 252.464 110.348 252.513 110.341L255.447 109.911C255.49 109.906 255.53 109.89 255.565 109.865C255.6 109.84 255.628 109.806 255.647 109.768L256.963 107.11C256.984 107.065 257.018 107.026 257.061 106.999C257.103 106.972 257.153 106.958 257.203 106.958C257.254 106.958 257.303 106.972 257.346 106.999C257.388 107.026 257.422 107.065 257.444 107.11L258.755 109.768C258.774 109.806 258.803 109.84 258.839 109.865C258.875 109.89 258.916 109.906 258.959 109.911L261.888 110.341C261.938 110.348 261.984 110.368 262.023 110.401C262.061 110.433 262.09 110.475 262.105 110.522C262.121 110.57 262.122 110.621 262.11 110.669C262.098 110.718 262.073 110.762 262.036 110.797L259.917 112.845C259.886 112.876 259.863 112.914 259.849 112.956C259.836 112.998 259.833 113.042 259.84 113.085L260.352 116.004C260.364 116.057 260.36 116.112 260.34 116.163C260.321 116.213 260.286 116.257 260.242 116.288C260.197 116.319 260.144 116.335 260.09 116.336C260.036 116.336 259.982 116.321 259.937 116.291Z" fill="#FFC1EB"/>
<path d="M274.78 116.291L272.159 114.908C272.12 114.888 272.077 114.877 272.033 114.877C271.99 114.877 271.947 114.888 271.908 114.908L269.286 116.291C269.242 116.314 269.191 116.325 269.14 116.321C269.09 116.318 269.041 116.3 269 116.27C268.959 116.24 268.927 116.2 268.908 116.152C268.889 116.105 268.883 116.054 268.892 116.004L269.404 113.085C269.412 113.042 269.41 112.997 269.396 112.955C269.383 112.913 269.359 112.875 269.327 112.845L267.208 110.797C267.172 110.762 267.146 110.718 267.134 110.67C267.122 110.621 267.124 110.57 267.139 110.522C267.155 110.475 267.183 110.433 267.222 110.401C267.26 110.369 267.307 110.348 267.356 110.341L270.29 109.911C270.333 109.906 270.373 109.89 270.408 109.865C270.443 109.84 270.471 109.806 270.49 109.768L271.8 107.11C271.823 107.065 271.857 107.027 271.9 107C271.943 106.974 271.993 106.959 272.044 106.959C272.094 106.959 272.144 106.974 272.187 107C272.23 107.027 272.264 107.065 272.287 107.11L273.597 109.768C273.616 109.806 273.644 109.84 273.679 109.865C273.714 109.89 273.754 109.906 273.797 109.911L276.731 110.341C276.78 110.348 276.827 110.369 276.865 110.401C276.904 110.433 276.932 110.475 276.948 110.522C276.963 110.57 276.965 110.621 276.953 110.67C276.941 110.718 276.915 110.762 276.879 110.797L274.76 112.845C274.728 112.875 274.704 112.913 274.691 112.955C274.678 112.997 274.675 113.042 274.683 113.085L275.195 116.004C275.207 116.057 275.203 116.112 275.183 116.163C275.164 116.213 275.129 116.257 275.085 116.288C275.04 116.319 274.987 116.336 274.933 116.336C274.879 116.336 274.825 116.321 274.78 116.291Z" fill="#FFC1EB"/>
<path d="M289.623 116.291L287.002 114.908C286.963 114.888 286.92 114.877 286.876 114.877C286.832 114.877 286.789 114.888 286.751 114.908L284.129 116.291C284.084 116.314 284.034 116.325 283.983 116.321C283.932 116.318 283.884 116.3 283.843 116.27C283.802 116.24 283.77 116.199 283.751 116.152C283.732 116.105 283.726 116.054 283.735 116.004L284.247 113.085C284.254 113.042 284.251 112.998 284.238 112.956C284.224 112.914 284.201 112.876 284.17 112.845L282.051 110.797C282.015 110.762 281.989 110.718 281.977 110.669C281.965 110.621 281.966 110.57 281.982 110.522C281.997 110.475 282.026 110.433 282.064 110.401C282.103 110.368 282.149 110.348 282.199 110.341L285.128 109.911C285.171 109.905 285.212 109.889 285.248 109.864C285.283 109.839 285.312 109.806 285.332 109.768L286.643 107.11C286.665 107.065 286.699 107.026 286.741 106.999C286.784 106.972 286.833 106.958 286.884 106.958C286.934 106.958 286.984 106.972 287.026 106.999C287.069 107.026 287.103 107.065 287.124 107.11L288.435 109.768C288.455 109.806 288.484 109.839 288.52 109.864C288.556 109.889 288.597 109.905 288.64 109.911L291.574 110.341C291.623 110.348 291.67 110.368 291.708 110.401C291.747 110.433 291.775 110.475 291.791 110.522C291.806 110.57 291.808 110.621 291.796 110.669C291.784 110.718 291.758 110.762 291.722 110.797L289.597 112.845C289.566 112.876 289.543 112.914 289.53 112.956C289.517 112.998 289.513 113.042 289.521 113.085L290.033 116.004C290.044 116.056 290.039 116.11 290.02 116.16C290 116.21 289.967 116.252 289.923 116.283C289.879 116.314 289.827 116.331 289.774 116.332C289.721 116.333 289.668 116.319 289.623 116.291Z" fill="#FFC1EB"/>
<path d="M264.704 131.389H134.4C128.965 131.389 124.559 135.795 124.559 141.23V221.763C124.559 227.197 128.965 231.603 134.4 231.603H264.704C270.139 231.603 274.545 227.197 274.545 221.763V141.23C274.545 135.795 270.139 131.389 264.704 131.389Z" fill="black"/>
<path d="M257.116 140.037H141.988C137.845 140.037 134.487 143.395 134.487 147.538V217.472C134.487 221.615 137.845 224.973 141.988 224.973H257.116C261.259 224.973 264.617 221.615 264.617 217.472V147.538C264.617 143.395 261.259 140.037 257.116 140.037Z" fill="white"/>
<path d="M208.635 154.23H175.959C173.058 154.23 170.706 156.582 170.706 159.483V208.189C170.706 211.091 173.058 213.443 175.959 213.443H208.635C211.536 213.443 213.888 211.091 213.888 208.189V159.483C213.888 156.582 211.536 154.23 208.635 154.23Z" fill="#6DC8C2"/>
<path d="M159.012 152.622H147.477C146.263 152.622 145.28 153.605 145.28 154.819V166.354C145.28 167.567 146.263 168.55 147.477 168.55H159.012C160.225 168.55 161.208 167.567 161.208 166.354V154.819C161.208 153.605 160.225 152.622 159.012 152.622Z" fill="#6DC8C2"/>
<path d="M158.587 176.041H147.901C146.454 176.041 145.28 177.215 145.28 178.662V189.348C145.28 190.796 146.454 191.969 147.901 191.969H158.587C160.035 191.969 161.208 190.796 161.208 189.348V178.662C161.208 177.215 160.035 176.041 158.587 176.041Z" fill="#31326F"/>
<path d="M158.556 199.455H147.932C146.467 199.455 145.28 200.642 145.28 202.107V212.731C145.28 214.196 146.467 215.383 147.932 215.383H158.556C160.021 215.383 161.208 214.196 161.208 212.731V202.107C161.208 200.642 160.021 199.455 158.556 199.455Z" fill="#FFC1EB"/>
<path d="M256.548 156.411H222.367C222.095 156.411 221.835 156.303 221.643 156.111C221.451 155.919 221.343 155.658 221.343 155.387C221.343 155.115 221.451 154.855 221.643 154.663C221.835 154.471 222.095 154.363 222.367 154.363H256.548C256.819 154.363 257.08 154.471 257.272 154.663C257.464 154.855 257.572 155.115 257.572 155.387C257.572 155.658 257.464 155.919 257.272 156.111C257.08 156.303 256.819 156.411 256.548 156.411Z" fill="black"/>
<path d="M256.548 165.888H222.367C222.095 165.888 221.835 165.78 221.643 165.588C221.451 165.396 221.343 165.136 221.343 164.864C221.343 164.592 221.451 164.332 221.643 164.14C221.835 163.948 222.095 163.84 222.367 163.84H256.548C256.819 163.84 257.08 163.948 257.272 164.14C257.464 164.332 257.572 164.592 257.572 164.864C257.572 165.136 257.464 165.396 257.272 165.588C257.08 165.78 256.819 165.888 256.548 165.888Z" fill="black"/>
<path d="M245.934 175.319H222.382C222.11 175.319 221.85 175.211 221.658 175.019C221.466 174.827 221.358 174.567 221.358 174.295C221.358 174.023 221.466 173.763 221.658 173.571C221.85 173.379 222.11 173.271 222.382 173.271H245.934C246.206 173.271 246.466 173.379 246.658 173.571C246.85 173.763 246.958 174.023 246.958 174.295C246.958 174.567 246.85 174.827 246.658 175.019C246.466 175.211 246.206 175.319 245.934 175.319Z" fill="black"/>
<path d="M240.164 182.446H225.92C223.412 182.446 221.379 184.479 221.379 186.987C221.379 189.496 223.412 191.529 225.92 191.529H240.164C242.672 191.529 244.705 189.496 244.705 186.987C244.705 184.479 242.672 182.446 240.164 182.446Z" fill="#31326F"/>
<path d="M254.188 191.258C256.543 191.258 258.453 189.348 258.453 186.993C258.453 184.637 256.543 182.728 254.188 182.728C251.832 182.728 249.923 184.637 249.923 186.993C249.923 189.348 251.832 191.258 254.188 191.258Z" fill="#FB6D6D"/>
<path d="M200.904 250.455H165.228L179.835 231.603H216.975L200.904 250.455Z" fill="black"/>
<path d="M355.174 316.498C355.09 316.498 355.006 316.488 354.924 316.467C354.793 316.434 354.67 316.376 354.562 316.296C354.455 316.215 354.363 316.115 354.295 315.999C354.226 315.883 354.18 315.755 354.161 315.622C354.141 315.489 354.148 315.353 354.181 315.223L367.657 261.975C367.725 261.712 367.895 261.486 368.129 261.348C368.363 261.209 368.643 261.17 368.906 261.238C369.17 261.306 369.395 261.475 369.534 261.71C369.672 261.944 369.711 262.224 369.644 262.487L356.168 315.735C356.11 315.954 355.981 316.148 355.801 316.286C355.622 316.424 355.401 316.499 355.174 316.498Z" fill="black"/>
<path d="M281.165 425.795C281.119 425.8 281.072 425.8 281.027 425.795C280.893 425.777 280.764 425.733 280.648 425.666C280.531 425.598 280.429 425.508 280.347 425.401C280.265 425.294 280.206 425.172 280.171 425.042C280.136 424.912 280.128 424.776 280.146 424.643L293.934 322.852C293.952 322.717 293.996 322.588 294.064 322.47C294.132 322.353 294.222 322.25 294.33 322.168C294.438 322.085 294.561 322.025 294.692 321.99C294.823 321.955 294.959 321.946 295.094 321.964C295.228 321.981 295.358 322.025 295.475 322.093C295.593 322.161 295.696 322.252 295.778 322.359C295.861 322.467 295.921 322.59 295.956 322.721C295.991 322.852 296 322.989 295.982 323.123L282.179 424.909C282.145 425.154 282.024 425.379 281.838 425.542C281.651 425.705 281.412 425.794 281.165 425.795Z" fill="black"/>
<path d="M370.215 207.1L359.829 252.85C358.953 256.708 361.371 260.545 365.229 261.421L373.048 263.196C376.905 264.072 380.743 261.654 381.618 257.797L392.004 212.046C392.88 208.188 390.463 204.351 386.605 203.475L378.786 201.7C374.928 200.824 371.091 203.242 370.215 207.1Z" fill="#C7B8F8"/>
<path d="M355.896 425.795C355.648 425.797 355.407 425.709 355.219 425.547C355.03 425.385 354.907 425.16 354.872 424.914L340.48 323.118C340.442 322.846 340.513 322.571 340.679 322.352C340.844 322.133 341.089 321.989 341.361 321.951C341.632 321.913 341.908 321.984 342.127 322.149C342.346 322.314 342.49 322.56 342.528 322.831L356.915 424.627C356.953 424.896 356.883 425.169 356.72 425.386C356.556 425.603 356.314 425.746 356.045 425.784C355.996 425.793 355.946 425.797 355.896 425.795Z" fill="black"/>
<path d="M351.13 392.054H285.732C285.46 392.054 285.2 391.946 285.008 391.754C284.816 391.562 284.708 391.301 284.708 391.03C284.708 390.758 284.816 390.498 285.008 390.306C285.2 390.114 285.46 390.006 285.732 390.006H351.13C351.401 390.006 351.662 390.114 351.854 390.306C352.046 390.498 352.154 390.758 352.154 391.03C352.154 391.301 352.046 391.562 351.854 391.754C351.662 391.946 351.401 392.054 351.13 392.054Z" fill="black"/>
<path d="M350.223 298.952H288.241C284.333 298.952 281.165 302.12 281.165 306.028V315.899C281.165 319.807 284.333 322.975 288.241 322.975H350.223C354.131 322.975 357.299 319.807 357.299 315.899V306.028C357.299 302.12 354.131 298.952 350.223 298.952Z" fill="#C7B8F8"/>
<path d="M359.183 143.462C367.567 143.462 374.364 136.666 374.364 128.282C374.364 119.898 367.567 113.101 359.183 113.101C350.799 113.101 344.003 119.898 344.003 128.282C344.003 136.666 350.799 143.462 359.183 143.462Z" fill="black"/>
<path d="M387.057 134.953C398.311 134.953 407.434 125.83 407.434 114.575C407.434 103.321 398.311 94.1978 387.057 94.1978C375.802 94.1978 366.679 103.321 366.679 114.575C366.679 125.83 375.802 134.953 387.057 134.953Z" fill="black"/>
<path d="M349.266 157.015C349.266 155.25 348.565 153.557 347.316 152.309C346.068 151.06 344.375 150.359 342.61 150.359C342.298 150.362 341.987 150.386 341.678 150.431L340.403 132.961L315.556 135.629C313.004 135.901 310.643 137.107 308.927 139.015C307.212 140.924 306.263 143.4 306.263 145.966V148.777C306.285 152.035 305.38 155.231 303.652 157.993L303.606 158.06V158.085C303.417 158.37 303.291 158.691 303.237 159.028C303.182 159.365 303.2 159.71 303.289 160.039C303.379 160.368 303.537 160.675 303.754 160.939C303.971 161.202 304.242 161.416 304.548 161.567L306.278 162.417V169.001C306.278 170.31 306.561 171.603 307.109 172.792C307.656 173.981 308.454 175.037 309.449 175.888C310.443 176.739 311.61 177.365 312.87 177.722C314.129 178.079 315.451 178.158 316.744 177.956L323.123 176.963L324.403 187.904L344.714 185.508L343.337 173.829H343.398L342.656 163.666C344.412 163.654 346.093 162.948 347.331 161.702C348.569 160.456 349.265 158.772 349.266 157.015Z" fill="white"/>
<path d="M323.507 189.041L322.222 178.176L316.897 179.005C315.458 179.23 313.988 179.141 312.587 178.743C311.186 178.345 309.887 177.649 308.781 176.702C307.674 175.754 306.786 174.579 306.178 173.256C305.569 171.932 305.254 170.493 305.254 169.037V163.082L304.092 162.514C303.659 162.303 303.276 162.003 302.968 161.633C302.66 161.263 302.434 160.832 302.305 160.369C302.177 159.895 302.149 159.399 302.224 158.914C302.299 158.429 302.475 157.965 302.74 157.553L302.797 157.466C304.427 154.867 305.28 151.855 305.254 148.787V145.976C305.249 143.157 306.288 140.436 308.172 138.339C310.056 136.241 312.65 134.916 315.453 134.62L341.356 131.84L342.636 149.345C344.548 149.384 346.378 150.135 347.766 151.452C349.154 152.768 350 154.555 350.14 156.463C350.28 158.371 349.702 160.262 348.52 161.767C347.339 163.272 345.638 164.281 343.752 164.598L344.484 174.689L345.866 186.404L323.507 189.041ZM324.019 175.811L325.309 186.767L343.588 184.612L342.216 172.974H342.318L341.565 162.657H342.661C344.155 162.653 345.586 162.056 346.639 160.997C347.692 159.938 348.282 158.504 348.278 157.01C348.274 155.516 347.676 154.085 346.617 153.032C345.558 151.979 344.124 151.389 342.63 151.393C342.366 151.396 342.103 151.416 341.842 151.455L340.756 151.608L339.456 134.103L315.658 136.663C313.358 136.906 311.229 137.993 309.683 139.714C308.137 141.435 307.283 143.668 307.287 145.981V148.792C307.313 152.251 306.348 155.644 304.507 158.571L304.456 158.653C304.343 158.824 304.268 159.017 304.236 159.219C304.203 159.421 304.214 159.628 304.266 159.826C304.317 160.011 304.406 160.183 304.529 160.331C304.652 160.479 304.805 160.598 304.978 160.681L307.287 161.807V169.032C307.287 170.192 307.539 171.339 308.024 172.393C308.509 173.447 309.217 174.384 310.098 175.139C310.979 175.893 312.014 176.449 313.13 176.766C314.246 177.084 315.418 177.156 316.564 176.978L324.019 175.811Z" fill="black"/>
<path d="M312.832 170.071C312.571 170.071 312.311 170.049 312.054 170.004C311.065 169.833 310.147 169.378 309.412 168.694C309.208 168.51 309.086 168.254 309.071 167.98C309.057 167.706 309.152 167.438 309.335 167.235C309.518 167.031 309.775 166.908 310.049 166.894C310.322 166.88 310.591 166.974 310.794 167.158C311.239 167.57 311.791 167.848 312.387 167.962C314.281 168.274 315.771 166.426 315.786 166.426C315.957 166.224 316.2 166.096 316.463 166.069C316.726 166.042 316.989 166.118 317.198 166.281C317.406 166.444 317.543 166.681 317.581 166.942C317.618 167.204 317.553 167.47 317.399 167.685C317.292 167.803 315.484 170.071 312.832 170.071Z" fill="black"/>
<path d="M317.025 156.191C317.916 156.191 318.638 155.469 318.638 154.578C318.638 153.687 317.916 152.965 317.025 152.965C316.135 152.965 315.412 153.687 315.412 154.578C315.412 155.469 316.135 156.191 317.025 156.191Z" fill="black"/>
<path d="M341.934 160.471C341.389 160.471 340.857 160.309 340.404 160.007C339.951 159.704 339.598 159.274 339.389 158.771C339.181 158.267 339.126 157.713 339.232 157.179C339.339 156.645 339.601 156.154 339.986 155.769C340.371 155.383 340.862 155.121 341.397 155.015C341.931 154.909 342.485 154.963 342.988 155.172C343.491 155.38 343.922 155.733 344.224 156.186C344.527 156.639 344.689 157.172 344.689 157.716C344.689 158.447 344.398 159.148 343.882 159.664C343.365 160.181 342.665 160.471 341.934 160.471ZM341.934 157.01C341.794 157.01 341.658 157.051 341.541 157.129C341.425 157.207 341.335 157.317 341.281 157.446C341.228 157.575 341.214 157.717 341.241 157.854C341.268 157.991 341.336 158.117 341.434 158.216C341.533 158.315 341.659 158.382 341.796 158.409C341.933 158.437 342.075 158.423 342.204 158.369C342.334 158.316 342.444 158.225 342.521 158.109C342.599 157.993 342.641 157.856 342.641 157.716C342.641 157.529 342.566 157.349 342.434 157.217C342.301 157.084 342.121 157.01 341.934 157.01Z" fill="black"/>
<path d="M325.448 185.139L356.608 183.726C361.269 183.466 365.844 185.057 369.336 188.155C373.827 192.251 377.339 199.772 372.449 213.443L365.568 226.268L326.656 221.558L319.934 234.634L295.511 237.425C294.907 237.491 293.038 234.276 292.777 233.871C290.833 230.909 289.567 227.554 289.07 224.046C287.79 214.052 295.214 206.024 300.964 198.717C307.067 190.925 315.177 185.605 325.448 185.139Z" fill="#31326F"/>
<path d="M340.265 159.191C340.025 159.196 339.79 159.116 339.603 158.965C339.416 158.814 339.288 158.602 339.241 158.367C339.102 157.678 339.146 156.964 339.369 156.298C339.592 155.631 339.985 155.035 340.511 154.568C341.019 154.143 341.621 153.845 342.268 153.698C342.914 153.551 343.586 153.56 344.228 153.723C344.358 153.759 344.479 153.82 344.585 153.903C344.691 153.986 344.78 154.089 344.846 154.206C344.913 154.323 344.955 154.452 344.972 154.586C344.988 154.72 344.978 154.855 344.942 154.985C344.906 155.115 344.845 155.236 344.762 155.342C344.679 155.448 344.576 155.537 344.459 155.603C344.342 155.67 344.213 155.712 344.079 155.729C343.945 155.745 343.81 155.735 343.68 155.699C343.366 155.623 343.039 155.62 342.724 155.69C342.409 155.76 342.114 155.902 341.862 156.104C341.607 156.333 341.416 156.625 341.308 156.951C341.2 157.277 341.18 157.626 341.248 157.962C341.275 158.094 341.276 158.23 341.25 158.362C341.225 158.494 341.173 158.62 341.099 158.732C341.025 158.844 340.929 158.941 340.818 159.016C340.706 159.091 340.581 159.144 340.449 159.171C340.388 159.181 340.327 159.188 340.265 159.191Z" fill="black"/>
<path d="M315.566 135.639C315.566 135.639 315.233 156.268 341.888 150.41L340.413 132.972L315.566 135.639Z" fill="black"/>
<path d="M317.399 163.538C313.17 163.538 309.719 159.549 309.719 154.639C309.719 149.729 313.165 145.741 317.399 145.741C321.633 145.741 325.079 149.734 325.079 154.639C325.079 159.544 321.633 163.538 317.399 163.538ZM317.399 147.789C314.296 147.789 311.767 150.861 311.767 154.639C311.767 158.418 314.291 161.49 317.399 161.49C320.507 161.49 323.031 158.418 323.031 154.639C323.031 150.861 320.512 147.789 317.399 147.789Z" fill="black"/>
<path d="M352.481 271.304H313.344V245.325H349.507C352.062 253.733 353.076 262.534 352.502 271.304H352.481Z" fill="black"/>
<path d="M253.814 250.455H233.651C232.528 250.457 231.42 250.198 230.414 249.697C229.409 249.197 228.533 248.47 227.857 247.573C227.181 246.675 226.723 245.633 226.519 244.529C226.316 243.424 226.372 242.288 226.683 241.208C227.105 239.758 227.987 238.485 229.196 237.579C230.405 236.673 231.875 236.184 233.385 236.186H254.075C255.531 236.185 256.952 236.64 258.136 237.488C259.321 238.335 260.21 239.533 260.68 240.911C261.048 242 261.151 243.161 260.98 244.298C260.81 245.435 260.371 246.515 259.699 247.448C259.028 248.381 258.144 249.14 257.12 249.663C256.097 250.186 254.963 250.458 253.814 250.455Z" fill="#F3EAD6"/>
<path d="M326.052 221.558L319.427 234.634L281.267 238.433C279.84 238.576 278.403 238.3 277.13 237.64L260.608 229.059C260.608 229.059 254.838 225.828 246.497 229.309L232.448 235.684C231.858 235.939 231.363 236.372 231.032 236.923C230.702 237.474 230.552 238.115 230.605 238.756V238.787C230.64 239.049 230.731 239.3 230.871 239.524C231.012 239.749 231.199 239.94 231.42 240.086C231.64 240.231 231.89 240.328 232.151 240.369C232.413 240.409 232.68 240.394 232.934 240.323L247.808 236.15L240.84 242.452C239.814 243.371 239.098 244.586 238.792 245.929C238.321 248.115 238.889 251.08 244.552 252.431C244.552 252.431 247.158 256.809 251.592 254.479C251.617 254.479 252.247 255.037 252.298 255.073C252.99 255.607 253.731 256.075 254.51 256.471C256.95 257.684 259.621 258.363 262.344 258.463C264.033 258.545 265.621 257.807 265.841 255.974L267.264 256.123C271.701 256.577 276.12 257.229 280.52 258.079L314.173 264.586C323.389 265.892 329.984 263.921 333.348 262.589C343.178 258.703 349.548 251.791 354.657 243.011L364.385 226.263L326.052 221.558Z" fill="white"/>
<path d="M320.189 266.051C318.134 266.046 316.08 265.897 314.045 265.605H313.994L280.32 259.072C275.978 258.232 271.549 257.582 267.156 257.126L266.603 257.07C265.979 258.642 264.351 259.579 262.287 259.477C259.418 259.367 256.605 258.65 254.034 257.372C253.201 256.945 252.408 256.444 251.663 255.877L251.464 255.703L251.428 255.672C247.844 257.173 245.089 255.002 243.907 253.312C237.522 251.638 237.322 247.839 237.763 245.699C238.115 244.141 238.95 242.735 240.148 241.679L243.896 238.29L233.175 241.285C232.781 241.396 232.368 241.421 231.964 241.359C231.559 241.297 231.173 241.149 230.83 240.926C230.487 240.702 230.196 240.408 229.976 240.063C229.756 239.718 229.613 239.33 229.555 238.925C229.463 238.063 229.647 237.194 230.081 236.443C230.514 235.692 231.174 235.099 231.967 234.747L246.072 228.362C254.802 224.717 260.854 228.009 261.11 228.152L277.581 236.713C278.682 237.288 279.929 237.526 281.165 237.399L318.761 233.656L325.458 220.442L366.08 225.439L355.548 243.533C349.67 253.624 342.748 259.983 333.732 263.547C329.417 265.23 324.821 266.08 320.189 266.051ZM314.337 263.578C321.044 264.525 327.316 263.875 332.969 261.642C341.642 258.212 348.058 252.309 353.766 242.504L362.737 227.093L326.656 222.664L320.102 235.597L281.385 239.452C279.76 239.615 278.123 239.3 276.675 238.546L260.173 229.97C259.927 229.837 254.664 227.021 246.927 230.257L232.868 236.616C232.477 236.779 232.146 237.06 231.921 237.42C231.697 237.779 231.589 238.2 231.613 238.623C231.628 238.742 231.669 238.856 231.731 238.958C231.794 239.06 231.878 239.148 231.978 239.215C232.077 239.282 232.19 239.326 232.308 239.346C232.426 239.366 232.547 239.36 232.663 239.329L251.73 233.984L241.546 243.2C240.666 243.967 240.05 244.992 239.785 246.129C239.227 248.714 240.906 250.496 244.782 251.418L245.202 251.52L245.422 251.894C245.642 252.252 247.665 255.37 251.11 253.558C251.755 253.22 252.18 253.599 252.826 254.172L252.943 254.28C253.587 254.765 254.272 255.191 254.991 255.555C257.303 256.695 259.829 257.334 262.405 257.429C263.076 257.459 264.653 257.377 264.832 255.841L264.95 254.817L267.382 255.068C271.831 255.524 276.321 256.184 280.724 257.039L314.337 263.578Z" fill="black"/>
<path d="M267.868 419.154H224.778C223.641 419.154 222.72 420.075 222.72 421.212V423.009C222.72 424.146 223.641 425.068 224.778 425.068H267.868C269.005 425.068 269.926 424.146 269.926 423.009V421.212C269.926 420.075 269.005 419.154 267.868 419.154Z" fill="black"/>
<path d="M217.81 408.663L237.614 405.13H266.583V415.811C266.583 416.787 266.195 417.723 265.505 418.414C264.814 419.104 263.878 419.492 262.902 419.492H224.768L217.81 408.663Z" fill="white"/>
<path d="M262.902 420.516H224.22L216.115 407.926L237.619 404.106H267.612V415.811C267.611 417.059 267.114 418.256 266.231 419.138C265.348 420.02 264.15 420.516 262.902 420.516ZM225.336 418.468H262.902C263.606 418.467 264.281 418.186 264.779 417.688C265.277 417.19 265.558 416.515 265.559 415.811V406.154H237.706L219.5 409.4L225.336 418.468Z" fill="black"/>
<path d="M193.244 384.932L181.34 376.228C179.505 374.89 177.951 373.203 176.768 371.264C175.584 369.325 174.794 367.172 174.443 364.928C174.092 362.684 174.186 360.393 174.72 358.185C175.254 355.977 176.218 353.897 177.557 352.061L229.422 280.934C231.385 278.242 233.858 275.963 236.702 274.227C239.546 272.491 242.704 271.332 245.995 270.816C249.287 270.301 252.648 270.439 255.886 271.223C259.124 272.007 262.176 273.421 264.868 275.384C267.56 277.347 269.84 279.821 271.576 282.664C273.312 285.508 274.471 288.666 274.986 291.957C275.501 295.249 275.363 298.61 274.579 301.848C273.796 305.086 272.382 308.139 270.418 310.83L219.382 380.841C216.458 384.849 212.062 387.532 207.16 388.299C202.259 389.066 197.253 387.855 193.244 384.932Z" fill="black"/>
<path d="M317 307.712H226.376V289.905C226.377 283.053 229.1 276.483 233.945 271.639C238.79 266.795 245.36 264.074 252.211 264.074H352.481V272.23C352.481 281.641 348.743 290.666 342.089 297.32C335.435 303.974 326.41 307.712 317 307.712Z" fill="black"/>
<path d="M258.427 407.634H243.712C239.124 407.634 234.725 405.812 231.48 402.569C228.236 399.325 226.413 394.926 226.411 390.339V305.526H277.151V388.925C277.151 391.384 276.667 393.818 275.727 396.089C274.786 398.36 273.406 400.424 271.667 402.161C269.928 403.899 267.864 405.277 265.592 406.216C263.32 407.155 260.885 407.637 258.427 407.634Z" fill="black"/>
<path d="M199.327 385.29C199.139 385.29 198.956 385.238 198.796 385.14C198.636 385.043 198.506 384.903 198.42 384.737C198.334 384.571 198.296 384.384 198.308 384.197C198.321 384.01 198.384 383.831 198.492 383.677L225.556 345.277C225.713 345.055 225.952 344.905 226.22 344.859C226.488 344.813 226.763 344.875 226.985 345.032C227.207 345.189 227.358 345.427 227.404 345.695C227.45 345.963 227.388 346.238 227.231 346.46L200.166 384.86C200.071 384.994 199.945 385.103 199.799 385.178C199.653 385.253 199.491 385.291 199.327 385.29Z" fill="white"/>
<path d="M261.069 408.469C260.797 408.469 260.537 408.361 260.345 408.169C260.153 407.977 260.045 407.716 260.045 407.445V303.416C260.048 299.564 261.579 295.871 264.302 293.147C267.025 290.422 270.718 288.89 274.57 288.886H314.394C318.577 288.882 322.589 287.218 325.547 284.26C328.506 281.301 330.169 277.29 330.173 273.106V264.074C330.173 263.803 330.281 263.542 330.473 263.35C330.665 263.158 330.926 263.05 331.197 263.05C331.469 263.05 331.73 263.158 331.922 263.35C332.114 263.542 332.221 263.803 332.221 264.074V273.106C332.216 277.833 330.336 282.364 326.994 285.706C323.652 289.048 319.12 290.928 314.394 290.934H274.57C271.261 290.938 268.089 292.254 265.75 294.595C263.411 296.935 262.096 300.107 262.093 303.416V407.445C262.093 407.716 261.985 407.977 261.793 408.169C261.601 408.361 261.34 408.469 261.069 408.469Z" fill="white"/>
<path d="M244.542 253.44C244.321 253.439 244.106 253.366 243.93 253.234C243.754 253.101 243.625 252.915 243.564 252.703C241.188 244.567 249.907 239.539 249.999 239.488C250.116 239.421 250.246 239.377 250.379 239.36C250.513 239.342 250.649 239.352 250.779 239.387C250.91 239.422 251.032 239.483 251.139 239.565C251.245 239.647 251.335 239.75 251.402 239.867C251.47 239.984 251.513 240.113 251.53 240.247C251.548 240.381 251.539 240.516 251.503 240.647C251.468 240.777 251.408 240.899 251.325 241.006C251.243 241.113 251.14 241.202 251.023 241.27C249.689 242.093 248.49 243.119 247.47 244.311C245.422 246.779 244.751 249.405 245.55 252.129C245.626 252.39 245.596 252.67 245.465 252.908C245.334 253.146 245.115 253.323 244.854 253.399C244.752 253.427 244.647 253.441 244.542 253.44Z" fill="black"/>
<path d="M251.587 255.488C251.42 255.487 251.255 255.446 251.108 255.368C250.961 255.289 250.835 255.176 250.742 255.037C250.188 254.286 249.805 253.424 249.617 252.51C249.43 251.596 249.443 250.652 249.656 249.743C250.68 245.432 255.887 242.499 256.113 242.376C256.23 242.301 256.362 242.251 256.5 242.229C256.638 242.206 256.779 242.213 256.914 242.247C257.049 242.281 257.176 242.343 257.287 242.428C257.398 242.513 257.49 242.62 257.557 242.742C257.625 242.864 257.667 242.999 257.681 243.138C257.695 243.276 257.681 243.417 257.638 243.55C257.596 243.683 257.527 243.806 257.435 243.911C257.344 244.017 257.232 244.102 257.106 244.163C257.024 244.214 252.457 246.804 251.648 250.219C251.503 250.851 251.498 251.506 251.634 252.139C251.769 252.772 252.041 253.368 252.431 253.885C252.537 254.039 252.598 254.219 252.609 254.405C252.619 254.591 252.579 254.777 252.492 254.941C252.405 255.106 252.275 255.244 252.115 255.341C251.956 255.437 251.773 255.488 251.587 255.488Z" fill="black"/>
<path d="M265.836 257.024C265.584 257.026 265.341 256.935 265.152 256.769C264.963 256.603 264.842 256.373 264.812 256.123C264.612 254.484 261.279 252.539 259.692 251.868L258.278 251.264L263.183 246.518C263.381 246.344 263.638 246.252 263.901 246.262C264.164 246.273 264.413 246.384 264.596 246.573C264.78 246.762 264.883 247.015 264.885 247.278C264.887 247.541 264.787 247.795 264.607 247.987L261.857 250.65C263.654 251.612 266.552 253.517 266.839 255.877C266.871 256.146 266.795 256.416 266.628 256.629C266.461 256.842 266.217 256.98 265.948 257.014L265.836 257.024Z" fill="black"/>
<path d="M230.354 425.073H205.967C205.07 425.073 204.209 424.716 203.574 424.081C202.94 423.447 202.583 422.586 202.583 421.688C202.584 418.006 204.048 414.475 206.651 411.871C209.255 409.268 212.786 407.804 216.468 407.803C220.151 407.803 223.683 409.266 226.287 411.87C228.891 414.474 230.354 418.006 230.354 421.688V425.073Z" fill="black"/>
<path d="M324.055 154.199C323.783 154.214 323.517 154.12 323.314 153.939C323.112 153.757 322.99 153.503 322.975 153.231C322.96 152.96 323.053 152.693 323.235 152.491C323.416 152.288 323.671 152.166 323.942 152.151L340.091 150.364C340.362 150.334 340.635 150.413 340.848 150.584C341.061 150.755 341.198 151.004 341.228 151.275C341.257 151.547 341.178 151.819 341.007 152.033C340.836 152.246 340.588 152.382 340.316 152.412L324.168 154.194L324.055 154.199Z" fill="black"/>
<path d="M323.246 175.939L323.968 182.083L334.659 175.032C334.734 174.984 334.79 174.911 334.818 174.826C334.846 174.742 334.844 174.65 334.812 174.566C334.78 174.483 334.72 174.413 334.643 174.368C334.566 174.323 334.475 174.307 334.387 174.321L323.246 175.939Z" fill="black"/>
<path d="M326.052 222.582C325.911 222.583 325.772 222.555 325.642 222.5C325.397 222.388 325.205 222.184 325.109 221.932C325.014 221.68 325.021 221.4 325.13 221.153L329.329 211.487C329.381 211.362 329.457 211.248 329.554 211.153C329.65 211.057 329.765 210.982 329.891 210.931C330.017 210.881 330.151 210.855 330.287 210.857C330.422 210.859 330.556 210.887 330.681 210.941C330.805 210.995 330.918 211.073 331.012 211.171C331.106 211.269 331.18 211.384 331.229 211.511C331.278 211.637 331.301 211.772 331.297 211.908C331.294 212.044 331.263 212.177 331.208 212.301L327.004 221.967C326.924 222.152 326.79 222.309 326.621 222.418C326.451 222.528 326.253 222.585 326.052 222.582Z" fill="black"/>
<path d="M226.703 370.232C226.432 370.232 226.171 370.124 225.979 369.932C225.787 369.74 225.679 369.48 225.679 369.208V285.896C225.679 285.624 225.787 285.364 225.979 285.172C226.171 284.98 226.432 284.872 226.703 284.872C226.975 284.872 227.235 284.98 227.427 285.172C227.619 285.364 227.727 285.624 227.727 285.896V369.208C227.727 369.48 227.619 369.74 227.427 369.932C227.235 370.124 226.975 370.232 226.703 370.232Z" fill="white"/>
<path d="M486.077 152.95H392.95C386.695 152.95 381.624 158.02 381.624 164.275V221.148C381.624 227.403 386.695 232.474 392.95 232.474H486.077C492.332 232.474 497.403 227.403 497.403 221.148V164.275C497.403 158.02 492.332 152.95 486.077 152.95Z" fill="white"/>
<path d="M486.077 233.498H392.95C389.676 233.494 386.537 232.191 384.222 229.876C381.907 227.561 380.604 224.422 380.6 221.148V164.275C380.604 161.001 381.907 157.862 384.222 155.547C386.537 153.232 389.676 151.93 392.95 151.926H486.077C489.351 151.93 492.49 153.232 494.805 155.547C497.12 157.862 498.423 161.001 498.427 164.275V221.148C498.423 224.422 497.12 227.561 494.805 229.876C492.49 232.191 489.351 233.494 486.077 233.498ZM392.95 153.974C390.218 153.976 387.6 155.063 385.669 156.994C383.737 158.925 382.651 161.544 382.648 164.275V221.148C382.651 223.879 383.737 226.498 385.669 228.429C387.6 230.361 390.218 231.447 392.95 231.45H486.077C488.808 231.446 491.426 230.359 493.357 228.428C495.288 226.497 496.375 223.879 496.379 221.148V164.275C496.376 161.544 495.29 158.925 493.359 156.994C491.427 155.063 488.809 153.976 486.077 153.974H392.95Z" fill="black"/>
<path d="M444.754 182.026C446.663 182.026 448.21 180.479 448.21 178.57C448.21 176.662 446.663 175.114 444.754 175.114C442.845 175.114 441.298 176.662 441.298 178.57C441.298 180.479 442.845 182.026 444.754 182.026Z" fill="#31326F"/>
<path d="M456.724 182.026C458.633 182.026 460.18 180.479 460.18 178.57C460.18 176.662 458.633 175.114 456.724 175.114C454.816 175.114 453.268 176.662 453.268 178.57C453.268 180.479 454.816 182.026 456.724 182.026Z" fill="#31326F"/>
<path d="M468.7 182.026C470.609 182.026 472.156 180.479 472.156 178.57C472.156 176.662 470.609 175.114 468.7 175.114C466.791 175.114 465.244 176.662 465.244 178.57C465.244 180.479 466.791 182.026 468.7 182.026Z" fill="#31326F"/>
<path d="M480.676 182.026C482.585 182.026 484.132 180.479 484.132 178.57C484.132 176.662 482.585 175.114 480.676 175.114C478.767 175.114 477.22 176.662 477.22 178.57C477.22 180.479 478.767 182.026 480.676 182.026Z" fill="#31326F"/>
<path d="M411.351 195.451C415.058 195.451 418.063 192.446 418.063 188.739C418.063 185.031 415.058 182.026 411.351 182.026C407.644 182.026 404.639 185.031 404.639 188.739C404.639 192.446 407.644 195.451 411.351 195.451Z" fill="#6DC8C2"/>
<path d="M410.757 198.881C408.52 198.866 406.316 199.419 404.352 200.488C402.387 201.558 400.726 203.108 399.524 204.995C402.754 207.55 406.723 208.994 410.84 209.109C414.957 209.224 419.001 208.006 422.369 205.635C421.217 203.571 419.531 201.856 417.488 200.668C415.445 199.48 413.12 198.863 410.757 198.881Z" fill="#6DC8C2"/>
<path d="M484.132 192.512H440.612C440.34 192.512 440.08 192.404 439.888 192.212C439.696 192.02 439.588 191.76 439.588 191.488C439.588 191.216 439.696 190.956 439.888 190.764C440.08 190.572 440.34 190.464 440.612 190.464H484.132C484.403 190.464 484.664 190.572 484.856 190.764C485.048 190.956 485.156 191.216 485.156 191.488C485.156 191.76 485.048 192.02 484.856 192.212C484.664 192.404 484.403 192.512 484.132 192.512Z" fill="black"/>
<path d="M484.132 200.55H440.612C440.34 200.55 440.08 200.443 439.888 200.251C439.696 200.058 439.588 199.798 439.588 199.526C439.588 199.255 439.696 198.994 439.888 198.802C440.08 198.61 440.34 198.502 440.612 198.502H484.132C484.403 198.502 484.664 198.61 484.856 198.802C485.048 198.994 485.156 199.255 485.156 199.526C485.156 199.798 485.048 200.058 484.856 200.251C484.664 200.443 484.403 200.55 484.132 200.55Z" fill="black"/>
<path d="M467.968 208.599H440.632C440.361 208.599 440.1 208.491 439.908 208.299C439.716 208.107 439.608 207.847 439.608 207.575C439.608 207.303 439.716 207.043 439.908 206.851C440.1 206.659 440.361 206.551 440.632 206.551H467.968C468.24 206.551 468.5 206.659 468.692 206.851C468.884 207.043 468.992 207.303 468.992 207.575C468.992 207.847 468.884 208.107 468.692 208.299C468.5 208.491 468.24 208.599 467.968 208.599Z" fill="black"/>
<path d="M410.947 209.592C407.375 209.592 403.884 208.533 400.914 206.549C397.944 204.565 395.63 201.744 394.263 198.445C392.896 195.145 392.539 191.514 393.235 188.011C393.932 184.508 395.652 181.29 398.177 178.765C400.703 176.239 403.921 174.52 407.424 173.823C410.927 173.126 414.557 173.484 417.857 174.85C421.157 176.217 423.977 178.532 425.961 181.501C427.946 184.471 429.005 187.962 429.005 191.534C428.999 196.322 427.095 200.912 423.71 204.297C420.324 207.683 415.734 209.587 410.947 209.592ZM410.947 175.529C407.78 175.529 404.684 176.468 402.051 178.228C399.418 179.987 397.366 182.488 396.155 185.414C394.943 188.339 394.626 191.559 395.244 194.665C395.862 197.77 397.388 200.623 399.627 202.862C401.867 205.101 404.72 206.625 407.826 207.242C410.932 207.86 414.152 207.542 417.077 206.329C420.002 205.117 422.502 203.064 424.261 200.43C426.02 197.797 426.958 194.701 426.957 191.534C426.951 187.29 425.263 183.221 422.261 180.221C419.26 177.22 415.191 175.533 410.947 175.529Z" fill="black"/>
<path d="M432.502 264.074H398.72C394.433 264.074 390.958 267.549 390.958 271.836V305.618C390.958 309.905 394.433 313.38 398.72 313.38H432.502C436.789 313.38 440.264 309.905 440.264 305.618V271.836C440.264 267.549 436.789 264.074 432.502 264.074Z" fill="white"/>
<path d="M432.502 314.404H398.71C396.38 314.403 394.145 313.477 392.497 311.829C390.849 310.182 389.921 307.948 389.919 305.618V271.826C389.921 269.496 390.849 267.262 392.497 265.615C394.145 263.967 396.38 263.041 398.71 263.04H432.502C434.832 263.041 437.066 263.967 438.715 265.615C440.363 267.262 441.29 269.496 441.293 271.826V305.618C441.29 307.948 440.363 310.182 438.715 311.829C437.066 313.477 434.832 314.403 432.502 314.404ZM398.71 265.098C396.923 265.1 395.209 265.81 393.945 267.073C392.681 268.336 391.969 270.049 391.967 271.836V305.628C391.969 307.415 392.681 309.128 393.945 310.391C395.209 311.655 396.923 312.365 398.71 312.366H432.502C434.289 312.365 436.002 311.655 437.266 310.391C438.531 309.128 439.242 307.415 439.245 305.628V271.836C439.242 270.049 438.531 268.336 437.266 267.073C436.002 265.81 434.289 265.1 432.502 265.098H398.71Z" fill="black"/>
<path d="M407.726 300.396V288.809C407.722 288.601 407.774 288.395 407.878 288.215C407.982 288.034 408.133 287.886 408.315 287.785C409.933 286.879 414.382 283.863 414.899 277.755C415.089 275.548 416.056 274.509 417.075 274.258C418.253 273.971 419.466 275.2 419.635 275.364C422.405 278.252 419.512 284.872 419.246 285.466L422.907 285.368C423.623 285.35 424.337 285.473 425.006 285.73C425.674 285.988 426.286 286.375 426.805 286.869C427.325 287.363 427.741 287.955 428.032 288.61C428.322 289.265 428.481 289.971 428.498 290.688L428.626 295.931C428.644 296.657 428.516 297.38 428.25 298.057C427.984 298.733 427.586 299.349 427.078 299.869C426.571 300.389 425.964 300.803 425.294 301.085C424.624 301.367 423.905 301.512 423.178 301.512H408.873C408.574 301.512 408.287 301.395 408.073 301.187C407.858 300.978 407.734 300.694 407.726 300.396Z" fill="#6DC8C2"/>
<path d="M407.854 286.305H404.434C403.738 286.305 403.174 286.869 403.174 287.565V301.286C403.174 301.982 403.738 302.546 404.434 302.546H407.854C408.55 302.546 409.114 301.982 409.114 301.286V287.565C409.114 286.869 408.55 286.305 407.854 286.305Z" fill="#31326F"/>
<path d="M119.224 133.279C126.008 133.279 131.507 127.78 131.507 120.996C131.507 114.212 126.008 108.713 119.224 108.713C112.441 108.713 106.941 114.212 106.941 120.996C106.941 127.78 112.441 133.279 119.224 133.279Z" fill="#FFC1EB"/>
<path d="M119.909 156.611C126.092 144.869 124.192 131.71 115.665 127.22C107.138 122.73 95.2136 128.609 89.0306 140.351C82.8476 152.093 84.7477 165.252 93.2746 169.742C101.801 174.232 113.726 168.353 119.909 156.611Z" fill="#FFC1EB"/>
<path d="M117.155 200.095C119.665 182.347 110.006 166.305 95.5801 164.265C81.1547 162.225 67.426 174.959 64.9161 192.708C62.4062 210.456 72.0657 226.498 86.4911 228.538C100.917 230.578 114.645 217.843 117.155 200.095Z" fill="#FFC1EB"/>
<path d="M25.9533 172.605C32.2252 172.605 37.3095 167.521 37.3095 161.249C37.3095 154.977 32.2252 149.893 25.9533 149.893C19.6815 149.893 14.5972 154.977 14.5972 161.249C14.5972 167.521 19.6815 172.605 25.9533 172.605Z" fill="#FFC1EB"/>
<path d="M38.1587 207.459C46.713 205.455 51.5354 194.812 48.93 183.687C46.3246 172.561 37.2779 165.166 28.7237 167.169C20.1694 169.172 15.347 179.815 17.9524 190.941C20.5578 202.067 29.6045 209.462 38.1587 207.459Z" fill="#FFC1EB"/>
<path d="M48.8632 257.547C61.2835 255.408 69.2185 241.283 66.5866 225.998C63.9546 210.713 51.7524 200.056 39.3321 202.195C26.9119 204.333 18.9769 218.458 21.6088 233.743C24.2407 249.028 36.4429 259.685 48.8632 257.547Z" fill="#FFC1EB"/>
<path d="M63.6007 308.152C63.3499 308.154 63.1071 308.064 62.9183 307.899C62.7296 307.734 62.608 307.505 62.5767 307.256C56.5299 259.287 39.8694 217.6 39.7005 217.206C39.6454 217.08 39.6161 216.945 39.6143 216.808C39.6126 216.67 39.6384 216.534 39.6903 216.407C39.7422 216.28 39.819 216.165 39.9163 216.068C40.0136 215.972 40.1293 215.895 40.2566 215.844C40.3839 215.793 40.5202 215.768 40.6574 215.771C40.7945 215.773 40.9298 215.803 41.0551 215.859C41.1804 215.915 41.2932 215.995 41.3868 216.096C41.4804 216.196 41.5529 216.314 41.6 216.443C41.769 216.858 58.5267 258.76 64.64 307C64.6572 307.134 64.6478 307.27 64.6123 307.4C64.5767 307.531 64.5158 307.652 64.433 307.759C64.3503 307.866 64.2472 307.955 64.1298 308.021C64.0125 308.088 63.8831 308.131 63.7491 308.147L63.6007 308.152Z" fill="black"/>
<path d="M75.9706 308.68C75.699 308.68 75.4386 308.572 75.2465 308.38C75.0545 308.188 74.9466 307.927 74.9466 307.656C74.8186 259.528 81.6026 220.938 87.3114 197.018C93.5066 171.075 99.84 156.298 99.8912 156.16C100.002 155.915 100.204 155.722 100.455 155.625C100.706 155.528 100.985 155.533 101.232 155.64C101.479 155.747 101.674 155.947 101.775 156.197C101.876 156.446 101.874 156.726 101.77 156.974C101.709 157.117 95.442 171.771 89.2877 197.565C83.6096 221.363 76.8666 259.789 76.9997 307.645C76.9997 307.917 76.8918 308.177 76.6998 308.37C76.5078 308.562 76.2473 308.669 75.9757 308.669L75.9706 308.68Z" fill="black"/>
<path d="M81.8535 307.656H56.0282C48.2322 307.656 41.9124 313.976 41.9124 321.772V419.359C41.9124 427.155 48.2322 433.475 56.0282 433.475H81.8535C89.6494 433.475 95.9693 427.155 95.9693 419.359V321.772C95.9693 313.976 89.6494 307.656 81.8535 307.656Z" fill="#6DC8C2"/>
<path d="M44.5439 426.752C44.3435 426.752 44.1474 426.694 43.9799 426.584C43.8125 426.473 43.681 426.317 43.6019 426.132C43.4926 425.886 43.4851 425.606 43.581 425.354C43.6769 425.102 43.8684 424.898 44.1139 424.786C52.1256 421.316 60.7465 419.471 69.4766 419.359C78.2067 419.246 86.8723 420.868 94.9708 424.131C95.2144 424.237 95.4069 424.435 95.5075 424.681C95.6081 424.927 95.6089 425.203 95.5097 425.45C95.4106 425.697 95.2193 425.895 94.9763 426.004C94.7333 426.112 94.4578 426.121 94.2079 426.03C86.3596 422.869 77.9619 421.298 69.5017 421.407C61.0415 421.516 52.6871 423.303 44.9228 426.665C44.8032 426.718 44.6746 426.747 44.5439 426.752Z" fill="black"/>
<path d="M88.4736 328.53H50.176C49.9044 328.53 49.6439 328.422 49.4519 328.23C49.2599 328.038 49.152 327.778 49.152 327.506C49.152 327.234 49.2599 326.974 49.4519 326.782C49.6439 326.59 49.9044 326.482 50.176 326.482H88.4736C88.7452 326.482 89.0056 326.59 89.1977 326.782C89.3897 326.974 89.4976 327.234 89.4976 327.506C89.4976 327.778 89.3897 328.038 89.1977 328.23C89.0056 328.422 88.7452 328.53 88.4736 328.53Z" fill="black"/>
<path d="M78.6483 421.402C78.3767 421.402 78.1162 421.294 77.9242 421.102C77.7322 420.91 77.6243 420.649 77.6243 420.378V327.808C77.6243 327.536 77.7322 327.276 77.9242 327.084C78.1162 326.892 78.3767 326.784 78.6483 326.784C78.9198 326.784 79.1803 326.892 79.3723 327.084C79.5644 327.276 79.6723 327.536 79.6723 327.808V420.378C79.6723 420.649 79.5644 420.91 79.3723 421.102C79.1803 421.294 78.9198 421.402 78.6483 421.402Z" fill="black"/>
<path d="M59.9757 421.402C59.7041 421.402 59.4436 421.294 59.2516 421.102C59.0595 420.91 58.9517 420.649 58.9517 420.378V327.808C58.9517 327.536 59.0595 327.276 59.2516 327.084C59.4436 326.892 59.7041 326.784 59.9757 326.784C60.2472 326.784 60.5077 326.892 60.6997 327.084C60.8918 327.276 60.9997 327.536 60.9997 327.808V420.378C60.9997 420.649 60.8918 420.91 60.6997 421.102C60.5077 421.294 60.2472 421.402 59.9757 421.402Z" fill="black"/>
</svg>
