<svg width="671" height="726" viewBox="0 0 671 726" fill="none" xmlns="http://www.w3.org/2000/svg">
<path d="M547.297 451.281C561.07 505.857 514.177 556.724 458.466 547.638L425.407 542.247C418.334 541.093 411.076 541.845 404.384 544.426V544.426C365.417 559.453 332.217 512.708 359.34 481.004L426.636 402.338C461.712 361.336 528.507 376.822 541.677 429.011L547.297 451.281Z" fill="#31326F"/>
<path d="M121.935 276.174C106.642 221.994 152.103 169.834 208.047 177.374L241.232 181.847C248.335 182.804 255.569 181.851 262.186 179.086V179.086C300.721 162.984 335.208 208.797 308.977 241.245L243.908 321.738C209.989 363.699 142.795 350.075 128.173 298.273L121.935 276.174Z" fill="#31326F"/>
<g clip-path="url(#clip0_38_93)">
<path opacity="0.27" d="M352.778 244.407C352.778 244.407 383.602 240.682 395.287 269.959C406.972 299.237 422.645 305.029 440.858 310.62C459.072 316.211 486.581 348.869 474.24 408.403C461.898 467.937 471.203 467.543 471.203 467.543L224.308 482.425C224.308 482.425 181.63 454.528 205.236 370.522C215.399 334.356 216.063 312.344 213.514 299.002C208.517 272.839 219.075 246.014 241.335 231.208C266.363 214.602 303.294 208.032 352.778 244.407Z" fill="#8ECFEF"/>
<path d="M357.363 367.425C357.363 367.425 356.824 372.714 356.824 378.146V462.095H366.751L372.404 394.693L378.958 462.095H388.481C388.481 462.095 389.861 385.805 388.481 378.891C387.101 371.978 386.58 365.768 386.58 365.768L357.363 367.425Z" fill="#8ECFEF"/>
<path d="M357.615 367.207C357.112 370.675 356.848 374.174 356.824 377.678V461.626H366.751L372.404 394.225L378.958 461.626H388.481C388.481 461.626 389.861 385.336 388.481 378.423C387.101 371.509 386.58 365.299 386.58 365.299L357.615 367.207Z" fill="url(#paint0_linear_38_93)"/>
<path d="M425.791 361.005L416.537 381.159L395.783 371.434L390.862 379.418L413.004 393.831C413.004 393.831 425.076 400.242 427.583 384.398C430.09 368.554 425.791 361.005 425.791 361.005Z" fill="#8ECFEF"/>
<path d="M425.791 361.005L416.537 381.159L395.783 371.434L390.862 379.418L413.004 393.831C413.004 393.831 425.076 400.242 427.583 384.398C430.09 368.554 425.791 361.005 425.791 361.005Z" fill="url(#paint1_linear_38_93)"/>
<path d="M404.936 424.205C408.209 425.292 411.388 426.641 414.443 428.239C410.231 438.952 405.797 449.579 401.142 460.119C401.103 460.295 401.025 460.459 400.914 460.6C400.804 460.741 400.662 460.856 400.501 460.937C400.34 461.017 400.163 461.06 399.983 461.064C399.802 461.067 399.624 461.03 399.46 460.956C397.6 460.672 395.379 460.069 394.883 458.261C394.749 457.618 394.749 456.954 394.883 456.311C395.354 453.122 404.356 424.013 404.936 424.205Z" fill="url(#paint2_linear_38_93)"/>
<path d="M412.962 427.745C416.41 427.887 419.842 428.299 423.225 428.975C422.188 440.436 420.918 451.875 419.415 463.291C419.405 463.555 419.327 463.812 419.187 464.036C418.877 464.347 418.458 464.524 418.018 464.53C416.15 464.764 413.812 464.815 412.869 463.216C412.559 462.633 412.376 461.991 412.331 461.333C411.894 458.177 412.348 427.728 412.962 427.745Z" fill="url(#paint3_linear_38_93)"/>
<path d="M409.748 389.571C408.276 389.328 400.293 387.897 399.005 388.625C397.272 389.646 394.631 398.175 396.154 398.392C402.023 399.061 407.95 399.061 413.82 398.392C414.19 398.351 414.661 398.2 414.661 397.823C414.639 397.621 414.543 397.433 414.392 397.296C410.346 392.592 416.235 390.642 409.748 389.571Z" fill="url(#paint4_linear_38_93)"/>
<path opacity="0.27" d="M211.361 482.818C195.864 484.977 180.234 487.17 165.419 492.125C174.034 494.812 183.287 494.192 192.339 493.682C295.504 487.764 400.25 497.867 501.429 476.942C504.525 476.306 508.294 474.925 508.563 471.787C508.933 467.602 503.061 466.196 498.821 466.38L421.341 469.669L426.195 466.321C398.08 466.187 369.967 466.597 341.858 467.551C332.36 467.87 324.46 470.724 315.375 472.297C304.48 474.18 292.459 473.285 281.388 474.239C257.925 476.315 234.638 479.562 211.361 482.818Z" fill="#8ECFEF"/>
<path d="M246.98 432.223H222.112C219.218 432.223 216.871 434.558 216.871 437.437V439.103C216.871 441.983 219.218 444.317 222.112 444.317H246.98C249.875 444.317 252.221 441.983 252.221 439.103V437.437C252.221 434.558 249.875 432.223 246.98 432.223Z" fill="#8ECFEF"/>
<path d="M236.918 444.326H230.76V478.767H236.918V444.326Z" fill="#8ECFEF"/>
<path d="M236.918 444.326H230.76V478.767H236.918V444.326Z" fill="url(#paint5_linear_38_93)"/>
<path d="M240.679 477.126H226.991C225.542 477.126 224.367 478.296 224.367 479.738C224.367 481.18 225.542 482.349 226.991 482.349H240.679C242.128 482.349 243.304 481.18 243.304 479.738C243.304 478.296 242.128 477.126 240.679 477.126Z" fill="#8ECFEF"/>
<path d="M240.679 477.126H226.991C225.542 477.126 224.367 478.296 224.367 479.738C224.367 481.18 225.542 482.349 226.991 482.349H240.679C242.128 482.349 243.304 481.18 243.304 479.738C243.304 478.296 242.128 477.126 240.679 477.126Z" fill="url(#paint6_linear_38_93)"/>
<path d="M459.315 422.749H434.448C431.553 422.749 429.207 425.083 429.207 427.963V429.628C429.207 432.508 431.553 434.843 434.448 434.843H459.315C462.21 434.843 464.557 432.508 464.557 429.628V427.963C464.557 425.083 462.21 422.749 459.315 422.749Z" fill="#8ECFEF"/>
<path d="M449.254 434.851H443.096V469.292H449.254V434.851Z" fill="#8ECFEF"/>
<path d="M449.254 434.851H443.096V469.292H449.254V434.851Z" fill="url(#paint7_linear_38_93)"/>
<path d="M453.014 467.652H439.327C437.877 467.652 436.702 468.821 436.702 470.263C436.702 471.705 437.877 472.875 439.327 472.875H453.014C454.464 472.875 455.639 471.705 455.639 470.263C455.639 468.821 454.464 467.652 453.014 467.652Z" fill="#8ECFEF"/>
<path d="M453.014 467.652H439.327C437.877 467.652 436.702 468.821 436.702 470.263C436.702 471.705 437.877 472.875 439.327 472.875H453.014C454.464 472.875 455.639 471.705 455.639 470.263C455.639 468.821 454.464 467.652 453.014 467.652Z" fill="url(#paint8_linear_38_93)"/>
<path d="M359.281 467.878C359.433 468.148 359.639 468.384 359.886 468.573C360.306 468.807 360.798 468.875 361.266 468.765C362.545 468.548 363.554 468.715 364.294 467.66C365.035 466.606 365.548 464.313 365.868 463.099C366.414 460.948 365.531 460.01 363.462 459.625C362.082 459.374 360.576 459.174 359.314 459.935C359.314 459.935 357.909 465.735 359.281 467.878Z" fill="url(#paint9_linear_38_93)"/>
<path d="M380.472 466.413C380.427 466.569 380.422 466.733 380.458 466.891C380.495 467.048 380.571 467.194 380.679 467.315C380.788 467.435 380.925 467.526 381.079 467.58C381.232 467.633 381.397 467.646 381.557 467.618C382.962 467.669 384.376 467.677 385.764 467.618C385.908 467.623 386.051 467.598 386.184 467.543C386.529 467.384 386.571 466.932 386.571 466.555V459.86C386.583 459.714 386.56 459.568 386.504 459.433C386.327 459.115 385.873 459.115 385.503 459.157C384.249 459.324 380.893 459.157 380.405 460.337C380.11 461.056 380.405 462.58 380.405 463.358C380.405 464.396 380.396 465.409 380.472 466.413Z" fill="url(#paint10_linear_38_93)"/>
<path d="M357.783 465.727C357.143 465.941 356.517 466.192 355.907 466.48L349.454 469.401C348.811 469.62 348.253 470.032 347.856 470.581C347.692 470.949 347.627 471.352 347.665 471.752C347.703 472.152 347.844 472.536 348.075 472.866C348.82 473.996 349.959 474.812 351.271 475.159C352.572 475.497 353.916 475.643 355.259 475.595C358.052 475.605 360.842 475.434 363.613 475.084C364.013 475.074 364.401 474.943 364.723 474.707C364.935 474.488 365.091 474.221 365.178 473.929C365.908 471.927 366.164 469.785 365.926 467.668C365.893 467.113 365.726 466.573 365.438 466.095C364.757 465.107 363.049 465.367 361.998 465.317C360.579 465.205 359.153 465.344 357.783 465.727Z" fill="#8ECFEF"/>
<path d="M357.783 465.727C357.143 465.941 356.517 466.192 355.907 466.48L349.454 469.401C348.811 469.62 348.253 470.032 347.856 470.581C347.692 470.949 347.627 471.352 347.665 471.752C347.703 472.152 347.844 472.536 348.075 472.866C348.82 473.996 349.959 474.812 351.271 475.159C352.572 475.497 353.916 475.643 355.259 475.595C358.052 475.605 360.842 475.434 363.613 475.084C364.013 475.074 364.401 474.943 364.723 474.707C364.935 474.488 365.091 474.221 365.178 473.929C365.908 471.927 366.164 469.785 365.926 467.668C365.893 467.113 365.726 466.573 365.438 466.095C364.757 465.107 363.049 465.367 361.998 465.317C360.579 465.205 359.153 465.344 357.783 465.727Z" fill="url(#paint11_linear_38_93)"/>
<path d="M380.691 466.556C379.897 466.602 379.122 466.822 378.423 467.2C377.724 467.577 377.117 468.103 376.644 468.74C376.089 469.822 375.853 471.038 375.963 472.247C375.963 473.159 376.022 474.063 376.064 474.976C376.026 475.474 376.186 475.966 376.51 476.348C376.884 476.61 377.343 476.724 377.797 476.666C381.588 476.625 385.341 475.905 388.876 474.54C389.023 474.501 389.151 474.412 389.238 474.289C389.284 474.181 389.302 474.063 389.288 473.946C389.238 472.431 389.129 470.916 388.952 469.41C388.918 468.928 388.802 468.455 388.607 468.012C387.295 465.426 382.912 466.263 380.691 466.556Z" fill="#8ECFEF"/>
<path d="M380.691 466.556C379.897 466.602 379.122 466.822 378.423 467.2C377.724 467.577 377.117 468.103 376.644 468.74C376.089 469.822 375.853 471.038 375.963 472.247C375.963 473.159 376.022 474.063 376.064 474.976C376.026 475.474 376.186 475.966 376.51 476.348C376.884 476.61 377.343 476.724 377.797 476.666C381.588 476.625 385.341 475.905 388.876 474.54C389.023 474.501 389.151 474.412 389.238 474.289C389.284 474.181 389.302 474.063 389.288 473.946C389.238 472.431 389.129 470.916 388.952 469.41C388.918 468.928 388.802 468.455 388.607 468.012C387.295 465.426 382.912 466.263 380.691 466.556Z" fill="url(#paint12_linear_38_93)"/>
<path opacity="0.4" d="M355.47 209.145H183.111V338.398H355.47V209.145Z" fill="#8ECFEF"/>
<path d="M336.945 325.292C327.994 318.881 327.868 311.281 319.093 304.635C316.849 306.137 314.768 307.868 312.885 309.799C312.479 310.144 312.186 310.602 312.044 311.113C311.994 311.719 312.144 312.325 312.473 312.838C316.183 320.177 320.725 327.071 326.009 333.385C327.079 334.79 328.378 336.007 329.853 336.984C332.226 338.399 335.145 338.591 337.904 338.357C345.463 337.741 352.819 335.605 359.525 332.08C360.105 331.787 360.988 329.887 361.35 329.351C362.536 327.593 368.08 316.671 365.742 315.893C363.403 315.114 337.719 325.852 336.945 325.292Z" fill="#8ECFEF"/>
<path d="M318.235 305.255L319.127 304.635C319.176 305.667 319.068 306.699 318.807 307.699C318.412 308.536 317.344 311.616 312.077 311.574C312.06 311.574 311.379 310.159 318.235 305.255Z" fill="black"/>
<path opacity="0.4" d="M342.674 291.076H195.528C194.153 291.076 193.038 292.185 193.038 293.554C193.038 294.922 194.153 296.031 195.528 296.031H342.674C344.049 296.031 345.164 294.922 345.164 293.554C345.164 292.185 344.049 291.076 342.674 291.076Z" fill="#8ECFEF"/>
<path opacity="0.4" d="M342.674 300.509H195.528C194.153 300.509 193.038 301.618 193.038 302.986C193.038 304.354 194.153 305.464 195.528 305.464H342.674C344.049 305.464 345.164 304.354 345.164 302.986C345.164 301.618 344.049 300.509 342.674 300.509Z" fill="#8ECFEF"/>
<path d="M357.455 320.404C359.222 317.675 362.562 316.395 365.775 315.851C368.989 315.307 369.981 313.549 375.87 313.541C381.078 313.541 381.852 316.746 383.509 319.751C385.166 322.756 385.595 326.254 385.94 329.669C386.972 339.802 387.533 349.974 387.623 360.185C387.623 362.11 387.623 364.144 386.58 365.768C385.175 367.986 382.373 368.806 379.791 369.291C375.239 370.151 370.609 370.532 365.977 370.429C364.007 370.484 362.045 370.148 360.206 369.442C357.362 368.17 355.436 365.374 354.511 362.411C353.729 359.408 353.406 356.304 353.552 353.205C353.552 345.683 353.81 338.164 354.326 330.648C354.529 327.033 355.602 323.52 357.455 320.404Z" fill="#8ECFEF"/>
<path d="M357.455 320.404C359.222 317.675 362.562 316.395 365.775 315.851C368.989 315.307 369.981 313.549 375.87 313.541C381.078 313.541 381.852 316.746 383.509 319.751C385.166 322.756 385.595 326.254 385.94 329.669C386.972 339.802 387.533 349.974 387.623 360.185C387.623 362.11 387.623 364.144 386.58 365.768C385.175 367.986 382.373 368.806 379.791 369.291C375.239 370.151 370.609 370.532 365.977 370.429C364.007 370.484 362.045 370.148 360.206 369.442C357.362 368.17 355.436 365.374 354.511 362.411C353.729 359.408 353.406 356.304 353.552 353.205C353.552 345.683 353.81 338.164 354.326 330.648C354.529 327.033 355.602 323.52 357.455 320.404Z" fill="url(#paint13_linear_38_93)"/>
<path d="M267.986 464.112L265.875 472.841L259.548 471.971V463.643L267.986 464.112Z" fill="url(#paint14_linear_38_93)"/>
<path d="M259.549 471.971L256.697 478.767L268.937 482.366H278.284C278.284 482.366 277.291 477.545 273.817 477.185C270.342 476.825 265.875 472.866 265.875 472.866L259.549 471.971Z" fill="#8ECFEF"/>
<path d="M287.344 463.024L288.951 472.841L294.293 471.234V462.103L287.344 463.024Z" fill="url(#paint15_linear_38_93)"/>
<path d="M288.993 472.841V480.248L304.724 477.16L309.965 472.841C309.965 472.841 308.182 468.271 303.597 469.878C299.012 471.485 295.639 471.728 294.982 471.234C294.326 470.74 293.022 471.234 293.022 471.234L288.993 472.841Z" fill="#8ECFEF"/>
<path d="M259.549 471.971L256.697 478.767L268.937 482.366H278.284C278.284 482.366 277.291 477.545 273.817 477.185C270.342 476.825 265.875 472.866 265.875 472.866L259.549 471.971Z" fill="url(#paint16_linear_38_93)"/>
<path d="M288.993 472.841V480.248L304.724 477.16L309.965 472.841C309.965 472.841 308.182 468.271 303.597 469.878C299.012 471.485 295.639 471.728 294.982 471.234C294.326 470.74 293.022 471.234 293.022 471.234L288.993 472.841Z" fill="url(#paint17_linear_38_93)"/>
<path d="M258.648 357.289L273.438 385.554L293.628 389.479L294.192 395.832L272.529 398.393C272.529 398.393 269.77 399.556 264.764 393.212C261.854 389.529 257.815 382.097 257.815 382.097L258.648 357.289Z" fill="#8ECFEF"/>
<path d="M294.183 395.832L272.521 398.393C272.521 398.393 269.762 399.556 264.756 393.212C261.845 389.529 257.807 382.097 257.807 382.097L258.648 357.289L260.592 361.005L273.438 385.554L293.628 389.479L293.948 393.773L294.183 395.832Z" fill="url(#paint18_linear_38_93)"/>
<path d="M293.94 393.772H274.759C274.759 393.772 271.999 394.936 266.985 388.591C264.083 384.909 260.037 377.476 260.037 377.476L260.592 361.005L273.438 385.553L293.628 389.479L293.94 393.772Z" fill="url(#paint19_linear_38_93)"/>
<path d="M427.583 358.268C427.524 358.544 428.719 357.783 428.921 357.975C429.103 358.124 429.325 358.217 429.56 358.243L431.242 358.595C432.336 358.914 433.493 358.957 434.608 358.72C435.41 358.41 436.1 357.868 436.591 357.164C437.081 356.46 437.348 355.626 437.358 354.77C437.342 353.053 436.793 351.384 435.785 349.991C435.438 349.347 434.916 348.814 434.279 348.451C433.706 348.23 433.093 348.133 432.479 348.166C430.797 348.166 425.926 348.417 426.826 350.284C427.911 352.801 428.176 355.593 427.583 358.268Z" fill="url(#paint20_linear_38_93)"/>
<path opacity="0.4" d="M345.164 224.085H193.038V283.343H345.164V224.085Z" fill="#8ECFEF"/>
<path opacity="0.8" d="M338.097 238.523H297.767V240.624H338.097V238.523Z" fill="#8ECFEF"/>
<path opacity="0.8" d="M338.097 252.659H297.767V254.76H338.097V252.659Z" fill="#8ECFEF"/>
<path opacity="0.8" d="M338.097 256.183H297.767V258.283H338.097V256.183Z" fill="#8ECFEF"/>
<path opacity="0.8" d="M326.681 242.23H297.767V244.331H326.681V242.23Z" fill="#8ECFEF"/>
<path d="M207.92 235.317H204.698V269.884H207.92V235.317Z" fill="white"/>
<path d="M214.246 247.294H211.024V269.884H214.246V247.294Z" fill="white"/>
<path d="M220.455 244.331H217.233V269.884H220.455V244.331Z" fill="white"/>
<path d="M226.781 247.897H223.559V269.884H226.781V247.897Z" fill="white"/>
<g opacity="0.8">
<path opacity="0.8" d="M226.781 257.388C226.591 257.387 226.407 257.322 226.259 257.204L218.806 251.345L213.38 255.982L204.025 243.829C203.957 243.742 203.908 243.642 203.879 243.536C203.851 243.429 203.843 243.318 203.858 243.209C203.887 242.989 204.003 242.789 204.18 242.653C204.358 242.518 204.582 242.458 204.804 242.487C205.025 242.516 205.226 242.632 205.362 242.808L213.632 253.588L218.755 249.211L227.303 255.907C227.442 256.014 227.543 256.162 227.593 256.33C227.643 256.497 227.639 256.677 227.582 256.842C227.524 257.007 227.416 257.15 227.272 257.251C227.129 257.352 226.957 257.406 226.781 257.405V257.388Z" fill="#8ECFEF"/>
</g>
<path opacity="0.8" d="M290.44 254.25C290.44 258.319 289.227 262.297 286.954 265.68C284.682 269.063 281.452 271.7 277.673 273.257C273.894 274.814 269.736 275.221 265.724 274.426C261.713 273.632 258.028 271.672 255.137 268.794C252.245 265.916 250.276 262.249 249.479 258.258C248.682 254.267 249.093 250.13 250.659 246.371C252.226 242.612 254.878 239.399 258.279 237.14C261.681 234.88 265.68 233.675 269.77 233.677V254.25H290.44Z" fill="#8ECFEF"/>
<path opacity="0.8" d="M293.199 250.91H272.521V230.337C275.237 230.336 277.926 230.867 280.436 231.901C282.945 232.934 285.225 234.45 287.145 236.36C289.066 238.271 290.589 240.539 291.628 243.036C292.666 245.532 293.2 248.208 293.199 250.91Z" fill="#8ECFEF"/>
<path opacity="0.4" d="M234.571 314.662H167.043V374.991H234.571V314.662Z" fill="#8ECFEF"/>
<path d="M423.587 398.401H272.521V408.327H423.587V398.401Z" fill="#8ECFEF"/>
<path d="M423.587 398.401H272.521V408.327H423.587V398.401Z" fill="url(#paint21_linear_38_93)"/>
<path d="M423.587 404.695H272.521V408.327H423.587V404.695Z" fill="url(#paint22_linear_38_93)"/>
<path d="M380.279 314.821C386.555 320.906 395.918 328.689 399.964 336.431C400.873 338.172 401.647 340.089 401.42 342.031C401.016 345.186 398.055 347.32 395.228 348.819C390.807 351.041 386.243 352.971 381.566 354.594C381.156 354.802 380.685 354.858 380.237 354.753C379.86 354.549 379.563 354.225 379.395 353.832C378.028 351.409 376.796 348.914 375.702 346.358C375.542 346.073 375.48 345.744 375.525 345.42C375.667 345.083 375.932 344.811 376.266 344.659C379.942 342.508 384.678 341.922 387.413 338.633C385.049 337.575 382.928 336.048 381.179 334.145C379.43 332.242 378.09 330.004 377.242 327.568C375.298 321.876 375.332 317.072 380.279 314.821Z" fill="#8ECFEF"/>
<path d="M380.279 314.821C386.555 320.906 395.918 328.689 399.964 336.431C400.873 338.172 401.647 340.089 401.42 342.031C401.016 345.186 398.055 347.32 395.228 348.819C390.807 351.041 386.243 352.971 381.566 354.594C381.156 354.802 380.685 354.858 380.237 354.753C379.86 354.549 379.563 354.225 379.395 353.832C378.028 351.409 376.796 348.914 375.702 346.358C375.542 346.073 375.48 345.744 375.525 345.42C375.667 345.083 375.932 344.811 376.266 344.659C379.942 342.508 384.678 341.922 387.413 338.633C385.049 337.575 382.928 336.048 381.179 334.145C379.43 332.242 378.09 330.004 377.242 327.568C375.298 321.876 375.332 317.072 380.279 314.821Z" fill="url(#paint23_linear_38_93)"/>
<path d="M375.517 345.421C375.517 345.421 378.268 345.998 379.16 348.175C380.052 350.351 380.237 354.753 380.237 354.753C380.237 354.753 378.647 354.879 378.31 353.531C377.974 352.184 374.255 347.672 375.517 345.421Z" fill="black"/>
<path d="M317.932 309.289C317.705 309.628 317.407 309.914 317.058 310.129C316.71 310.344 316.32 310.483 315.913 310.536C314.66 310.628 313.625 309.64 312.767 308.728C310.891 306.719 308.956 304.643 307.98 302.074C307.638 301.128 307.371 300.157 307.181 299.17C306.752 297.586 306.612 295.939 306.769 294.307C307.004 292.691 308.914 289.193 311.505 289.193C311.657 289.193 313.634 294.164 313.793 294.399L315.669 296.993C316.432 296.32 317.05 295.5 317.487 294.583C317.991 295.283 318.21 296.147 318.101 297.002C318.042 297.839 317.789 298.676 317.646 299.513C317.347 301.252 317.474 303.038 318.017 304.719C318.235 305.413 318.9 306.275 318.934 306.995C318.816 307.836 318.469 308.629 317.932 309.289Z" fill="url(#paint24_linear_38_93)"/>
<path d="M372.531 346.5C372.253 346.443 371.967 346.443 371.689 346.5C371.552 346.534 371.425 346.601 371.32 346.696C371.216 346.791 371.137 346.911 371.092 347.045C370.966 347.505 371.378 347.882 371.706 348.258C371.78 348.321 371.83 348.406 371.849 348.501C371.849 348.702 371.622 348.811 371.428 348.861L366.768 350.041C366.602 350.065 366.446 350.138 366.322 350.25C366.245 350.345 366.193 350.457 366.171 350.577C366.046 351.029 366.026 351.504 366.112 351.966C366.154 352.058 366.175 352.158 366.175 352.259C366.175 352.36 366.154 352.46 366.112 352.552C366.044 352.652 365.918 352.694 365.834 352.778C365.714 352.924 365.641 353.102 365.623 353.29C365.605 353.478 365.643 353.666 365.733 353.832C366.062 354.684 366.646 355.414 367.406 355.924C368.166 356.435 369.065 356.701 369.981 356.686C370.959 356.584 371.92 356.359 372.842 356.017C373.521 355.82 374.212 355.669 374.911 355.565C375.946 355.406 377.107 355.297 377.814 354.519C378.52 353.74 380.068 352.61 380.06 352.142C380.06 351.414 379.37 347.84 378.781 347.404C377.67 347.436 376.558 347.346 375.467 347.137C374.517 346.81 373.531 346.596 372.531 346.5Z" fill="url(#paint25_linear_38_93)"/>
<path d="M243.632 349.003C241.385 351.698 235.278 359.047 234.521 362.436C232.036 373.596 229.56 384.756 227.092 395.915C226.404 398.512 226.034 401.181 225.99 403.866C226.192 412.588 234.31 420.355 243.076 420.212C246.026 420.204 248.902 419.292 251.312 417.601C254.366 415.366 256.209 411.868 257.672 408.394C259.691 403.607 256.831 400.192 258.101 395.17C260.238 386.692 263.107 371.049 260.625 362.654C254.98 343.345 243.632 349.003 243.632 349.003Z" fill="#8ECFEF"/>
<path d="M243.632 349.003C241.385 351.698 235.278 359.047 234.521 362.436C232.036 373.596 229.56 384.756 227.092 395.915C226.404 398.512 226.034 401.182 225.99 403.867C226.192 412.588 234.31 420.355 243.076 420.213C246.026 420.204 248.902 419.292 251.312 417.601C254.366 415.366 256.209 411.868 257.672 408.395C259.691 403.607 256.831 400.192 258.101 395.17C260.238 386.692 263.284 373.25 261.13 364.772C258.976 356.293 252.717 338.064 243.632 349.003Z" fill="url(#paint26_linear_38_93)"/>
<path d="M256.503 344.048C255.881 346.902 254.509 350.877 255.569 354.661C255.998 356.184 246.568 352.267 245.306 350.141C243.783 347.588 248.469 347.337 245.146 341.185C243.733 338.566 253.121 344.09 256.083 344.533" fill="url(#paint27_linear_38_93)"/>
<path d="M300.114 389.68C301.143 389.553 302.187 389.685 303.151 390.065C304.046 390.595 304.754 391.387 305.179 392.333C305.983 393.744 306.28 395.385 306.02 396.986C305.98 397.284 305.848 397.562 305.641 397.781C305.28 398.036 304.833 398.138 304.396 398.066L299.542 397.915C298.35 397.99 297.16 397.729 296.11 397.162C295.445 396.719 294.924 396.015 294.141 395.831C293.628 395.752 293.104 395.778 292.602 395.907C291.593 396.066 290.565 396.066 289.556 395.907C289.294 395.891 289.045 395.788 288.85 395.614C288.712 395.426 288.633 395.202 288.622 394.969C288.328 392.776 288.488 390.701 290.776 390.106C293.611 389.37 297.22 389.805 300.114 389.68Z" fill="url(#paint28_linear_38_93)"/>
<path d="M237.936 356.259C237.936 356.259 224.425 376.732 224.796 382.289C225.166 387.847 253.146 402.084 253.146 402.084L257.411 395.656L242.462 379.511L249.958 364.135C249.958 364.135 250.421 350.124 237.936 356.259Z" fill="#8ECFEF"/>
<path d="M254.82 399.916L253.138 402.084C253.138 402.084 225.166 387.855 224.787 382.289C224.409 376.723 237.928 356.259 237.928 356.259C241.427 354.544 242.975 354.82 244.834 355.423C243.993 356.829 232.417 375.568 232.771 380.908C233.04 384.926 246.929 394.685 254.82 399.916Z" fill="url(#paint29_linear_38_93)"/>
<path d="M254.577 395.965C253.809 396.265 253.165 396.812 252.747 397.519C252.329 398.226 252.162 399.053 252.272 399.866C252.574 400.914 253.18 401.851 254.013 402.561C255.074 403.609 256.231 404.557 257.471 405.39C258.043 405.813 258.691 406.126 259.38 406.31C261.82 406.863 264.007 404.636 266.489 404.343C266.942 404.334 267.392 404.263 267.827 404.134C268.252 403.915 268.589 403.556 268.779 403.118C268.969 402.68 269.001 402.191 268.87 401.732C268.567 400.819 267.938 400.048 267.103 399.564C266.138 398.936 265.036 398.546 263.889 398.426C262.931 398.427 261.976 398.312 261.046 398.083C259.927 397.681 259.49 396.601 258.413 396.133C257.206 395.576 255.828 395.516 254.577 395.965Z" fill="url(#paint30_linear_38_93)"/>
<path d="M226.781 408.328C226.781 408.328 221.061 422.941 224.787 428.8C228.514 434.659 257.807 439.865 257.807 439.865L257.344 466.355L269.551 467.46L273.009 435.337C273.009 435.337 273.345 431.847 268.172 429.377C268.172 429.377 276.954 431.972 278.94 438.392C280.925 444.811 286.292 466.363 286.292 466.363L295.883 463.635C295.883 463.635 294.284 429.135 288.597 422.472C282.911 415.81 257.715 408.411 257.715 408.411L226.781 408.328Z" fill="#8ECFEF"/>
<path d="M295.841 463.635L286.25 466.363L286.158 465.978C286.158 465.853 286.082 465.702 286.04 465.518C286.048 465.488 286.048 465.456 286.04 465.426C285.99 465.217 285.931 464.966 285.855 464.681C285.779 464.396 285.687 464.028 285.594 463.652C284.088 457.659 280.471 443.405 278.923 438.392C277.24 432.868 270.468 430.173 268.626 429.537H268.533L268.256 429.444H268.18C273.329 431.914 272.992 435.395 272.992 435.395L269.577 467.527L257.37 466.422L257.832 439.932C257.832 439.932 228.523 434.659 224.788 428.8C221.052 422.941 226.781 408.319 226.781 408.319L246.972 408.37H257.715C258.48 408.596 282.953 415.852 288.581 422.422C294.209 428.993 295.841 463.635 295.841 463.635Z" fill="url(#paint31_linear_38_93)"/>
<path d="M417.471 336.867C417.055 337.209 416.736 337.654 416.546 338.156C416.344 339.035 417.177 339.771 417.681 340.533C418.96 342.475 418.152 345.203 419.221 347.271C420.289 349.338 422.88 350.108 425.185 350.618C426.327 350.946 427.514 351.093 428.702 351.054C432.319 350.736 434.65 347.187 436.273 343.956C437.392 341.738 438.469 339.428 438.629 336.951C438.806 334.247 437.88 331.594 436.837 329.092C436.367 327.687 435.548 326.423 434.456 325.417C433.064 324.505 431.42 324.048 429.753 324.112C426.977 324.011 423.966 324.404 421.963 326.313C418.968 329.2 420.104 334.038 417.471 336.867Z" fill="url(#paint32_linear_38_93)"/>
<path d="M428.39 357.231C425.025 359.993 424.924 364.353 425.025 368.245C425.311 378.808 425.673 389.663 430.746 399.38C432.361 402.486 434.649 405.591 438.317 407.114C440.561 407.944 442.94 408.353 445.334 408.319C450.549 408.411 456.11 407.34 459.635 404.21C464.472 399.966 464.237 393.329 462.807 387.68C460.653 378.891 445.376 343.211 428.39 357.231Z" fill="#8ECFEF"/>
<path d="M428.39 357.231C425.025 359.993 424.924 364.353 425.025 368.245C425.311 378.808 425.673 389.663 430.746 399.38C432.361 402.486 434.649 405.591 438.317 407.114C440.561 407.944 442.94 408.353 445.334 408.319C450.549 408.411 456.11 407.34 459.635 404.21C464.472 399.966 464.237 393.329 462.807 387.68C460.653 378.891 445.376 343.211 428.39 357.231Z" fill="url(#paint33_linear_38_93)"/>
<path d="M431.528 353.531L426.397 356.276L426.052 360.344L428.92 357.975L432.05 359.884L438.662 354.242L437.686 351.598L431.528 353.531Z" fill="#8ECFEF"/>
<path d="M431.528 353.531L426.397 356.276L426.052 360.344L428.92 357.975L432.05 359.884L438.662 354.242L437.686 351.598L431.528 353.531Z" fill="url(#paint34_linear_38_93)"/>
<path d="M430.098 368.538C430.107 366.145 430.951 363.83 432.485 361.987C434.02 360.145 436.15 358.889 438.511 358.436C441.296 357.95 444.122 358.26 445.88 360.587C448.926 364.621 444.063 380.063 440.665 389.487C439.832 391.783 438.363 393.798 436.428 395.299C434.492 396.799 432.17 397.724 429.728 397.966C427.49 398.192 425.227 398.359 423.562 398.359C418.842 398.359 408.789 398.142 408.789 398.142L409.462 386.951C409.462 386.951 424.386 387.788 427.583 384.44C429.535 382.407 430.014 374.472 430.098 368.538Z" fill="#8ECFEF"/>
<path d="M454.798 425.494C448.362 430.942 438.705 428.599 430.292 429.352C424.201 429.905 428.332 435.261 423.562 439.095C419.356 433.152 409.79 430.457 404.078 425.921C407.923 416.521 416.234 408.771 426.447 406.754C431.495 405.758 436.644 405.75 441.758 405.632C444.602 405.565 447.445 405.524 450.28 405.256C452.19 405.072 456.321 403.448 458.029 403.917C464.178 405.599 458.718 422.179 454.798 425.494Z" fill="#8ECFEF"/>
<path d="M454.798 425.494C448.362 430.942 438.705 428.599 430.292 429.352C424.201 429.905 428.332 435.261 423.562 439.095C419.356 433.152 409.79 430.457 404.078 425.921C407.923 416.521 416.234 408.771 426.447 406.754C431.495 405.758 436.644 405.75 441.758 405.632C444.602 405.565 447.445 405.524 450.28 405.256C452.19 405.072 456.321 403.448 458.029 403.917C464.178 405.599 458.718 422.179 454.798 425.494Z" fill="url(#paint35_linear_38_93)"/>
<path d="M392.965 460.211C393.093 459.377 393.316 458.56 393.629 457.775C393.955 457.068 394.402 456.422 394.95 455.867C396.851 457.055 398.873 458.04 400.982 458.805C401.201 458.889 401.453 458.997 401.512 459.207C401.532 459.339 401.508 459.474 401.445 459.592C400.73 461.433 399.93 463.233 399.056 465.007C398.963 465.199 398.837 465.409 398.626 465.451C398.472 465.467 398.316 465.434 398.181 465.358C396.683 464.722 394.74 464.153 393.436 463.216C392.132 462.278 392.696 461.575 392.965 460.211Z" fill="black"/>
<path d="M384.821 460.605C384.282 460.385 383.717 460.233 383.139 460.153C382.605 460.148 382.078 460.274 381.604 460.519C381.13 460.764 380.724 461.121 380.422 461.559C379.821 462.439 379.372 463.412 379.092 464.438C378.875 464.93 378.808 465.474 378.899 466.003C379.167 466.645 379.664 467.164 380.295 467.46C383.474 469.418 386.754 471.208 390.121 472.825C391.741 473.749 393.564 474.26 395.43 474.315C395.782 474.32 396.127 474.221 396.423 474.03C396.622 473.852 396.787 473.639 396.91 473.402C397.921 471.611 398.75 469.724 399.384 467.769C399.641 467.307 399.714 466.765 399.588 466.252C399.462 465.738 399.145 465.291 398.702 464.999C397.02 463.392 394.942 461.785 392.578 461.383C390.037 460.94 387.345 461.442 384.821 460.605Z" fill="#8ECFEF"/>
<path d="M412.28 465.828C412.161 464.996 412.13 464.155 412.188 463.317C412.279 462.562 412.501 461.828 412.844 461.149C414.862 461.786 416.944 462.204 419.052 462.396C419.28 462.396 419.532 462.455 419.641 462.647C419.695 462.768 419.713 462.902 419.692 463.032C419.574 464.982 419.364 466.924 419.078 468.891C419.079 468.994 419.056 469.096 419.01 469.189C418.965 469.282 418.899 469.363 418.817 469.427C418.681 469.473 418.533 469.473 418.396 469.427C416.882 469.209 414.972 469.159 413.551 468.59C412.129 468.02 412.432 467.209 412.28 465.828Z" fill="black"/>
<path d="M404.616 468.321C404.057 468.256 403.493 468.256 402.934 468.321C402.42 468.466 401.949 468.734 401.563 469.102C401.178 469.469 400.888 469.926 400.721 470.431C400.398 471.442 400.242 472.499 400.259 473.561C400.187 473.864 400.185 474.18 400.251 474.484C400.318 474.788 400.452 475.074 400.644 475.32C400.836 475.567 401.081 475.767 401.36 475.907C401.64 476.047 401.948 476.124 402.261 476.13C405.861 477.126 409.512 477.93 413.197 478.541C415.012 478.981 416.909 478.963 418.716 478.491C419.043 478.394 419.336 478.205 419.557 477.947C419.703 477.723 419.8 477.473 419.843 477.21C420.317 475.209 420.582 473.164 420.634 471.109C420.71 470.53 420.595 469.943 420.306 469.435C420.014 469.072 419.639 468.785 419.212 468.598C417.118 467.535 414.686 466.564 412.314 466.832C409.714 467.192 407.266 468.413 404.616 468.321Z" fill="#8ECFEF"/>
<path d="M384.821 460.605C384.282 460.385 383.717 460.233 383.139 460.153C382.605 460.148 382.078 460.274 381.604 460.519C381.13 460.764 380.724 461.121 380.422 461.559C379.821 462.439 379.372 463.412 379.092 464.438C378.875 464.93 378.808 465.474 378.899 466.003C379.167 466.645 379.664 467.164 380.295 467.46C383.474 469.418 386.754 471.208 390.121 472.825C391.741 473.749 393.564 474.26 395.43 474.315C395.782 474.32 396.127 474.221 396.423 474.03C396.622 473.852 396.787 473.639 396.91 473.402C397.921 471.611 398.75 469.724 399.384 467.769C399.641 467.307 399.714 466.765 399.588 466.252C399.462 465.738 399.145 465.291 398.702 464.999C397.02 463.392 394.942 461.785 392.578 461.383C390.037 460.94 387.345 461.442 384.821 460.605Z" fill="url(#paint36_linear_38_93)"/>
<path d="M404.616 468.321C404.057 468.256 403.493 468.256 402.934 468.321C402.42 468.466 401.949 468.734 401.563 469.102C401.178 469.469 400.888 469.926 400.721 470.431C400.398 471.442 400.242 472.499 400.259 473.561C400.187 473.864 400.185 474.18 400.251 474.484C400.318 474.788 400.452 475.074 400.644 475.32C400.836 475.567 401.081 475.767 401.36 475.907C401.64 476.047 401.948 476.124 402.261 476.13C405.861 477.126 409.512 477.93 413.197 478.541C415.012 478.981 416.909 478.963 418.716 478.491C419.043 478.394 419.336 478.205 419.557 477.947C419.703 477.723 419.8 477.473 419.843 477.21C420.317 475.209 420.582 473.164 420.634 471.109C420.71 470.53 420.595 469.943 420.306 469.435C420.014 469.072 419.639 468.785 419.212 468.598C417.118 467.535 414.686 466.564 412.314 466.832C409.714 467.192 407.266 468.413 404.616 468.321Z" fill="url(#paint37_linear_38_93)"/>
<path d="M264.949 332.012C266.27 335.109 266.918 338.809 265.286 341.746C264.246 343.485 262.645 344.821 260.743 345.538C258.89 346.346 256.875 346.719 254.854 346.626C249.975 346.233 244.624 339.863 243.8 337.746C243.176 336.328 242.745 334.833 242.521 333.301C242.384 331.774 242.643 330.237 243.273 328.838C243.904 327.438 244.884 326.223 246.122 325.308C249.487 322.864 253.988 323.065 257.95 322.672C260.566 322.412 260.777 323.4 261.795 325.61C262.812 327.819 264.015 329.82 264.949 332.012Z" fill="url(#paint38_linear_38_93)"/>
<path d="M254.913 326.974C253.447 327.161 252.002 327.486 250.597 327.945C249.897 328.184 249.27 328.598 248.776 329.148C248.283 329.697 247.939 330.364 247.779 331.084C247.577 332.607 248.553 334.172 248.09 335.637L245.567 333.05C244.957 333.39 244.454 333.892 244.114 334.499C243.774 335.107 243.61 335.797 243.642 336.491C243.673 337.186 243.898 337.858 244.292 338.433C244.685 339.008 245.231 339.462 245.869 339.746C246.231 339.905 246.66 340.056 246.795 340.424C246.86 340.705 246.827 341 246.702 341.261L245.457 344.868C241.222 340.526 238.352 335.049 237.196 329.108C236.915 327.981 236.889 326.806 237.12 325.668C237.245 325.102 237.522 324.58 237.923 324.158C238.323 323.737 238.83 323.431 239.392 323.275C239.929 323.254 240.46 323.15 240.965 322.965C241.309 322.729 241.596 322.42 241.806 322.061C243.817 319.157 247.241 317.466 250.724 316.805C253.55 316.261 260.701 315.131 262.501 318.353C264.966 322.689 258.186 326.321 254.913 326.974Z" fill="black"/>
<path d="M372.387 314.336C372.465 315.332 372.307 316.333 371.925 317.257C371.125 318.839 369.165 319.475 367.39 319.55C366.972 319.612 366.545 319.585 366.137 319.471C365.73 319.357 365.351 319.158 365.026 318.889C364.604 318.349 364.365 317.689 364.345 317.006C364.261 316.294 364.202 315.574 364.168 314.863C364.127 314.427 364.15 313.987 364.235 313.557C364.38 313.03 364.626 312.535 364.959 312.101C366.338 310.201 368.376 308.877 370.68 308.385C372.051 308.092 372.362 308.443 372.362 309.774C372.421 311.297 372.387 312.812 372.387 314.336Z" fill="url(#paint39_linear_38_93)"/>
<path d="M374.852 297.395C375.138 296.585 375.624 295.86 376.266 295.286C376.374 295.182 376.519 295.125 376.669 295.127C376.813 295.153 376.944 295.226 377.04 295.336C377.838 296.076 378.357 297.066 378.512 298.14C378.582 298.674 378.537 299.218 378.379 299.733C378.22 300.248 377.953 300.724 377.595 301.128C377.274 301.511 376.821 301.762 376.325 301.831C375.975 301.827 375.633 301.727 375.336 301.542C375.039 301.358 374.799 301.096 374.642 300.785C374.342 300.148 374.184 299.454 374.179 298.751C374.137 297.989 374.179 297.077 374.886 296.692" fill="url(#paint40_linear_38_93)"/>
<path d="M352.542 309.113C353.394 311.161 354.841 312.91 356.698 314.135C358.388 314.998 360.267 315.426 362.166 315.382C364.484 315.517 366.799 315.089 368.913 314.135C371.463 312.746 373.414 310.478 374.398 307.757C375.358 305.071 375.839 302.238 375.82 299.387C375.896 296.173 375.626 292.792 373.851 290.114C372.839 288.717 371.524 287.565 370.004 286.742C368.484 285.919 366.797 285.447 365.069 285.36C360.189 284.992 351.154 287.251 349.648 292.75C349.093 294.784 349.732 297.111 349.976 299.145C350.269 302.586 351.137 305.955 352.542 309.113Z" fill="url(#paint41_linear_38_93)"/>
<path d="M346.468 292.658C346.735 294.267 347.419 295.779 348.454 297.044C349.152 296.207 349.169 295.043 349.362 293.98C349.584 292.726 350.085 291.537 350.826 290.499C351.005 290.2 351.277 289.968 351.6 289.837C351.855 289.815 352.111 289.842 352.355 289.918C352.599 289.994 352.826 290.118 353.022 290.281C354.325 291.053 355.832 291.417 357.346 291.327C358.078 291.31 358.791 291.093 359.407 290.699C359.816 290.364 360.204 290.003 360.568 289.62C362.25 288.122 364.841 288.172 366.987 288.883C368.074 289.185 369.056 289.782 369.822 290.607C370.604 291.545 370.924 292.817 371.757 293.704C372.253 294.223 372.926 294.642 373.128 295.328C373.195 295.741 373.195 296.162 373.128 296.575C373.046 297.607 373.234 298.642 373.675 299.58C374.423 298.651 374.289 297.27 374.911 296.232C375.382 295.453 376.241 294.985 376.762 294.24C377.35 293.145 377.526 291.878 377.259 290.666C377.027 288.659 376.631 286.674 376.072 284.732C375.871 283.942 375.571 283.18 375.181 282.464C374.548 281.49 373.708 280.668 372.719 280.056C371.73 279.444 370.617 279.057 369.46 278.923C367.142 278.679 364.8 278.818 362.528 279.333C359.831 279.708 357.209 280.496 354.755 281.668C353.529 282.261 352.436 283.094 351.542 284.116C350.647 285.139 349.969 286.33 349.547 287.619C349.16 289.017 348.529 288.791 347.562 289.67C347.172 290.059 346.873 290.528 346.684 291.044C346.495 291.56 346.422 292.111 346.468 292.658Z" fill="black"/>
<path d="M245.634 347.002L243.632 349.003C243.632 349.003 246.997 354.426 252.045 355.841C257.092 357.255 255.595 354.661 255.595 354.661C255.595 354.661 248.789 353.07 247.897 350.476C247.522 349.113 246.731 347.9 245.634 347.002Z" fill="#8ECFEF"/>
<path d="M245.634 347.002L243.632 349.003C243.632 349.003 246.997 354.426 252.045 355.841C257.092 357.255 255.595 354.661 255.595 354.661C255.595 354.661 248.789 353.07 247.897 350.476C247.522 349.113 246.731 347.9 245.634 347.002Z" fill="url(#paint42_linear_38_93)"/>
<path d="M295.84 463.634L286.25 466.363L286.157 465.978C286.157 465.852 286.09 465.702 286.04 465.518C286.047 465.487 286.047 465.456 286.04 465.426C285.989 465.216 285.93 464.965 285.855 464.681C285.779 464.396 285.686 464.028 285.594 463.651C284.088 457.658 280.471 443.405 278.923 438.391C277.24 432.867 270.468 430.172 268.625 429.536H268.533L268.255 429.444H268.18L261.912 425.075C261.912 425.075 246.98 414.195 248.157 408.578L257.723 408.478C258.488 408.704 282.961 415.961 288.589 422.531C294.217 429.101 295.84 463.634 295.84 463.634Z" fill="url(#paint43_linear_38_93)"/>
<path d="M287.344 408.328H280.269V486.543H287.344V408.328Z" fill="#8ECFEF"/>
<path d="M287.344 408.328H280.269V486.543H287.344V408.328Z" fill="url(#paint44_linear_38_93)"/>
<path d="M413.004 408.328H405.929V486.543H413.004V408.328Z" fill="#8ECFEF"/>
<path d="M413.004 408.328H405.929V486.543H413.004V408.328Z" fill="url(#paint45_linear_38_93)"/>
<path d="M393.47 369.785L394.782 373.032L391.274 378.765C391.274 378.765 385.175 374.413 383.837 372.614C382.5 370.814 378.621 366.01 380.918 364.202C383.215 362.394 390.037 368.538 390.037 368.538C390.037 368.538 388.809 364.453 390.879 365.307C391.434 365.541 393.47 369.785 393.47 369.785Z" fill="url(#paint46_linear_38_93)"/>
<path d="M417.849 323.517C417.468 325.144 417.431 326.831 417.74 328.472C417.763 329.174 417.969 329.857 418.337 330.456C418.816 330.986 419.433 331.371 420.121 331.569C422.569 332.476 425.149 332.982 427.76 333.067C428.271 333.02 428.783 333.16 429.198 333.461C429.619 333.854 429.619 334.515 429.913 335.009C430.519 336.064 432.033 336.005 433.278 335.804C433.559 342.23 431.719 348.571 428.037 353.858C429.97 354.652 432.09 354.885 434.151 354.529C436.212 354.174 438.129 353.244 439.68 351.849C439.26 353.104 440.976 354.201 442.204 353.782C443.432 353.364 444.223 352.108 444.871 350.97L445.485 352.468C447.742 350.668 449.264 348.113 449.767 345.279C450.252 342.454 450.306 339.573 449.927 336.733C449.73 333.619 449.054 330.554 447.925 327.644C446.77 324.713 444.589 322.296 441.783 320.839C439.394 319.709 436.669 319.567 434.027 319.525C429.484 319.483 419.7 317.659 417.849 323.517Z" fill="black"/>
<path d="M428.92 357.975L426.716 356.645L426.052 360.344L428.92 357.975Z" fill="url(#paint47_linear_38_93)"/>
<path d="M293.62 389.462C293.62 389.462 289.414 389.763 288.572 391.764C287.731 393.764 288.732 396.459 289.254 396.4C289.775 396.342 292.661 395.89 292.661 395.89C292.661 395.89 289.7 396.827 289.582 394.827C289.464 392.827 289.086 390.893 293.62 389.462Z" fill="url(#paint48_linear_38_93)"/>
</g>
<defs>
<linearGradient id="paint0_linear_38_93" x1="372.96" y1="338.817" x2="372.96" y2="442.032" gradientUnits="userSpaceOnUse">
<stop stop-opacity="0"/>
<stop offset="0.91" stop-opacity="0.8"/>
<stop offset="1"/>
</linearGradient>
<linearGradient id="paint1_linear_38_93" x1="409.605" y1="378.539" x2="409.372" y2="397.631" gradientUnits="userSpaceOnUse">
<stop stop-opacity="0"/>
<stop offset="0.91" stop-opacity="0.8"/>
<stop offset="1"/>
</linearGradient>
<linearGradient id="paint2_linear_38_93" x1="394.774" y1="442.593" x2="414.443" y2="442.593" gradientUnits="userSpaceOnUse">
<stop stop-color="#ECC4D7"/>
<stop offset="0.42" stop-color="#EFD4D1"/>
<stop offset="1" stop-color="#F2EAC9"/>
</linearGradient>
<linearGradient id="paint3_linear_38_93" x1="412.154" y1="446.2" x2="423.225" y2="446.2" gradientUnits="userSpaceOnUse">
<stop stop-color="#ECC4D7"/>
<stop offset="0.42" stop-color="#EFD4D1"/>
<stop offset="1" stop-color="#F2EAC9"/>
</linearGradient>
<linearGradient id="paint4_linear_38_93" x1="395.699" y1="393.664" x2="414.704" y2="393.664" gradientUnits="userSpaceOnUse">
<stop stop-color="#ECC4D7"/>
<stop offset="0.42" stop-color="#EFD4D1"/>
<stop offset="1" stop-color="#F2EAC9"/>
</linearGradient>
<linearGradient id="paint5_linear_38_93" x1="236.447" y1="464.982" x2="224.838" y2="449.533" gradientUnits="userSpaceOnUse">
<stop stop-opacity="0"/>
<stop offset="0.91" stop-opacity="0.8"/>
<stop offset="1"/>
</linearGradient>
<linearGradient id="paint6_linear_38_93" x1="233.301" y1="483.295" x2="234.725" y2="473.634" gradientUnits="userSpaceOnUse">
<stop stop-opacity="0"/>
<stop offset="0.91" stop-opacity="0.8"/>
<stop offset="1"/>
</linearGradient>
<linearGradient id="paint7_linear_38_93" x1="448.783" y1="455.508" x2="437.174" y2="440.058" gradientUnits="userSpaceOnUse">
<stop stop-opacity="0"/>
<stop offset="0.91" stop-opacity="0.8"/>
<stop offset="1"/>
</linearGradient>
<linearGradient id="paint8_linear_38_93" x1="445.645" y1="473.82" x2="447.069" y2="464.16" gradientUnits="userSpaceOnUse">
<stop stop-opacity="0"/>
<stop offset="0.91" stop-opacity="0.8"/>
<stop offset="1"/>
</linearGradient>
<linearGradient id="paint9_linear_38_93" x1="358.675" y1="464.103" x2="366.027" y2="464.103" gradientUnits="userSpaceOnUse">
<stop stop-color="#ECC4D7"/>
<stop offset="0.42" stop-color="#EFD4D1"/>
<stop offset="1" stop-color="#F2EAC9"/>
</linearGradient>
<linearGradient id="paint10_linear_38_93" x1="380.27" y1="463.417" x2="386.597" y2="463.417" gradientUnits="userSpaceOnUse">
<stop stop-color="#ECC4D7"/>
<stop offset="0.42" stop-color="#EFD4D1"/>
<stop offset="1" stop-color="#F2EAC9"/>
</linearGradient>
<linearGradient id="paint11_linear_38_93" x1="354.502" y1="460.445" x2="358.376" y2="476.131" gradientUnits="userSpaceOnUse">
<stop stop-opacity="0"/>
<stop offset="0.91" stop-opacity="0.8"/>
<stop offset="1"/>
</linearGradient>
<linearGradient id="paint12_linear_38_93" x1="377.141" y1="460.412" x2="385.482" y2="478.941" gradientUnits="userSpaceOnUse">
<stop stop-opacity="0"/>
<stop offset="0.91" stop-opacity="0.8"/>
<stop offset="1"/>
</linearGradient>
<linearGradient id="paint13_linear_38_93" x1="335.38" y1="347.706" x2="485.512" y2="324.855" gradientUnits="userSpaceOnUse">
<stop stop-opacity="0"/>
<stop offset="0.91" stop-opacity="0.8"/>
<stop offset="1"/>
</linearGradient>
<linearGradient id="paint14_linear_38_93" x1="259.548" y1="468.238" x2="267.986" y2="468.238" gradientUnits="userSpaceOnUse">
<stop stop-color="#ECC4D7"/>
<stop offset="0.42" stop-color="#EFD4D1"/>
<stop offset="1" stop-color="#F2EAC9"/>
</linearGradient>
<linearGradient id="paint15_linear_38_93" x1="287.344" y1="467.468" x2="294.293" y2="467.468" gradientUnits="userSpaceOnUse">
<stop stop-color="#ECC4D7"/>
<stop offset="0.42" stop-color="#EFD4D1"/>
<stop offset="1" stop-color="#F2EAC9"/>
</linearGradient>
<linearGradient id="paint16_linear_38_93" x1="268.416" y1="470.414" x2="267.483" y2="480.71" gradientUnits="userSpaceOnUse">
<stop stop-opacity="0"/>
<stop offset="0.91" stop-opacity="0.8"/>
<stop offset="1"/>
</linearGradient>
<linearGradient id="paint17_linear_38_93" x1="296.926" y1="466.505" x2="299.334" y2="476.228" gradientUnits="userSpaceOnUse">
<stop stop-opacity="0"/>
<stop offset="0.91" stop-opacity="0.8"/>
<stop offset="1"/>
</linearGradient>
<linearGradient id="paint18_linear_38_93" x1="269.804" y1="377.636" x2="251.587" y2="380.637" gradientUnits="userSpaceOnUse">
<stop stop-opacity="0"/>
<stop offset="0.91" stop-opacity="0.8"/>
<stop offset="1"/>
</linearGradient>
<linearGradient id="paint19_linear_38_93" x1="275.566" y1="378.941" x2="249.626" y2="402.793" gradientUnits="userSpaceOnUse">
<stop stop-opacity="0"/>
<stop offset="0.91" stop-opacity="0.8"/>
<stop offset="1"/>
</linearGradient>
<linearGradient id="paint20_linear_38_93" x1="426.716" y1="353.531" x2="437.384" y2="353.531" gradientUnits="userSpaceOnUse">
<stop stop-color="#ECC4D7"/>
<stop offset="0.42" stop-color="#EFD4D1"/>
<stop offset="1" stop-color="#F2EAC9"/>
</linearGradient>
<linearGradient id="paint21_linear_38_93" x1="348.58" y1="388.65" x2="347.173" y2="428.708" gradientUnits="userSpaceOnUse">
<stop stop-opacity="0"/>
<stop offset="0.91" stop-opacity="0.8"/>
<stop offset="1"/>
</linearGradient>
<linearGradient id="paint22_linear_38_93" x1="347.991" y1="401.431" x2="348.133" y2="412.562" gradientUnits="userSpaceOnUse">
<stop stop-opacity="0"/>
<stop offset="0.91" stop-opacity="0.8"/>
<stop offset="1"/>
</linearGradient>
<linearGradient id="paint23_linear_38_93" x1="384.754" y1="334.213" x2="406.928" y2="316.82" gradientUnits="userSpaceOnUse">
<stop stop-opacity="0"/>
<stop offset="0.91" stop-opacity="0.8"/>
<stop offset="1"/>
</linearGradient>
<linearGradient id="paint24_linear_38_93" x1="306.676" y1="299.864" x2="318.934" y2="299.864" gradientUnits="userSpaceOnUse">
<stop stop-color="#ECC4D7"/>
<stop offset="0.42" stop-color="#EFD4D1"/>
<stop offset="1" stop-color="#F2EAC9"/>
</linearGradient>
<linearGradient id="paint25_linear_38_93" x1="365.582" y1="351.589" x2="380.018" y2="351.589" gradientUnits="userSpaceOnUse">
<stop stop-color="#ECC4D7"/>
<stop offset="0.42" stop-color="#EFD4D1"/>
<stop offset="1" stop-color="#F2EAC9"/>
</linearGradient>
<linearGradient id="paint26_linear_38_93" x1="259.456" y1="382.022" x2="200.797" y2="386.038" gradientUnits="userSpaceOnUse">
<stop stop-opacity="0"/>
<stop offset="0.91" stop-opacity="0.8"/>
<stop offset="1"/>
</linearGradient>
<linearGradient id="paint27_linear_38_93" x1="255.149" y1="344.115" x2="242.66" y2="353.55" gradientUnits="userSpaceOnUse">
<stop stop-color="#ECC4D7"/>
<stop offset="0.42" stop-color="#EFD4D1"/>
<stop offset="1" stop-color="#F2EAC9"/>
</linearGradient>
<linearGradient id="paint28_linear_38_93" x1="288.555" y1="393.864" x2="306.171" y2="393.864" gradientUnits="userSpaceOnUse">
<stop stop-color="#ECC4D7"/>
<stop offset="0.42" stop-color="#EFD4D1"/>
<stop offset="1" stop-color="#F2EAC9"/>
</linearGradient>
<linearGradient id="paint29_linear_38_93" x1="244.91" y1="378.431" x2="201.67" y2="377.01" gradientUnits="userSpaceOnUse">
<stop stop-opacity="0"/>
<stop offset="0.91" stop-opacity="0.8"/>
<stop offset="1"/>
</linearGradient>
<linearGradient id="paint30_linear_38_93" x1="252.221" y1="401.029" x2="268.937" y2="401.029" gradientUnits="userSpaceOnUse">
<stop stop-color="#ECC4D7"/>
<stop offset="0.42" stop-color="#EFD4D1"/>
<stop offset="1" stop-color="#F2EAC9"/>
</linearGradient>
<linearGradient id="paint31_linear_38_93" x1="332.091" y1="452.352" x2="221.753" y2="429.987" gradientUnits="userSpaceOnUse">
<stop stop-opacity="0"/>
<stop offset="0.91" stop-opacity="0.8"/>
<stop offset="1"/>
</linearGradient>
<linearGradient id="paint32_linear_38_93" x1="432.067" y1="326.154" x2="425.497" y2="344.087" gradientUnits="userSpaceOnUse">
<stop stop-color="#ECC4D7"/>
<stop offset="0.42" stop-color="#EFD4D1"/>
<stop offset="1" stop-color="#F2EAC9"/>
</linearGradient>
<linearGradient id="paint33_linear_38_93" x1="448.076" y1="379.31" x2="411.64" y2="392.148" gradientUnits="userSpaceOnUse">
<stop stop-opacity="0"/>
<stop offset="0.91" stop-opacity="0.8"/>
<stop offset="1"/>
</linearGradient>
<linearGradient id="paint34_linear_38_93" x1="432.201" y1="355.079" x2="432.743" y2="362.897" gradientUnits="userSpaceOnUse">
<stop stop-opacity="0"/>
<stop offset="0.91" stop-opacity="0.8"/>
<stop offset="1"/>
</linearGradient>
<linearGradient id="paint35_linear_38_93" x1="492.756" y1="422.087" x2="413.643" y2="421.132" gradientUnits="userSpaceOnUse">
<stop stop-opacity="0"/>
<stop offset="0.91" stop-opacity="0.8"/>
<stop offset="1"/>
</linearGradient>
<linearGradient id="paint36_linear_38_93" x1="391.367" y1="459.224" x2="387.775" y2="471.178" gradientUnits="userSpaceOnUse">
<stop stop-opacity="0"/>
<stop offset="0.91" stop-opacity="0.8"/>
<stop offset="1"/>
</linearGradient>
<linearGradient id="paint37_linear_38_93" x1="410.825" y1="466.564" x2="410.2" y2="476.148" gradientUnits="userSpaceOnUse">
<stop stop-opacity="0"/>
<stop offset="0.91" stop-opacity="0.8"/>
<stop offset="1"/>
</linearGradient>
<linearGradient id="paint38_linear_38_93" x1="248.814" y1="327.401" x2="257.055" y2="336.281" gradientUnits="userSpaceOnUse">
<stop stop-color="#ECC4D7"/>
<stop offset="0.42" stop-color="#EFD4D1"/>
<stop offset="1" stop-color="#F2EAC9"/>
</linearGradient>
<linearGradient id="paint39_linear_38_93" x1="367.651" y1="311.992" x2="370.822" y2="318.257" gradientUnits="userSpaceOnUse">
<stop stop-color="#ECC4D7"/>
<stop offset="0.42" stop-color="#EFD4D1"/>
<stop offset="1" stop-color="#F2EAC9"/>
</linearGradient>
<linearGradient id="paint40_linear_38_93" x1="374.154" y1="298.508" x2="378.537" y2="298.508" gradientUnits="userSpaceOnUse">
<stop stop-color="#ECC4D7"/>
<stop offset="0.42" stop-color="#EFD4D1"/>
<stop offset="1" stop-color="#F2EAC9"/>
</linearGradient>
<linearGradient id="paint41_linear_38_93" x1="365.893" y1="289.143" x2="358.849" y2="309.746" gradientUnits="userSpaceOnUse">
<stop stop-color="#ECC4D7"/>
<stop offset="0.42" stop-color="#EFD4D1"/>
<stop offset="1" stop-color="#F2EAC9"/>
</linearGradient>
<linearGradient id="paint42_linear_38_93" x1="249.58" y1="351.74" x2="243.541" y2="352.872" gradientUnits="userSpaceOnUse">
<stop stop-opacity="0"/>
<stop offset="0.91" stop-opacity="0.8"/>
<stop offset="1"/>
</linearGradient>
<linearGradient id="paint43_linear_38_93" x1="281.135" y1="430.348" x2="259.091" y2="444.268" gradientUnits="userSpaceOnUse">
<stop stop-opacity="0"/>
<stop offset="0.91" stop-opacity="0.8"/>
<stop offset="1"/>
</linearGradient>
<linearGradient id="paint44_linear_38_93" x1="283.188" y1="474.356" x2="285.062" y2="391.881" gradientUnits="userSpaceOnUse">
<stop stop-opacity="0"/>
<stop offset="0.91" stop-opacity="0.8"/>
<stop offset="1"/>
</linearGradient>
<linearGradient id="paint45_linear_38_93" x1="409.016" y1="462.421" x2="410.89" y2="399.263" gradientUnits="userSpaceOnUse">
<stop stop-opacity="0"/>
<stop offset="0.91" stop-opacity="0.8"/>
<stop offset="1"/>
</linearGradient>
<linearGradient id="paint46_linear_38_93" x1="395.531" y1="380.64" x2="388.413" y2="370.353" gradientUnits="userSpaceOnUse">
<stop stop-color="#ECC4D7"/>
<stop offset="0.42" stop-color="#EFD4D1"/>
<stop offset="1" stop-color="#F2EAC9"/>
</linearGradient>
<linearGradient id="paint47_linear_38_93" x1="426.052" y1="358.494" x2="428.92" y2="358.494" gradientUnits="userSpaceOnUse">
<stop stop-opacity="0"/>
<stop offset="0.91" stop-opacity="0.8"/>
<stop offset="1"/>
</linearGradient>
<linearGradient id="paint48_linear_38_93" x1="292.425" y1="386.541" x2="289.493" y2="398.215" gradientUnits="userSpaceOnUse">
<stop stop-opacity="0"/>
<stop offset="0.91" stop-opacity="0.8"/>
<stop offset="1"/>
</linearGradient>
<clipPath id="clip0_38_93">
<rect width="380.063" height="284.989" fill="white" transform="translate(146.947 209.145)"/>
</clipPath>
</defs>
</svg>
