<svg width="608" height="520" viewBox="0 0 608 520" fill="none" xmlns="http://www.w3.org/2000/svg">
<path d="M340.467 85.1669C382.479 45.6054 451.378 63.296 469.134 118.203L478.872 148.314C481.091 155.178 485.077 161.336 490.43 166.172V166.172C521.899 194.6 494.942 246.278 453.622 236.737L355.826 214.158C303.548 202.088 285.834 136.614 324.894 99.8318L340.467 85.1669Z" fill="#31326F"/>
<path d="M106.984 332.786C148.996 293.225 217.895 310.915 235.651 365.823L245.388 395.933C247.608 402.797 251.594 408.955 256.947 413.791V413.791C288.415 442.219 261.459 493.897 220.138 484.357L122.342 461.777C70.0644 449.707 52.3502 384.233 91.4107 347.451L106.984 332.786Z" fill="#31326F"/>
<g clip-path="url(#clip0_38_203)">
<path opacity="0.18" d="M169.478 410.24C174.563 411.664 179.719 412.801 184.922 413.645C214.062 418.441 243.916 415.659 273.194 419.352C304.197 423.236 334.303 434.386 365.558 426.353C390.608 419.903 412.877 403.431 429.171 382.834C452.015 354.061 464.494 317.759 474.009 281.696C484.672 241.342 490.441 192.859 463.046 162.288C441.168 137.831 405.592 133.97 373.556 135.265C356.618 135.96 339.68 137.663 322.743 137.087C305.805 136.512 292.706 130.709 277.101 127.496C252.235 122.341 220.474 139.701 203.238 156.941C182.554 177.514 171.064 206.167 151.92 228.226C139.05 243.02 122.641 255.057 113.931 272.849C109.68 282.334 106.918 292.469 105.749 302.869C102.624 324.616 102.44 347.875 112.138 367.392C123.308 389.883 145.646 403.479 169.478 410.24Z" fill="#8ECFEF"/>
<path d="M374.888 167.659C374.888 167.659 447.005 201.083 449.487 247.624C451.969 294.165 317.342 285.772 287.903 305.842C258.463 325.911 130.869 356.411 133.328 321.451C135.787 286.492 166.099 274.431 166.099 274.431" stroke="white" stroke-width="1.16368" stroke-miterlimit="10"/>
<path opacity="0.18" d="M186.048 317.95L230.058 195.425C230.777 193.431 232.063 191.713 233.742 190.501C235.421 189.288 237.415 188.639 239.457 188.639H424.782C427.441 188.646 429.99 189.752 431.869 191.717C433.747 193.681 434.802 196.343 434.802 199.117C434.799 200.182 434.644 201.241 434.342 202.258L391.757 341.329C391.063 343.578 389.657 345.515 387.77 346.822C385.883 348.129 383.626 348.728 381.369 348.522L194.574 331.977C191.92 331.751 189.46 330.435 187.736 328.317C186.012 326.199 185.165 323.453 185.381 320.684C185.489 319.746 185.713 318.828 186.048 317.95Z" fill="#8ECFEF"/>
<path d="M429.378 190.006L386.724 329.148C386.018 331.394 384.606 333.327 382.717 334.632C380.828 335.938 378.571 336.54 376.313 336.341L320.376 331.402L189.633 319.749C188.318 319.643 187.037 319.267 185.863 318.642C184.688 318.018 183.644 317.157 182.789 316.109C181.935 315.062 181.287 313.849 180.884 312.539C180.481 311.229 180.33 309.85 180.44 308.479C180.533 307.495 180.75 306.527 181.084 305.602L191.54 276.829L210.454 224.078L225.117 183.316C225.836 181.322 227.121 179.604 228.801 178.392C230.48 177.18 232.474 176.53 234.516 176.53H419.841C421.157 176.53 422.46 176.801 423.675 177.326C424.891 177.851 425.996 178.621 426.926 179.592C427.856 180.563 428.594 181.715 429.098 182.984C429.602 184.252 429.861 185.612 429.861 186.985C429.847 188.011 429.684 189.03 429.378 190.006Z" fill="white"/>
<path opacity="0.18" d="M245.777 311.069L259.451 271.914H316.354L301.508 312.148L245.777 311.069Z" fill="#8ECFEF"/>
<path d="M429.378 190.006L386.724 329.148C386.018 331.395 384.606 333.327 382.717 334.632C380.828 335.938 378.572 336.54 376.314 336.341L320.376 331.402L371.97 185.282L372.361 184.155L429.677 184.779C429.668 184.954 429.668 185.13 429.677 185.306C429.923 186.876 429.821 188.484 429.378 190.006Z" fill="#8ECFEF"/>
<path opacity="0.18" d="M248.236 201.036L234.149 249.782C233.941 250.567 233.49 251.258 232.867 251.748C232.243 252.238 231.482 252.5 230.701 252.491L193.287 251.365L212.224 198.614L245.088 196.6C245.609 196.577 246.129 196.687 246.6 196.922C247.071 197.157 247.479 197.508 247.79 197.946C248.101 198.384 248.304 198.894 248.382 199.433C248.46 199.971 248.41 200.522 248.236 201.036Z" fill="#8ECFEF"/>
<path d="M162.491 237.793L177.062 194.754C177.285 194.063 177.699 193.456 178.25 193.008C178.802 192.56 179.468 192.292 180.164 192.236L241.572 188.447C242.094 188.43 242.613 188.546 243.084 188.783C243.555 189.021 243.963 189.374 244.275 189.812C244.587 190.25 244.792 190.761 244.873 191.3C244.955 191.839 244.91 192.39 244.743 192.907L230.655 241.678C230.445 242.463 229.994 243.155 229.372 243.649C228.75 244.142 227.99 244.41 227.208 244.411L165.295 242.469C164.779 242.438 164.276 242.278 163.831 242.003C163.386 241.727 163.01 241.345 162.736 240.887C162.461 240.429 162.296 239.909 162.253 239.371C162.211 238.833 162.292 238.292 162.491 237.793Z" fill="white"/>
<path d="M429.769 184.779V185.33V185.93L371.97 185.306L225.117 183.748V182.597L372.361 184.155L429.677 184.779H429.769Z" fill="#8ECFEF"/>
<path d="M182.6 233.285H174.741L178.877 222.136H186.714L182.6 233.285Z" fill="#8ECFEF"/>
<path d="M192.276 233.285H184.416L192.827 210.603H200.687L192.276 233.285Z" fill="#8ECFEF"/>
<path d="M201.974 233.285H194.114L199.239 219.474H207.076L201.974 233.285Z" fill="#8ECFEF"/>
<path d="M211.649 233.285H203.79L214.867 203.409H222.726L211.649 233.285Z" fill="#8ECFEF"/>
<path d="M192.276 233.285H184.416L192.827 210.603H200.687L192.276 233.285Z" fill="url(#paint0_linear_38_203)"/>
<path d="M211.649 233.285H203.79L214.867 203.409H222.726L211.649 233.285Z" fill="url(#paint1_linear_38_203)"/>
<path d="M221.348 233.285H213.488L227.645 195.065H235.504L221.348 233.285Z" fill="#8ECFEF"/>
<path d="M402.811 220.05C403.73 216.499 403.275 212.714 401.545 209.51C399.815 206.305 396.947 203.938 393.561 202.918C390.174 201.898 386.539 202.306 383.438 204.056C380.337 205.805 378.018 208.754 376.982 212.269C375.945 215.785 376.273 219.584 377.895 222.849C379.517 226.115 382.304 228.585 385.654 229.727C389.005 230.87 392.652 230.594 395.809 228.959C398.966 227.324 401.382 224.46 402.536 220.985L402.674 220.529L402.811 220.05Z" fill="white"/>
<path d="M373.418 309.079C374.109 305.598 373.515 301.972 371.754 298.929C369.993 295.886 367.194 293.649 363.919 292.667C360.645 291.684 357.135 292.029 354.094 293.632C351.052 295.235 348.703 297.977 347.517 301.31C347.517 301.454 347.517 301.622 347.517 301.766C347.517 301.909 347.517 302.077 347.356 302.221C346.446 305.636 346.805 309.283 348.359 312.434C349.914 315.585 352.551 318.008 355.743 319.219C358.936 320.43 362.449 320.34 365.58 318.967C368.712 317.594 371.232 315.039 372.636 311.812C372.774 311.357 372.889 310.901 373.027 310.445C373.165 309.99 373.257 309.534 373.418 309.079Z" fill="white"/>
<path d="M387.161 259.805C387.161 256.072 385.739 252.492 383.21 249.852C380.68 247.213 377.248 245.73 373.67 245.73C370.093 245.73 366.661 247.213 364.131 249.852C361.601 252.492 360.18 256.072 360.18 259.805V260.788C360.18 264.521 361.601 268.101 364.131 270.74C366.661 273.38 370.093 274.863 373.67 274.863C377.248 274.863 380.68 273.38 383.21 270.74C385.739 268.101 387.161 264.521 387.161 260.788V259.805Z" fill="white"/>
<path d="M389.39 216.189L392.561 205.567C391.666 205.279 390.739 205.11 389.803 205.064C387.463 204.972 385.159 205.685 383.244 207.093C381.33 208.501 379.912 210.526 379.209 212.856C378.933 213.791 378.771 214.757 378.726 215.734C378.697 216.708 378.782 217.682 378.979 218.635C379.385 220.539 380.274 222.295 381.553 223.718C382.814 225.166 384.422 226.236 386.212 226.817C388.002 227.399 389.908 227.471 391.734 227.027C392.634 226.807 393.505 226.477 394.331 226.044C395.161 225.586 395.933 225.022 396.629 224.366C397.986 223.055 398.999 221.404 399.571 219.57L389.39 216.189Z" fill="#8ECFEF"/>
<path d="M373.855 260.26V249.135C371.989 249.149 370.16 249.67 368.546 250.645C367.703 251.119 366.929 251.717 366.248 252.42C364.918 253.797 363.961 255.516 363.474 257.404C362.987 259.291 362.988 261.279 363.476 263.167C363.963 265.054 364.921 266.773 366.252 268.149C367.582 269.525 369.238 270.51 371.051 271.002C372.855 271.529 374.763 271.529 376.566 271.002C377.465 270.76 378.33 270.397 379.14 269.923L373.855 260.26Z" fill="#8ECFEF"/>
<path d="M360.226 306.105L363.536 295.531C361.753 294.938 359.854 294.831 358.02 295.22C355.722 295.729 353.649 297.015 352.124 298.88C350.599 300.744 349.707 303.082 349.586 305.53C349.535 306.495 349.613 307.464 349.815 308.407C350.004 309.357 350.313 310.276 350.735 311.141C351.355 312.438 352.214 313.594 353.263 314.545C354.312 315.495 355.53 316.221 356.848 316.679L360.157 306.081L360.226 306.105Z" fill="#8ECFEF"/>
<path d="M224.956 263.713C224.842 264.166 224.592 264.569 224.244 264.864C223.745 265.156 223.184 265.313 222.612 265.319C222.005 265.364 221.42 265.571 220.911 265.919C220.843 266.06 220.807 266.216 220.807 266.374C220.807 266.533 220.843 266.689 220.911 266.83L221.578 270.714C221.669 271.019 221.669 271.345 221.578 271.65C221.485 271.809 221.362 271.947 221.215 272.055C221.069 272.162 220.903 272.236 220.727 272.273C219.394 272.824 217.74 273.304 216.683 272.273C216.175 271.686 215.833 270.964 215.694 270.187C214.313 265.832 213.615 261.274 213.626 256.687C213.59 255.301 213.842 253.923 214.366 252.648C214.89 251.373 215.672 250.231 216.66 249.302C218.563 247.908 220.912 247.341 223.209 247.72C223.721 247.783 224.21 247.976 224.635 248.281C225.059 248.586 225.406 248.994 225.645 249.47C225.944 250.166 225.645 250.837 225.645 251.58C225.633 252.671 225.702 253.761 225.852 254.841C225.95 255.343 226.073 255.839 226.22 256.328C226.398 256.74 226.522 257.176 226.588 257.623C226.551 258.466 226.322 259.288 225.921 260.02C225.556 260.893 225.271 261.8 225.071 262.73C225.064 263.061 225.025 263.39 224.956 263.713Z" fill="#FDB9A9"/>
<path d="M227.943 292.486C227.943 292.486 232.54 297.617 236.401 297.617C240.262 297.617 257.291 280.833 257.291 280.833C258.206 280.38 259.024 279.739 259.695 278.947C260.366 278.156 260.878 277.232 261.198 276.229C261.359 275.534 261.313 274.815 261.428 274.119C261.727 272.716 262.333 271.403 263.197 270.283C263.343 270.13 263.453 269.945 263.521 269.742C263.588 269.538 263.611 269.322 263.588 269.108C263.45 268.58 262.853 268.413 262.347 268.317C260.753 267.83 259.042 267.975 257.544 268.724C256.484 269.628 255.748 270.878 255.452 272.273C254.996 271.585 254.357 271.052 253.614 270.738C253.39 270.874 253.218 271.088 253.13 271.342C253.042 271.596 253.042 271.875 253.131 272.129C253.303 272.636 253.502 273.133 253.729 273.616C253.883 274.524 253.783 275.46 253.441 276.31C253.099 277.161 252.528 277.89 251.798 278.411C250.908 279.13 249.963 279.772 248.972 280.329L238.538 286.684C237.481 287.331 236.24 288.002 235.091 287.403C234.562 287.115 234.194 286.564 233.62 286.3C233.174 286.198 232.71 286.22 232.275 286.363C231.84 286.506 231.448 286.765 231.138 287.115C229.747 288.671 228.662 290.496 227.943 292.486Z" fill="#FDB9A9"/>
<path d="M186.37 363.508C186.203 364.957 185.736 366.35 185.002 367.592C184.268 368.834 183.284 369.895 182.118 370.701C177.843 372.787 172.351 373.315 167.754 374.346C164.974 374.993 162.193 375.64 159.458 376.408C157.16 377.055 154.701 376.983 153.138 379.093C152.196 380.34 151.575 382.114 150.104 382.474C149.577 382.56 149.037 382.483 148.551 382.253C148.066 382.023 147.655 381.65 147.37 381.179C146.814 380.212 146.498 379.116 146.45 377.99C146.382 377.57 146.382 377.14 146.45 376.719C146.572 376.273 146.793 375.862 147.094 375.521C148.671 374.021 150.583 372.958 152.655 372.427C154.438 371.774 156.167 370.972 157.826 370.03C159.187 369.331 160.601 368.753 162.055 368.303L170.443 365.114C172.42 364.371 175.384 364.083 176.143 361.733C176.427 360.582 176.574 359.398 176.579 358.209C176.741 355.852 177.434 353.568 178.602 351.543C178.744 351.203 178.975 350.912 179.268 350.704C179.614 350.509 180.002 350.41 180.394 350.416C181.466 350.283 182.552 350.415 183.566 350.8C184.225 351.133 184.814 351.599 185.299 352.171C185.784 352.743 186.156 353.41 186.393 354.132C186.835 355.588 187.006 357.118 186.898 358.64C186.857 360.276 186.68 361.904 186.37 363.508Z" fill="#FDB9A9"/>
<path d="M148.61 374.585C148.473 375.209 148.013 375.712 147.852 376.336C147.76 376.843 147.76 377.363 147.852 377.87L148.289 380.268C148.299 380.52 148.36 380.767 148.467 380.993C148.575 381.219 148.727 381.418 148.913 381.579C149.1 381.739 149.316 381.857 149.549 381.925C149.782 381.992 150.026 382.008 150.265 381.971C150.361 381.978 150.454 382.007 150.538 382.057C150.621 382.107 150.693 382.176 150.748 382.258C150.793 382.39 150.793 382.534 150.748 382.666L150.104 385.711C149.84 386.987 149.415 388.22 148.84 389.38C148.66 389.429 148.469 389.429 148.289 389.38C146.818 389.38 146.243 385.495 145.715 384.033C145.278 382.551 145.16 380.987 145.37 379.453C145.37 378.614 145.508 377.798 145.623 377.055C145.631 376.235 145.779 375.423 146.059 374.657C146.152 374.469 146.294 374.313 146.469 374.206C146.644 374.1 146.845 374.049 147.048 374.058C147.507 374.082 148.771 373.89 148.61 374.585Z" fill="#8ECFEF"/>
<path d="M210.914 363.964C211.716 365.182 212.248 366.572 212.47 368.032C212.693 369.492 212.601 370.986 212.201 372.404C210.247 376.864 206.387 381.012 203.56 384.896C201.813 387.294 200.113 389.692 198.481 392.089C197.148 394.127 195.24 395.734 195.355 398.395C195.355 399.978 196.045 401.752 195.148 403.023C194.798 403.444 194.338 403.75 193.824 403.904C193.309 404.057 192.764 404.051 192.253 403.886C191.235 403.528 190.318 402.91 189.587 402.088C189.284 401.806 189.028 401.474 188.829 401.105C188.642 400.677 188.555 400.208 188.576 399.738C188.83 397.529 189.621 395.425 190.874 393.624C191.783 391.896 192.551 390.091 193.172 388.229C193.769 386.765 194.492 385.36 195.332 384.033L199.722 375.928C200.779 374.034 202.87 371.804 202.02 369.502C201.522 368.433 200.897 367.434 200.159 366.529C198.823 364.626 197.927 362.427 197.539 360.103C197.47 359.739 197.47 359.364 197.539 359C197.677 358.619 197.906 358.28 198.205 358.017C198.952 357.193 199.873 356.561 200.894 356.171C201.599 355.973 202.335 355.926 203.058 356.033C203.781 356.14 204.475 356.399 205.1 356.794C206.347 357.589 207.432 358.632 208.294 359.863C209.277 361.15 210.154 362.522 210.914 363.964Z" fill="#FDB9A9"/>
<path d="M189.082 397.94C189.357 398.515 189.334 399.21 189.61 399.786C189.866 400.226 190.212 400.602 190.621 400.889L192.391 402.399C192.597 402.587 192.83 402.741 193.08 402.855C193.409 402.911 193.746 402.898 194.069 402.815C194.393 402.733 194.698 402.583 194.965 402.376C195.016 402.311 195.082 402.262 195.158 402.235C195.233 402.207 195.315 402.202 195.393 402.219C195.471 402.236 195.543 402.276 195.602 402.333C195.66 402.39 195.702 402.463 195.723 402.543L197.125 405.325C197.728 406.462 198.176 407.68 198.458 408.945C198.375 409.128 198.248 409.285 198.09 409.401C196.941 410.384 194.115 407.818 192.828 407.003C191.562 406.224 190.472 405.169 189.633 403.91C189.173 403.239 188.737 402.543 188.3 401.872C187.828 401.26 187.456 400.572 187.197 399.834C187.15 399.62 187.162 399.396 187.231 399.188C187.3 398.98 187.424 398.797 187.588 398.659C187.886 398.299 188.737 397.316 189.082 397.94Z" fill="#8ECFEF"/>
<path d="M233.712 286.42C233.622 286.736 233.436 287.013 233.183 287.211C231.437 288.961 229.667 290.664 227.943 292.414C227.387 292.969 226.788 293.474 226.151 293.925C225.576 294.284 224.956 294.524 224.381 294.884C224.187 295.012 224.002 295.156 223.83 295.315C222.612 296.482 221.668 297.926 221.072 299.535C220.635 300.519 220.222 301.55 219.877 302.581C218.956 305.26 218.272 308.02 217.831 310.829C215.189 326.846 218.636 343.175 220.428 359.24C220.658 361.014 220.819 362.788 220.957 364.563C220.957 365.306 221.095 366.073 221.141 366.841C221.26 367.52 221.155 368.222 220.842 368.831C220.474 369.281 219.986 369.607 219.44 369.766C211.672 373.051 202.916 375.64 195.034 372.715C189.932 370.821 185.841 366.841 181.382 363.628C176.924 360.415 171.362 357.921 166.146 359.503C166.206 355.581 167.599 351.809 170.075 348.857C170.922 347.691 171.851 346.593 172.856 345.572L174.925 343.438C181.819 336.413 187.725 330.347 191.425 320.492C192.919 316.488 193.218 311.788 195.746 308.287C198.044 305.29 199.814 304.978 200.342 300.95C201.034 295.915 202.133 290.95 203.629 286.108C205.008 281.719 207.185 277.649 210.041 274.119C211.267 272.484 212.761 271.087 214.453 269.995C216.162 268.893 218.189 268.46 220.176 268.772C221.159 268.944 222.082 269.382 222.852 270.043C223.622 270.704 224.213 271.563 224.565 272.537C226.335 277.98 230.931 280.353 233.436 285.509C233.63 285.768 233.728 286.091 233.712 286.42Z" fill="#8ECFEF"/>
<path d="M227.024 247.48C226.84 248.322 226.457 249.102 225.912 249.751C225.366 250.399 224.674 250.896 223.899 251.197C220.337 252.659 215.418 252.06 216.407 257.359C217.366 261.245 217.058 265.353 215.533 269.036C214.544 270.388 213.853 271.952 213.511 273.616C213.533 274.351 213.626 275.082 213.787 275.798C214.297 278.898 213.62 282.083 211.9 284.667C210.18 287.25 207.557 289.025 204.594 289.609C204.154 289.7 203.709 289.756 203.261 289.777C201.917 289.675 200.568 289.913 199.331 290.472C198.214 291.452 197.411 292.766 197.033 294.237C196.554 295.784 195.651 297.151 194.436 298.169C191.977 299.895 188.691 298.84 185.933 297.665C183.848 296.892 181.887 295.793 180.118 294.404C179.237 293.704 178.504 292.82 177.966 291.809C177.428 290.798 177.097 289.681 176.993 288.53C177.2 287.033 177.176 285.511 176.924 284.022C176.434 283.185 175.888 282.384 175.292 281.624C174.769 280.323 174.561 278.908 174.685 277.503C174.809 276.099 175.262 274.747 176.005 273.568C176.256 273.153 176.42 272.687 176.487 272.201C176.451 271.731 176.343 271.269 176.166 270.834C175.906 269.233 176.147 267.586 176.855 266.139C177.563 264.692 178.7 263.522 180.096 262.802C182.922 261.449 185.903 260.482 188.966 259.925C191.228 259.324 193.324 258.179 195.084 256.579C196.844 254.98 198.22 252.972 199.101 250.717C200.871 246.785 202.365 242.493 206.41 240.527C209.497 239.29 212.826 238.852 216.112 239.248C219.397 239.645 222.542 240.865 225.278 242.805C226 243.297 226.556 244.012 226.869 244.85C227.182 245.689 227.237 246.608 227.024 247.48Z" fill="#473F47"/>
<path d="M226.151 293.997C225.576 294.357 224.956 294.596 224.381 294.956C224.183 295.078 223.998 295.223 223.83 295.388C221.826 297.297 220.444 299.812 219.877 302.581C218.957 305.27 218.265 308.038 217.809 310.853C216.768 318.147 216.56 325.544 217.188 332.889C217.516 335.562 217.438 338.273 216.958 340.921C213.906 337.167 211.966 332.569 211.374 327.685C211.052 325.024 211.144 322.29 210.615 319.653C210.202 317.759 209.466 315.936 209.167 314.018C209.178 313.923 209.178 313.826 209.167 313.73C208.685 310.278 209.972 309.774 211.833 307.784C213.648 305.723 214.998 303.266 215.786 300.591C217.318 295.795 218.919 291.072 220.589 286.42C220.245 287.691 224.726 291.623 226.151 293.997Z" fill="url(#paint2_linear_38_203)"/>
<path opacity="0.38" d="M220.98 364.635C213.028 367.158 204.507 366.931 196.688 363.988C193.74 362.951 191.015 361.322 188.668 359.192C187.771 358.329 186.967 357.37 186.048 356.554C184.647 355.358 183.102 354.358 181.452 353.581C177.889 351.807 174.166 350.68 170.558 349.145L170.167 348.978C171.02 347.817 171.95 346.719 172.948 345.693L175.04 343.559H175.499C177.803 343.886 180.053 344.539 182.187 345.501C185.596 347.539 188.82 349.899 191.816 352.55C194.83 354.663 198.013 356.501 201.331 358.041C203.421 359.162 205.637 360.007 207.926 360.559C210.211 360.887 212.525 360.935 214.821 360.703C216.784 360.75 218.725 360.263 220.452 359.288C220.658 361.086 220.819 362.837 220.98 364.635Z" fill="white"/>
<path opacity="0.18" d="M262.048 260.308L275.722 221.129H332.648L317.779 261.363L262.048 260.308Z" fill="#8ECFEF"/>
<path d="M338.21 147.086L361.766 158.451L357.79 172.934L338.21 147.086Z" fill="#8ECFEF"/>
<path d="M338.21 147.086H374.912L363.743 154.207L338.21 147.086Z" fill="#8ECFEF"/>
<path d="M367.994 164.853L361.766 158.451L338.21 147.086L363.743 154.207L367.994 164.853Z" fill="#8ECFEF"/>
<path d="M367.994 164.853L361.766 158.451L338.21 147.086L363.743 154.207L367.994 164.853Z" fill="url(#paint3_linear_38_203)"/>
<path d="M367.994 164.853L361.766 158.451L338.21 147.086L367.994 164.853Z" fill="#8ECFEF"/>
</g>
<defs>
<linearGradient id="paint0_linear_38_203" x1="187.407" y1="186.459" x2="251.615" y2="329.188" gradientUnits="userSpaceOnUse">
<stop offset="0.01"/>
<stop offset="0.08" stop-opacity="0.69"/>
<stop offset="0.21" stop-opacity="0.32"/>
<stop offset="1" stop-opacity="0"/>
</linearGradient>
<linearGradient id="paint1_linear_38_203" x1="207.327" y1="177.506" x2="271.533" y2="320.214" gradientUnits="userSpaceOnUse">
<stop offset="0.01"/>
<stop offset="0.08" stop-opacity="0.69"/>
<stop offset="0.21" stop-opacity="0.32"/>
<stop offset="1" stop-opacity="0"/>
</linearGradient>
<linearGradient id="paint2_linear_38_203" x1="174.902" y1="303.612" x2="274.975" y2="324.794" gradientUnits="userSpaceOnUse">
<stop offset="0.01"/>
<stop offset="0.13" stop-opacity="0.69"/>
<stop offset="0.25" stop-opacity="0.32"/>
<stop offset="1" stop-opacity="0"/>
</linearGradient>
<linearGradient id="paint3_linear_38_203" x1="349.977" y1="131.644" x2="360.492" y2="207.033" gradientUnits="userSpaceOnUse">
<stop offset="0.01"/>
<stop offset="0.08" stop-opacity="0.69"/>
<stop offset="0.21" stop-opacity="0.32"/>
<stop offset="1" stop-opacity="0"/>
</linearGradient>
<clipPath id="clip0_38_203">
<rect width="384.871" height="302.646" fill="white" transform="translate(100.925 126.561)"/>
</clipPath>
</defs>
</svg>
