<svg width="580" height="542" viewBox="0 0 580 542" fill="none" xmlns="http://www.w3.org/2000/svg">
<path d="M0 250C0 111.929 111.929 0 250 0H555V228C555 366.071 443.071 478 305 478H0V250Z" fill="#F9E9BF"/>
<path d="M13 265C13 126.929 124.929 15 263 15H568V243C568 381.071 456.071 493 318 493H13V265Z" fill="#FFE194"/>
<path d="M25 280C25 141.929 136.929 30 275 30H580V258C580 396.071 468.071 508 330 508H25V280Z" fill="#FFBE00"/>
<path d="M293.006 479.039C373.041 479.039 437.922 469.029 437.922 456.68C437.922 444.332 373.041 434.321 293.006 434.321C212.971 434.321 148.089 444.332 148.089 456.68C148.089 469.029 212.971 479.039 293.006 479.039Z" fill="#31326F"/>
<path d="M206.539 411.656L205.783 413.287C205.305 414.318 205.754 415.541 206.785 416.019L245.882 434.134C246.914 434.612 248.137 434.164 248.615 433.132L249.371 431.502C249.849 430.47 249.4 429.247 248.369 428.769L209.271 410.654C208.24 410.176 207.017 410.625 206.539 411.656Z" fill="black"/>
<path d="M207.364 398.2L226.82 403.32L253.1 415.5L248.615 425.187C248.204 426.072 247.458 426.758 246.541 427.094C245.624 427.43 244.612 427.389 243.726 426.979L209.13 410.954L207.364 398.2Z" fill="white"/>
<path d="M245.267 428.336C244.586 428.336 243.913 428.188 243.296 427.901L208.193 411.645L206.145 396.797L227.26 402.373L254.462 415.024L249.542 425.643C249.159 426.452 248.553 427.134 247.796 427.611C247.039 428.088 246.162 428.34 245.267 428.336ZM210.072 410.257L244.156 426.053C244.474 426.202 244.818 426.287 245.17 426.303C245.521 426.318 245.871 426.264 246.201 426.143C246.531 426.022 246.834 425.837 247.092 425.598C247.35 425.359 247.558 425.072 247.704 424.752L251.764 415.992L226.471 404.272L208.587 399.567L210.072 410.257Z" fill="black"/>
<path d="M211.864 418.362L189.735 408.122C188.922 407.745 188.291 407.06 187.982 406.218C187.673 405.376 187.71 404.446 188.087 403.632C189.635 400.292 192.447 397.704 195.904 396.437C199.36 395.17 203.178 395.327 206.519 396.874C208.173 397.64 209.66 398.725 210.895 400.066C212.13 401.407 213.088 402.978 213.716 404.69C214.344 406.401 214.628 408.22 214.552 410.041C214.477 411.863 214.044 413.652 213.277 415.306L211.864 418.362Z" fill="black"/>
<path d="M386.031 202.488L374.68 203.179C369.494 203.494 364.394 201.736 360.504 198.292C356.613 194.848 354.25 190 353.934 184.813L353.294 174.261C353.155 171.978 353.468 169.69 354.214 167.528C354.959 165.366 356.124 163.372 357.641 161.661C359.158 159.949 360.997 158.553 363.053 157.552C365.11 156.552 367.344 155.966 369.627 155.829L378.474 155.291C384.876 154.908 391.168 157.081 395.968 161.334C400.768 165.587 403.684 171.572 404.074 177.973L404.309 181.864C404.62 187.023 402.869 192.094 399.441 195.961C396.013 199.829 391.19 202.176 386.031 202.488Z" fill="black"/>
<path d="M192.219 458.032C191.975 458.036 191.737 457.952 191.55 457.796C191.362 457.64 191.236 457.422 191.195 457.182L163.736 299.481L121.854 457.1C121.778 457.354 121.607 457.568 121.376 457.698C121.146 457.828 120.874 457.864 120.617 457.798C120.361 457.732 120.14 457.569 120.001 457.343C119.862 457.117 119.817 456.847 119.873 456.588L164.146 289.937L193.227 456.849C193.274 457.114 193.214 457.387 193.06 457.609C192.907 457.83 192.673 457.982 192.408 458.032C192.345 458.038 192.282 458.038 192.219 458.032Z" fill="black"/>
<path d="M351.712 280.455H144.367C141.882 280.455 139.867 282.47 139.867 284.956V290.209C139.867 292.694 141.882 294.709 144.367 294.709H351.712C354.197 294.709 356.212 292.694 356.212 290.209V284.956C356.212 282.47 354.197 280.455 351.712 280.455Z" fill="black"/>
<path d="M337.422 131.96H300.64C295.298 131.96 290.968 136.29 290.968 141.631C290.968 146.973 295.298 151.303 300.64 151.303H337.422C342.763 151.303 347.093 146.973 347.093 141.631C347.093 136.29 342.763 131.96 337.422 131.96Z" fill="white"/>
<path d="M337.427 152.322H300.64C299.216 152.353 297.8 152.1 296.475 151.576C295.151 151.053 293.944 150.27 292.926 149.274C291.908 148.278 291.099 147.089 290.547 145.776C289.994 144.463 289.71 143.053 289.71 141.629C289.71 140.205 289.994 138.795 290.547 137.482C291.099 136.169 291.908 134.98 292.926 133.984C293.944 132.987 295.151 132.205 296.475 131.681C297.8 131.158 299.216 130.905 300.64 130.936H337.427C338.851 130.905 340.267 131.158 341.591 131.681C342.916 132.205 344.123 132.987 345.141 133.984C346.159 134.98 346.968 136.169 347.52 137.482C348.072 138.795 348.357 140.205 348.357 141.629C348.357 143.053 348.072 144.463 347.52 145.776C346.968 147.089 346.159 148.278 345.141 149.274C344.123 150.27 342.916 151.053 341.591 151.576C340.267 152.1 338.851 152.353 337.427 152.322ZM300.64 132.984C299.487 132.956 298.34 133.158 297.266 133.58C296.193 134.002 295.215 134.634 294.389 135.44C293.564 136.246 292.908 137.208 292.46 138.271C292.012 139.334 291.782 140.475 291.782 141.629C291.782 142.782 292.012 143.924 292.46 144.987C292.908 146.049 293.564 147.012 294.389 147.818C295.215 148.623 296.193 149.255 297.266 149.677C298.34 150.099 299.487 150.302 300.64 150.274H337.427C338.58 150.302 339.727 150.099 340.8 149.677C341.874 149.255 342.852 148.623 343.677 147.818C344.503 147.012 345.159 146.049 345.606 144.987C346.054 143.924 346.285 142.782 346.285 141.629C346.285 140.475 346.054 139.334 345.606 138.271C345.159 137.208 344.503 136.246 343.677 135.44C342.852 134.634 341.874 134.002 340.8 133.58C339.727 133.158 338.58 132.956 337.427 132.984H300.64Z" fill="black"/>
<path d="M306.937 146.291L304.316 144.908C304.277 144.888 304.234 144.877 304.19 144.877C304.147 144.877 304.104 144.888 304.065 144.908L301.443 146.291C301.399 146.313 301.349 146.322 301.299 146.318C301.249 146.314 301.201 146.296 301.161 146.266C301.121 146.237 301.09 146.196 301.071 146.15C301.052 146.104 301.046 146.053 301.054 146.004L301.566 143.085C301.573 143.042 301.568 142.997 301.554 142.955C301.54 142.913 301.516 142.876 301.484 142.845L299.365 140.797C299.329 140.762 299.303 140.718 299.291 140.669C299.279 140.621 299.281 140.57 299.296 140.522C299.312 140.475 299.34 140.433 299.379 140.401C299.417 140.368 299.464 140.348 299.513 140.341L302.447 139.911C302.49 139.906 302.53 139.89 302.565 139.865C302.6 139.84 302.628 139.806 302.647 139.768L303.963 137.11C303.984 137.065 304.018 137.026 304.061 136.999C304.103 136.972 304.153 136.958 304.203 136.958C304.254 136.958 304.303 136.972 304.346 136.999C304.388 137.026 304.422 137.065 304.444 137.11L305.755 139.768C305.774 139.806 305.803 139.84 305.839 139.865C305.875 139.89 305.916 139.906 305.959 139.911L308.888 140.341C308.938 140.348 308.984 140.368 309.023 140.401C309.061 140.433 309.09 140.475 309.105 140.522C309.121 140.57 309.122 140.621 309.11 140.669C309.098 140.718 309.073 140.762 309.036 140.797L306.917 142.845C306.886 142.876 306.863 142.914 306.849 142.956C306.836 142.998 306.833 143.042 306.84 143.085L307.352 146.004C307.364 146.057 307.36 146.112 307.34 146.163C307.321 146.213 307.286 146.257 307.242 146.288C307.197 146.319 307.144 146.335 307.09 146.336C307.036 146.336 306.982 146.321 306.937 146.291Z" fill="#FFC1EB"/>
<path d="M321.78 146.291L319.159 144.908C319.12 144.888 319.077 144.877 319.033 144.877C318.99 144.877 318.947 144.888 318.908 144.908L316.286 146.291C316.242 146.314 316.191 146.325 316.14 146.321C316.09 146.318 316.041 146.3 316 146.27C315.959 146.24 315.927 146.2 315.908 146.152C315.889 146.105 315.883 146.054 315.892 146.004L316.404 143.085C316.412 143.042 316.41 142.997 316.396 142.955C316.383 142.913 316.359 142.875 316.327 142.845L314.208 140.797C314.172 140.762 314.146 140.718 314.134 140.67C314.122 140.621 314.124 140.57 314.139 140.522C314.155 140.475 314.183 140.433 314.222 140.401C314.26 140.369 314.307 140.348 314.356 140.341L317.29 139.911C317.333 139.906 317.373 139.89 317.408 139.865C317.443 139.84 317.471 139.806 317.49 139.768L318.8 137.11C318.823 137.065 318.857 137.027 318.9 137C318.943 136.974 318.993 136.959 319.044 136.959C319.094 136.959 319.144 136.974 319.187 137C319.23 137.027 319.264 137.065 319.287 137.11L320.597 139.768C320.616 139.806 320.644 139.84 320.679 139.865C320.714 139.89 320.754 139.906 320.797 139.911L323.731 140.341C323.78 140.348 323.827 140.369 323.865 140.401C323.904 140.433 323.932 140.475 323.948 140.522C323.963 140.57 323.965 140.621 323.953 140.67C323.941 140.718 323.915 140.762 323.879 140.797L321.76 142.845C321.728 142.875 321.704 142.913 321.691 142.955C321.678 142.997 321.675 143.042 321.683 143.085L322.195 146.004C322.207 146.057 322.203 146.112 322.183 146.163C322.164 146.213 322.129 146.257 322.085 146.288C322.04 146.319 321.987 146.336 321.933 146.336C321.879 146.336 321.825 146.321 321.78 146.291Z" fill="#FFC1EB"/>
<path d="M336.623 146.291L334.002 144.908C333.963 144.888 333.92 144.877 333.876 144.877C333.832 144.877 333.789 144.888 333.751 144.908L331.129 146.291C331.084 146.314 331.034 146.325 330.983 146.321C330.932 146.318 330.884 146.3 330.843 146.27C330.802 146.24 330.77 146.199 330.751 146.152C330.732 146.105 330.726 146.054 330.735 146.004L331.247 143.085C331.254 143.042 331.251 142.998 331.238 142.956C331.224 142.914 331.201 142.876 331.17 142.845L329.051 140.797C329.015 140.762 328.989 140.718 328.977 140.669C328.965 140.621 328.966 140.57 328.982 140.522C328.997 140.475 329.026 140.433 329.064 140.401C329.103 140.368 329.149 140.348 329.199 140.341L332.128 139.911C332.171 139.905 332.212 139.889 332.248 139.864C332.283 139.839 332.312 139.806 332.332 139.768L333.643 137.11C333.665 137.065 333.699 137.026 333.741 136.999C333.784 136.972 333.833 136.958 333.884 136.958C333.934 136.958 333.984 136.972 334.026 136.999C334.069 137.026 334.103 137.065 334.124 137.11L335.435 139.768C335.455 139.806 335.484 139.839 335.52 139.864C335.556 139.889 335.597 139.905 335.64 139.911L338.574 140.341C338.623 140.348 338.67 140.368 338.708 140.401C338.747 140.433 338.775 140.475 338.791 140.522C338.806 140.57 338.808 140.621 338.796 140.669C338.784 140.718 338.758 140.762 338.722 140.797L336.597 142.845C336.566 142.876 336.543 142.914 336.53 142.956C336.517 142.998 336.513 143.042 336.521 143.085L337.033 146.004C337.044 146.056 337.039 146.11 337.02 146.16C337 146.21 336.967 146.252 336.923 146.283C336.879 146.314 336.827 146.331 336.774 146.332C336.721 146.333 336.668 146.319 336.623 146.291Z" fill="#FFC1EB"/>
<path d="M311.704 161.389H181.4C175.965 161.389 171.559 165.795 171.559 171.23V251.763C171.559 257.197 175.965 261.603 181.4 261.603H311.704C317.139 261.603 321.545 257.197 321.545 251.763V171.23C321.545 165.795 317.139 161.389 311.704 161.389Z" fill="black"/>
<path d="M304.116 170.037H188.988C184.845 170.037 181.487 173.395 181.487 177.538V247.472C181.487 251.615 184.845 254.973 188.988 254.973H304.116C308.259 254.973 311.617 251.615 311.617 247.472V177.538C311.617 173.395 308.259 170.037 304.116 170.037Z" fill="white"/>
<path d="M255.635 184.23H222.959C220.058 184.23 217.706 186.582 217.706 189.483V238.189C217.706 241.091 220.058 243.443 222.959 243.443H255.635C258.536 243.443 260.888 241.091 260.888 238.189V189.483C260.888 186.582 258.536 184.23 255.635 184.23Z" fill="#6DC8C2"/>
<path d="M206.012 182.622H194.477C193.263 182.622 192.28 183.605 192.28 184.819V196.354C192.28 197.567 193.263 198.55 194.477 198.55H206.012C207.225 198.55 208.208 197.567 208.208 196.354V184.819C208.208 183.605 207.225 182.622 206.012 182.622Z" fill="#6DC8C2"/>
<path d="M205.587 206.041H194.901C193.454 206.041 192.28 207.215 192.28 208.662V219.348C192.28 220.796 193.454 221.969 194.901 221.969H205.587C207.035 221.969 208.208 220.796 208.208 219.348V208.662C208.208 207.215 207.035 206.041 205.587 206.041Z" fill="#31326F"/>
<path d="M205.556 229.455H194.932C193.467 229.455 192.28 230.642 192.28 232.107V242.731C192.28 244.195 193.467 245.383 194.932 245.383H205.556C207.021 245.383 208.208 244.195 208.208 242.731V232.107C208.208 230.642 207.021 229.455 205.556 229.455Z" fill="#FFC1EB"/>
<path d="M303.548 186.411H269.367C269.095 186.411 268.835 186.303 268.643 186.111C268.451 185.919 268.343 185.658 268.343 185.387C268.343 185.115 268.451 184.855 268.643 184.663C268.835 184.471 269.095 184.363 269.367 184.363H303.548C303.819 184.363 304.08 184.471 304.272 184.663C304.464 184.855 304.572 185.115 304.572 185.387C304.572 185.658 304.464 185.919 304.272 186.111C304.08 186.303 303.819 186.411 303.548 186.411Z" fill="black"/>
<path d="M303.548 195.888H269.367C269.095 195.888 268.835 195.78 268.643 195.588C268.451 195.396 268.343 195.136 268.343 194.864C268.343 194.593 268.451 194.332 268.643 194.14C268.835 193.948 269.095 193.84 269.367 193.84H303.548C303.819 193.84 304.08 193.948 304.272 194.14C304.464 194.332 304.572 194.593 304.572 194.864C304.572 195.136 304.464 195.396 304.272 195.588C304.08 195.78 303.819 195.888 303.548 195.888Z" fill="black"/>
<path d="M292.934 205.319H269.382C269.111 205.319 268.85 205.211 268.658 205.019C268.466 204.827 268.358 204.567 268.358 204.295C268.358 204.023 268.466 203.763 268.658 203.571C268.85 203.379 269.111 203.271 269.382 203.271H292.934C293.206 203.271 293.466 203.379 293.658 203.571C293.85 203.763 293.958 204.023 293.958 204.295C293.958 204.567 293.85 204.827 293.658 205.019C293.466 205.211 293.206 205.319 292.934 205.319Z" fill="black"/>
<path d="M287.164 212.446H272.92C270.412 212.446 268.379 214.479 268.379 216.987C268.379 219.496 270.412 221.529 272.92 221.529H287.164C289.672 221.529 291.705 219.496 291.705 216.987C291.705 214.479 289.672 212.446 287.164 212.446Z" fill="#31326F"/>
<path d="M301.187 221.258C303.543 221.258 305.452 219.348 305.452 216.993C305.452 214.637 303.543 212.728 301.187 212.728C298.832 212.728 296.923 214.637 296.923 216.993C296.923 219.348 298.832 221.258 301.187 221.258Z" fill="#FB6D6D"/>
<path d="M247.904 280.455H212.228L226.835 261.603H263.975L247.904 280.455Z" fill="black"/>
<path d="M402.174 346.498C402.09 346.498 402.006 346.488 401.924 346.467C401.793 346.434 401.67 346.376 401.562 346.296C401.454 346.215 401.363 346.115 401.294 345.999C401.226 345.883 401.18 345.755 401.161 345.622C401.141 345.489 401.148 345.353 401.181 345.223L414.657 291.975C414.725 291.712 414.895 291.486 415.129 291.348C415.363 291.209 415.643 291.17 415.906 291.238C416.17 291.306 416.395 291.475 416.534 291.71C416.672 291.944 416.711 292.224 416.644 292.487L403.168 345.735C403.11 345.954 402.981 346.148 402.801 346.286C402.622 346.424 402.401 346.499 402.174 346.498Z" fill="black"/>
<path d="M328.165 455.795C328.119 455.8 328.072 455.8 328.027 455.795C327.893 455.777 327.764 455.733 327.648 455.666C327.531 455.598 327.429 455.508 327.347 455.401C327.265 455.294 327.206 455.172 327.171 455.042C327.136 454.912 327.128 454.776 327.146 454.643L340.934 352.852C340.952 352.717 340.996 352.588 341.064 352.47C341.132 352.353 341.222 352.25 341.33 352.168C341.438 352.085 341.561 352.025 341.692 351.99C341.823 351.955 341.959 351.946 342.094 351.964C342.228 351.981 342.358 352.025 342.475 352.093C342.593 352.161 342.696 352.252 342.778 352.359C342.861 352.467 342.921 352.59 342.956 352.721C342.991 352.852 343 352.989 342.982 353.123L329.179 454.909C329.145 455.154 329.024 455.379 328.838 455.542C328.651 455.705 328.412 455.794 328.165 455.795Z" fill="black"/>
<path d="M417.215 237.1L406.829 282.85C405.953 286.708 408.371 290.545 412.229 291.421L420.048 293.196C423.905 294.072 427.743 291.654 428.618 287.796L439.004 242.046C439.88 238.188 437.463 234.351 433.605 233.475L425.786 231.7C421.928 230.824 418.091 233.242 417.215 237.1Z" fill="#C7B8F8"/>
<path d="M402.896 455.795C402.648 455.797 402.407 455.709 402.219 455.547C402.03 455.385 401.907 455.16 401.872 454.914L387.48 353.118C387.442 352.846 387.513 352.571 387.679 352.352C387.844 352.133 388.089 351.989 388.361 351.951C388.632 351.913 388.908 351.984 389.127 352.149C389.346 352.314 389.49 352.56 389.528 352.831L403.915 454.627C403.953 454.896 403.883 455.169 403.72 455.386C403.556 455.603 403.314 455.746 403.045 455.784C402.996 455.793 402.946 455.797 402.896 455.795Z" fill="black"/>
<path d="M398.13 422.054H332.732C332.46 422.054 332.2 421.946 332.008 421.754C331.816 421.562 331.708 421.301 331.708 421.03C331.708 420.758 331.816 420.498 332.008 420.306C332.2 420.114 332.46 420.006 332.732 420.006H398.13C398.401 420.006 398.662 420.114 398.854 420.306C399.046 420.498 399.154 420.758 399.154 421.03C399.154 421.301 399.046 421.562 398.854 421.754C398.662 421.946 398.401 422.054 398.13 422.054Z" fill="black"/>
<path d="M397.223 328.952H335.241C331.333 328.952 328.165 332.12 328.165 336.028V345.899C328.165 349.807 331.333 352.975 335.241 352.975H397.223C401.131 352.975 404.299 349.807 404.299 345.899V336.028C404.299 332.12 401.131 328.952 397.223 328.952Z" fill="#C7B8F8"/>
<path d="M406.183 173.462C414.567 173.462 421.364 166.666 421.364 158.282C421.364 149.898 414.567 143.101 406.183 143.101C397.799 143.101 391.003 149.898 391.003 158.282C391.003 166.666 397.799 173.462 406.183 173.462Z" fill="black"/>
<path d="M434.057 164.953C445.311 164.953 454.434 155.83 454.434 144.575C454.434 133.321 445.311 124.198 434.057 124.198C422.802 124.198 413.679 133.321 413.679 144.575C413.679 155.83 422.802 164.953 434.057 164.953Z" fill="black"/>
<path d="M396.266 187.015C396.266 185.25 395.565 183.557 394.316 182.308C393.068 181.06 391.375 180.359 389.61 180.359C389.298 180.362 388.987 180.386 388.678 180.431L387.403 162.961L362.556 165.629C360.004 165.901 357.643 167.107 355.927 169.015C354.211 170.924 353.262 173.4 353.263 175.966V178.777C353.285 182.034 352.38 185.231 350.652 187.993L350.606 188.059V188.085C350.417 188.37 350.291 188.691 350.237 189.028C350.182 189.365 350.2 189.709 350.289 190.039C350.379 190.368 350.537 190.675 350.754 190.938C350.971 191.202 351.242 191.416 351.548 191.567L353.278 192.417V199.001C353.278 200.31 353.561 201.603 354.109 202.792C354.656 203.981 355.454 205.037 356.449 205.888C357.443 206.739 358.61 207.365 359.87 207.722C361.129 208.078 362.451 208.158 363.744 207.956L370.123 206.962L371.403 217.904L391.714 215.508L390.337 203.829H390.398L389.656 193.666C391.412 193.654 393.093 192.948 394.331 191.702C395.569 190.456 396.265 188.771 396.266 187.015Z" fill="white"/>
<path d="M370.507 219.041L369.222 208.176L363.897 209.006C362.458 209.23 360.988 209.141 359.587 208.743C358.186 208.345 356.887 207.649 355.781 206.702C354.674 205.754 353.786 204.579 353.178 203.256C352.569 201.933 352.254 200.493 352.254 199.037V193.082L351.092 192.514C350.659 192.303 350.276 192.003 349.968 191.633C349.66 191.263 349.434 190.832 349.305 190.369C349.177 189.895 349.149 189.4 349.224 188.915C349.299 188.429 349.475 187.966 349.74 187.553L349.797 187.466C351.427 184.867 352.28 181.855 352.254 178.787V175.976C352.249 173.157 353.288 170.436 355.172 168.339C357.056 166.241 359.65 164.917 362.453 164.62L388.356 161.84L389.636 179.345C391.548 179.384 393.378 180.135 394.766 181.452C396.154 182.768 397 184.555 397.14 186.463C397.28 188.371 396.702 190.263 395.52 191.767C394.339 193.272 392.638 194.281 390.752 194.598L391.484 204.689L392.866 216.404L370.507 219.041ZM371.019 205.811L372.309 216.767L390.588 214.612L389.216 202.974H389.318L388.565 192.657H389.661C391.155 192.653 392.586 192.056 393.639 190.997C394.692 189.938 395.282 188.504 395.278 187.01C395.274 185.516 394.676 184.085 393.617 183.032C392.558 181.979 391.124 181.389 389.63 181.393C389.366 181.396 389.103 181.416 388.842 181.455L387.756 181.608L386.456 164.103L362.658 166.663C360.358 166.906 358.229 167.993 356.683 169.714C355.137 171.435 354.283 173.668 354.287 175.982V178.792C354.313 182.251 353.348 185.644 351.507 188.572L351.456 188.654C351.343 188.825 351.268 189.017 351.236 189.22C351.203 189.422 351.214 189.628 351.266 189.826C351.317 190.011 351.406 190.184 351.529 190.331C351.652 190.479 351.805 190.598 351.978 190.681L354.287 191.807V199.032C354.287 200.192 354.539 201.339 355.024 202.393C355.509 203.447 356.217 204.384 357.098 205.139C357.979 205.894 359.014 206.449 360.13 206.766C361.246 207.084 362.418 207.156 363.564 206.978L371.019 205.811Z" fill="black"/>
<path d="M359.832 200.071C359.571 200.071 359.311 200.049 359.054 200.004C358.065 199.833 357.147 199.378 356.412 198.694C356.208 198.51 356.086 198.254 356.071 197.98C356.057 197.706 356.152 197.438 356.335 197.234C356.518 197.031 356.775 196.908 357.049 196.894C357.322 196.879 357.591 196.974 357.794 197.158C358.239 197.57 358.791 197.848 359.387 197.961C361.281 198.274 362.771 196.425 362.786 196.425C362.957 196.224 363.2 196.096 363.463 196.069C363.726 196.042 363.989 196.118 364.198 196.281C364.406 196.443 364.543 196.681 364.581 196.942C364.618 197.204 364.553 197.47 364.399 197.685C364.292 197.803 362.484 200.071 359.832 200.071Z" fill="black"/>
<path d="M364.025 186.191C364.916 186.191 365.638 185.469 365.638 184.578C365.638 183.687 364.916 182.965 364.025 182.965C363.135 182.965 362.412 183.687 362.412 184.578C362.412 185.469 363.135 186.191 364.025 186.191Z" fill="black"/>
<path d="M388.934 190.471C388.389 190.471 387.857 190.309 387.404 190.007C386.951 189.704 386.598 189.274 386.389 188.771C386.181 188.267 386.126 187.713 386.232 187.179C386.339 186.645 386.601 186.154 386.986 185.769C387.372 185.383 387.862 185.121 388.397 185.015C388.931 184.909 389.485 184.963 389.988 185.172C390.492 185.38 390.922 185.733 391.224 186.186C391.527 186.639 391.689 187.172 391.689 187.716C391.689 188.447 391.398 189.148 390.882 189.664C390.365 190.181 389.665 190.471 388.934 190.471ZM388.934 187.01C388.794 187.01 388.658 187.051 388.542 187.129C388.425 187.207 388.335 187.317 388.281 187.446C388.228 187.575 388.214 187.717 388.241 187.854C388.268 187.991 388.336 188.117 388.434 188.216C388.533 188.315 388.659 188.382 388.796 188.409C388.933 188.437 389.075 188.423 389.204 188.369C389.334 188.316 389.444 188.225 389.522 188.109C389.599 187.993 389.641 187.856 389.641 187.716C389.641 187.529 389.566 187.349 389.434 187.217C389.301 187.084 389.121 187.01 388.934 187.01Z" fill="black"/>
<path d="M372.448 215.139L403.608 213.726C408.269 213.466 412.844 215.057 416.336 218.155C420.827 222.251 424.339 229.772 419.449 243.443L412.568 256.268L373.656 251.558L366.933 264.634L342.511 267.425C341.907 267.491 340.038 264.276 339.777 263.871C337.833 260.909 336.567 257.554 336.07 254.046C334.79 244.052 342.214 236.024 347.964 228.717C354.067 220.925 362.177 215.605 372.448 215.139Z" fill="#31326F"/>
<path d="M387.265 189.191C387.025 189.196 386.79 189.116 386.603 188.965C386.416 188.814 386.288 188.602 386.241 188.367C386.102 187.678 386.146 186.964 386.369 186.298C386.592 185.631 386.985 185.035 387.511 184.568C388.019 184.143 388.621 183.845 389.268 183.698C389.914 183.551 390.586 183.56 391.228 183.723C391.358 183.759 391.479 183.82 391.585 183.903C391.691 183.986 391.78 184.089 391.846 184.206C391.913 184.323 391.955 184.452 391.972 184.586C391.988 184.72 391.978 184.855 391.942 184.985C391.906 185.115 391.845 185.236 391.762 185.342C391.679 185.448 391.576 185.537 391.459 185.603C391.342 185.67 391.213 185.712 391.079 185.729C390.945 185.745 390.81 185.735 390.68 185.699C390.366 185.623 390.039 185.62 389.724 185.69C389.409 185.76 389.114 185.902 388.862 186.104C388.607 186.333 388.416 186.625 388.308 186.951C388.2 187.277 388.18 187.626 388.248 187.962C388.275 188.094 388.276 188.23 388.25 188.362C388.224 188.494 388.173 188.62 388.099 188.732C388.025 188.844 387.929 188.941 387.818 189.016C387.706 189.091 387.581 189.144 387.449 189.171C387.388 189.181 387.327 189.188 387.265 189.191Z" fill="black"/>
<path d="M362.566 165.639C362.566 165.639 362.233 186.267 388.888 180.41L387.413 162.971L362.566 165.639Z" fill="black"/>
<path d="M364.399 193.538C360.17 193.538 356.719 189.549 356.719 184.639C356.719 179.729 360.165 175.741 364.399 175.741C368.633 175.741 372.079 179.734 372.079 184.639C372.079 189.544 368.633 193.538 364.399 193.538ZM364.399 177.789C361.296 177.789 358.767 180.861 358.767 184.639C358.767 188.418 361.291 191.49 364.399 191.49C367.507 191.49 370.031 188.418 370.031 184.639C370.031 180.861 367.512 177.789 364.399 177.789Z" fill="black"/>
<path d="M399.481 301.304H360.344V275.325H396.507C399.062 283.733 400.076 292.534 399.502 301.304H399.481Z" fill="black"/>
<path d="M300.814 280.455H280.651C279.528 280.457 278.42 280.197 277.414 279.697C276.408 279.197 275.533 278.469 274.857 277.572C274.181 276.675 273.723 275.633 273.519 274.529C273.315 273.424 273.371 272.287 273.683 271.208C274.105 269.758 274.987 268.484 276.196 267.579C277.405 266.673 278.875 266.184 280.385 266.186H301.075C302.531 266.185 303.952 266.64 305.136 267.488C306.321 268.335 307.21 269.533 307.68 270.911C308.048 272 308.151 273.161 307.98 274.298C307.81 275.435 307.37 276.514 306.699 277.448C306.028 278.381 305.144 279.14 304.12 279.663C303.097 280.186 301.963 280.458 300.814 280.455Z" fill="#F3EAD6"/>
<path d="M373.052 251.558L366.427 264.634L328.267 268.433C326.84 268.576 325.403 268.3 324.13 267.64L307.608 259.059C307.608 259.059 301.838 255.828 293.497 259.31L279.448 265.684C278.858 265.939 278.363 266.372 278.032 266.923C277.702 267.475 277.552 268.115 277.605 268.756V268.787C277.64 269.049 277.731 269.301 277.871 269.525C278.012 269.749 278.199 269.94 278.419 270.086C278.64 270.231 278.89 270.328 279.151 270.369C279.413 270.41 279.68 270.394 279.934 270.323L294.808 266.15L287.84 272.453C286.814 273.372 286.098 274.586 285.792 275.929C285.321 278.115 285.889 281.08 291.552 282.431C291.552 282.431 294.158 286.809 298.592 284.479C298.617 284.479 299.247 285.038 299.298 285.073C299.99 285.607 300.731 286.075 301.51 286.471C303.95 287.684 306.621 288.363 309.344 288.463C311.033 288.545 312.62 287.807 312.841 285.975L314.264 286.123C318.701 286.577 323.12 287.229 327.52 288.079L361.173 294.586C370.389 295.892 376.984 293.921 380.348 292.59C390.178 288.703 396.548 281.791 401.657 273.011L411.385 256.263L373.052 251.558Z" fill="white"/>
<path d="M367.189 296.051C365.134 296.046 363.08 295.897 361.045 295.605H360.994L327.32 289.072C322.978 288.232 318.549 287.582 314.156 287.126L313.603 287.07C312.979 288.642 311.351 289.579 309.287 289.477C306.418 289.367 303.605 288.65 301.034 287.372C300.201 286.945 299.408 286.444 298.663 285.877L298.464 285.703L298.428 285.672C294.844 287.173 292.089 285.002 290.907 283.312C284.522 281.638 284.322 277.839 284.763 275.699C285.115 274.141 285.95 272.735 287.148 271.679L290.896 268.29L280.175 271.285C279.781 271.396 279.368 271.421 278.964 271.359C278.559 271.297 278.173 271.149 277.83 270.926C277.487 270.702 277.196 270.408 276.976 270.063C276.756 269.718 276.613 269.33 276.555 268.925C276.463 268.063 276.647 267.194 277.081 266.443C277.514 265.692 278.174 265.099 278.967 264.747L293.072 258.362C301.802 254.717 307.854 258.009 308.11 258.152L324.581 266.713C325.682 267.288 326.929 267.526 328.165 267.399L365.761 263.656L372.458 250.442L413.08 255.439L402.548 273.533C396.67 283.624 389.748 289.983 380.732 293.547C376.417 295.23 371.821 296.08 367.189 296.051ZM361.337 293.578C368.044 294.525 374.316 293.875 379.969 291.642C388.642 288.212 395.058 282.309 400.766 272.504L409.737 257.093L373.656 252.664L367.102 265.597L328.385 269.452C326.76 269.615 325.123 269.3 323.675 268.546L307.173 259.97C306.927 259.837 301.664 257.021 293.927 260.257L279.868 266.616C279.477 266.779 279.146 267.06 278.921 267.42C278.697 267.779 278.589 268.2 278.613 268.623C278.628 268.742 278.669 268.856 278.731 268.958C278.794 269.06 278.878 269.148 278.978 269.215C279.077 269.282 279.19 269.326 279.308 269.346C279.426 269.366 279.547 269.36 279.663 269.329L298.73 263.984L288.546 273.2C287.666 273.967 287.05 274.992 286.785 276.129C286.227 278.714 287.906 280.496 291.782 281.418L292.202 281.52L292.422 281.894C292.642 282.252 294.665 285.37 298.11 283.558C298.755 283.22 299.18 283.599 299.826 284.172L299.943 284.28C300.587 284.765 301.272 285.191 301.991 285.555C304.303 286.695 306.829 287.334 309.405 287.429C310.076 287.459 311.653 287.377 311.832 285.841L311.95 284.817L314.382 285.068C318.831 285.524 323.321 286.184 327.724 287.039L361.337 293.578Z" fill="black"/>
<path d="M314.868 449.154H271.778C270.641 449.154 269.72 450.075 269.72 451.212V453.009C269.72 454.146 270.641 455.067 271.778 455.067H314.868C316.005 455.067 316.926 454.146 316.926 453.009V451.212C316.926 450.075 316.005 449.154 314.868 449.154Z" fill="black"/>
<path d="M264.81 438.663L284.614 435.13H313.583V445.811C313.583 446.787 313.195 447.723 312.505 448.414C311.814 449.104 310.878 449.492 309.902 449.492H271.768L264.81 438.663Z" fill="white"/>
<path d="M309.902 450.516H271.22L263.115 437.926L284.619 434.106H314.612V445.811C314.611 447.059 314.114 448.256 313.231 449.138C312.348 450.02 311.15 450.516 309.902 450.516ZM272.336 448.468H309.902C310.606 448.466 311.281 448.186 311.779 447.688C312.277 447.19 312.558 446.515 312.559 445.811V436.154H284.706L266.5 439.4L272.336 448.468Z" fill="black"/>
<path d="M240.244 414.932L228.34 406.228C226.505 404.89 224.951 403.203 223.768 401.264C222.584 399.325 221.794 397.172 221.443 394.928C221.092 392.684 221.186 390.393 221.72 388.185C222.254 385.977 223.218 383.897 224.557 382.061L276.422 310.934C278.385 308.242 280.858 305.963 283.702 304.227C286.546 302.491 289.704 301.332 292.995 300.816C296.287 300.301 299.648 300.439 302.886 301.223C306.124 302.007 309.176 303.421 311.868 305.384C314.56 307.347 316.84 309.821 318.576 312.664C320.312 315.508 321.471 318.666 321.986 321.957C322.501 325.249 322.363 328.61 321.579 331.848C320.796 335.086 319.382 338.139 317.418 340.83L266.382 410.841C263.458 414.849 259.062 417.532 254.16 418.299C249.259 419.066 244.253 417.855 240.244 414.932Z" fill="black"/>
<path d="M364 337.712H273.376V319.905C273.377 313.053 276.1 306.483 280.945 301.639C285.789 296.795 292.36 294.074 299.211 294.074H399.481V302.23C399.481 311.641 395.743 320.666 389.089 327.32C382.435 333.974 373.41 337.712 364 337.712Z" fill="black"/>
<path d="M305.427 437.634H290.712C286.124 437.634 281.725 435.812 278.48 432.569C275.236 429.325 273.413 424.926 273.411 420.339V335.526H324.151V418.926C324.151 421.384 323.667 423.818 322.727 426.089C321.786 428.36 320.406 430.424 318.667 432.161C316.928 433.899 314.864 435.277 312.592 436.216C310.32 437.155 307.885 437.637 305.427 437.634Z" fill="black"/>
<path d="M246.327 415.29C246.14 415.29 245.956 415.238 245.796 415.14C245.637 415.042 245.507 414.903 245.421 414.737C245.334 414.57 245.296 414.384 245.308 414.197C245.321 414.01 245.385 413.83 245.492 413.677L272.557 375.277C272.713 375.055 272.952 374.905 273.22 374.859C273.488 374.813 273.763 374.875 273.985 375.032C274.207 375.188 274.358 375.427 274.404 375.695C274.45 375.963 274.388 376.238 274.231 376.46L247.166 414.86C247.071 414.994 246.945 415.103 246.799 415.178C246.653 415.252 246.491 415.291 246.327 415.29Z" fill="white"/>
<path d="M308.069 438.469C307.797 438.469 307.537 438.361 307.345 438.169C307.153 437.977 307.045 437.716 307.045 437.445V333.416C307.048 329.564 308.579 325.871 311.302 323.147C314.025 320.422 317.718 318.89 321.57 318.886H361.394C365.577 318.882 369.589 317.218 372.547 314.26C375.506 311.301 377.169 307.29 377.173 303.106V294.074C377.173 293.803 377.281 293.542 377.473 293.35C377.665 293.158 377.926 293.05 378.197 293.05C378.469 293.05 378.73 293.158 378.922 293.35C379.114 293.542 379.221 293.803 379.221 294.074V303.106C379.216 307.833 377.336 312.364 373.994 315.706C370.652 319.048 366.12 320.928 361.394 320.934H321.57C318.261 320.938 315.089 322.254 312.75 324.595C310.411 326.935 309.096 330.107 309.093 333.416V437.445C309.093 437.716 308.985 437.977 308.793 438.169C308.601 438.361 308.34 438.469 308.069 438.469Z" fill="white"/>
<path d="M291.541 283.44C291.321 283.439 291.106 283.366 290.93 283.234C290.754 283.101 290.625 282.915 290.564 282.703C288.188 274.567 296.907 269.539 296.999 269.488C297.116 269.421 297.245 269.377 297.379 269.36C297.513 269.342 297.649 269.352 297.779 269.387C297.91 269.422 298.032 269.483 298.138 269.565C298.245 269.647 298.335 269.75 298.402 269.867C298.469 269.984 298.513 270.113 298.53 270.247C298.548 270.381 298.539 270.516 298.503 270.647C298.468 270.777 298.408 270.899 298.325 271.006C298.243 271.113 298.14 271.202 298.023 271.27C296.688 272.093 295.49 273.119 294.47 274.311C292.422 276.779 291.751 279.405 292.55 282.129C292.626 282.39 292.595 282.67 292.465 282.908C292.334 283.146 292.114 283.323 291.854 283.399C291.752 283.427 291.647 283.441 291.541 283.44Z" fill="black"/>
<path d="M298.587 285.488C298.42 285.487 298.255 285.446 298.108 285.368C297.961 285.289 297.835 285.176 297.742 285.037C297.188 284.286 296.805 283.424 296.617 282.51C296.43 281.596 296.443 280.652 296.656 279.743C297.68 275.432 302.887 272.499 303.113 272.376C303.23 272.301 303.362 272.251 303.5 272.229C303.638 272.206 303.779 272.213 303.914 272.247C304.049 272.281 304.176 272.343 304.287 272.428C304.398 272.513 304.49 272.62 304.557 272.742C304.625 272.864 304.667 272.999 304.681 273.138C304.695 273.276 304.681 273.417 304.638 273.55C304.596 273.683 304.527 273.806 304.435 273.911C304.344 274.017 304.232 274.102 304.106 274.163C304.024 274.214 299.457 276.804 298.648 280.219C298.503 280.851 298.498 281.506 298.634 282.139C298.769 282.772 299.041 283.368 299.431 283.885C299.537 284.039 299.598 284.219 299.609 284.405C299.619 284.591 299.579 284.777 299.492 284.941C299.405 285.106 299.275 285.244 299.115 285.341C298.956 285.437 298.773 285.488 298.587 285.488Z" fill="black"/>
<path d="M312.836 287.024C312.584 287.026 312.341 286.935 312.152 286.769C311.963 286.603 311.842 286.373 311.812 286.123C311.612 284.485 308.279 282.539 306.692 281.868L305.278 281.264L310.183 276.518C310.381 276.344 310.638 276.252 310.901 276.263C311.164 276.273 311.413 276.384 311.596 276.573C311.78 276.762 311.883 277.015 311.885 277.278C311.887 277.541 311.787 277.795 311.607 277.987L308.857 280.65C310.654 281.612 313.552 283.517 313.839 285.877C313.871 286.146 313.795 286.416 313.628 286.629C313.461 286.842 313.217 286.981 312.948 287.014L312.836 287.024Z" fill="black"/>
<path d="M277.354 455.073H252.967C252.07 455.073 251.209 454.716 250.574 454.082C249.94 453.447 249.583 452.586 249.583 451.688C249.584 448.006 251.048 444.475 253.652 441.871C256.255 439.268 259.786 437.804 263.469 437.803C267.151 437.803 270.683 439.266 273.287 441.87C275.891 444.474 277.354 448.006 277.354 451.688V455.073Z" fill="black"/>
<path d="M371.055 184.199C370.783 184.214 370.517 184.12 370.314 183.939C370.112 183.757 369.99 183.503 369.975 183.231C369.96 182.96 370.053 182.693 370.235 182.491C370.416 182.288 370.671 182.166 370.942 182.151L387.091 180.364C387.362 180.334 387.635 180.413 387.848 180.584C388.061 180.755 388.198 181.004 388.228 181.275C388.257 181.547 388.178 181.819 388.007 182.033C387.836 182.246 387.588 182.382 387.316 182.412L371.168 184.194L371.055 184.199Z" fill="black"/>
<path d="M370.246 205.939L370.968 212.083L381.659 205.032C381.734 204.984 381.79 204.911 381.818 204.827C381.846 204.742 381.844 204.65 381.812 204.566C381.78 204.483 381.72 204.413 381.643 204.368C381.566 204.323 381.475 204.307 381.387 204.321L370.246 205.939Z" fill="black"/>
<path d="M373.052 252.582C372.911 252.583 372.772 252.555 372.642 252.5C372.397 252.388 372.205 252.184 372.109 251.932C372.014 251.68 372.021 251.4 372.13 251.153L376.329 241.487C376.381 241.362 376.457 241.248 376.554 241.153C376.65 241.057 376.765 240.982 376.891 240.931C377.017 240.881 377.151 240.855 377.287 240.857C377.422 240.859 377.556 240.887 377.681 240.941C377.805 240.995 377.918 241.073 378.012 241.171C378.106 241.269 378.18 241.384 378.229 241.511C378.278 241.637 378.301 241.772 378.297 241.908C378.294 242.044 378.263 242.177 378.208 242.301L374.004 251.967C373.924 252.152 373.79 252.309 373.621 252.418C373.451 252.528 373.253 252.585 373.052 252.582Z" fill="black"/>
<path d="M273.703 400.232C273.432 400.232 273.171 400.124 272.979 399.932C272.787 399.74 272.679 399.48 272.679 399.208V315.896C272.679 315.624 272.787 315.364 272.979 315.171C273.171 314.979 273.432 314.872 273.703 314.872C273.975 314.872 274.235 314.979 274.427 315.171C274.619 315.364 274.727 315.624 274.727 315.896V399.208C274.727 399.48 274.619 399.74 274.427 399.932C274.235 400.124 273.975 400.232 273.703 400.232Z" fill="white"/>
<path d="M533.077 182.95H439.95C433.695 182.95 428.624 188.02 428.624 194.275V251.148C428.624 257.403 433.695 262.474 439.95 262.474H533.077C539.332 262.474 544.403 257.403 544.403 251.148V194.275C544.403 188.02 539.332 182.95 533.077 182.95Z" fill="white"/>
<path d="M533.077 263.498H439.95C436.676 263.494 433.537 262.191 431.222 259.876C428.907 257.561 427.604 254.422 427.6 251.148V194.275C427.604 191.001 428.907 187.862 431.222 185.547C433.537 183.232 436.676 181.93 439.95 181.926H533.077C536.351 181.93 539.49 183.232 541.805 185.547C544.12 187.862 545.423 191.001 545.427 194.275V251.148C545.423 254.422 544.12 257.561 541.805 259.876C539.49 262.191 536.351 263.494 533.077 263.498ZM439.95 183.974C437.218 183.976 434.6 185.063 432.669 186.994C430.737 188.925 429.651 191.544 429.648 194.275V251.148C429.651 253.879 430.737 256.498 432.669 258.429C434.6 260.361 437.218 261.447 439.95 261.45H533.077C535.808 261.446 538.426 260.359 540.357 258.428C542.288 256.497 543.375 253.879 543.379 251.148V194.275C543.376 191.544 542.29 188.925 540.359 186.994C538.427 185.063 535.809 183.976 533.077 183.974H439.95Z" fill="black"/>
<path d="M491.754 212.026C493.663 212.026 495.21 210.479 495.21 208.57C495.21 206.662 493.663 205.114 491.754 205.114C489.845 205.114 488.298 206.662 488.298 208.57C488.298 210.479 489.845 212.026 491.754 212.026Z" fill="#31326F"/>
<path d="M503.724 212.026C505.633 212.026 507.18 210.479 507.18 208.57C507.18 206.662 505.633 205.114 503.724 205.114C501.816 205.114 500.268 206.662 500.268 208.57C500.268 210.479 501.816 212.026 503.724 212.026Z" fill="#31326F"/>
<path d="M515.7 212.026C517.609 212.026 519.156 210.479 519.156 208.57C519.156 206.662 517.609 205.114 515.7 205.114C513.791 205.114 512.244 206.662 512.244 208.57C512.244 210.479 513.791 212.026 515.7 212.026Z" fill="#31326F"/>
<path d="M527.676 212.026C529.585 212.026 531.132 210.479 531.132 208.57C531.132 206.662 529.585 205.114 527.676 205.114C525.767 205.114 524.22 206.662 524.22 208.57C524.22 210.479 525.767 212.026 527.676 212.026Z" fill="#31326F"/>
<path d="M458.351 225.451C462.058 225.451 465.063 222.446 465.063 218.738C465.063 215.031 462.058 212.026 458.351 212.026C454.644 212.026 451.639 215.031 451.639 218.738C451.639 222.446 454.644 225.451 458.351 225.451Z" fill="#6DC8C2"/>
<path d="M457.757 228.881C455.52 228.866 453.316 229.419 451.352 230.488C449.387 231.558 447.726 233.108 446.524 234.995C449.754 237.55 453.723 238.994 457.84 239.109C461.957 239.224 466.001 238.006 469.369 235.635C468.217 233.571 466.531 231.856 464.488 230.668C462.445 229.48 460.12 228.863 457.757 228.881Z" fill="#6DC8C2"/>
<path d="M531.132 222.512H487.612C487.34 222.512 487.08 222.404 486.888 222.212C486.696 222.02 486.588 221.76 486.588 221.488C486.588 221.217 486.696 220.956 486.888 220.764C487.08 220.572 487.34 220.464 487.612 220.464H531.132C531.403 220.464 531.664 220.572 531.856 220.764C532.048 220.956 532.156 221.217 532.156 221.488C532.156 221.76 532.048 222.02 531.856 222.212C531.664 222.404 531.403 222.512 531.132 222.512Z" fill="black"/>
<path d="M531.132 230.55H487.612C487.34 230.55 487.08 230.443 486.888 230.251C486.696 230.058 486.588 229.798 486.588 229.526C486.588 229.255 486.696 228.994 486.888 228.802C487.08 228.61 487.34 228.502 487.612 228.502H531.132C531.403 228.502 531.664 228.61 531.856 228.802C532.048 228.994 532.156 229.255 532.156 229.526C532.156 229.798 532.048 230.058 531.856 230.251C531.664 230.443 531.403 230.55 531.132 230.55Z" fill="black"/>
<path d="M514.968 238.599H487.632C487.361 238.599 487.1 238.491 486.908 238.299C486.716 238.107 486.608 237.847 486.608 237.575C486.608 237.303 486.716 237.043 486.908 236.851C487.1 236.659 487.361 236.551 487.632 236.551H514.968C515.24 236.551 515.5 236.659 515.692 236.851C515.884 237.043 515.992 237.303 515.992 237.575C515.992 237.847 515.884 238.107 515.692 238.299C515.5 238.491 515.24 238.599 514.968 238.599Z" fill="black"/>
<path d="M457.947 239.592C454.375 239.592 450.884 238.533 447.914 236.549C444.944 234.565 442.63 231.744 441.263 228.445C439.896 225.145 439.539 221.514 440.235 218.011C440.932 214.508 442.652 211.29 445.177 208.765C447.703 206.239 450.921 204.52 454.424 203.823C457.927 203.126 461.557 203.484 464.857 204.85C468.157 206.217 470.977 208.532 472.961 211.501C474.946 214.471 476.005 217.962 476.005 221.534C475.999 226.322 474.095 230.912 470.71 234.297C467.324 237.683 462.734 239.587 457.947 239.592ZM457.947 205.529C454.78 205.529 451.684 206.468 449.051 208.228C446.418 209.987 444.366 212.488 443.155 215.414C441.943 218.339 441.626 221.559 442.244 224.665C442.862 227.77 444.388 230.623 446.627 232.862C448.867 235.101 451.72 236.625 454.826 237.242C457.932 237.86 461.152 237.542 464.077 236.329C467.002 235.117 469.502 233.064 471.261 230.43C473.02 227.797 473.958 224.701 473.957 221.534C473.951 217.29 472.263 213.221 469.261 210.221C466.26 207.22 462.191 205.533 457.947 205.529Z" fill="black"/>
<path d="M479.502 294.074H445.72C441.433 294.074 437.958 297.549 437.958 301.836V335.618C437.958 339.905 441.433 343.38 445.72 343.38H479.502C483.789 343.38 487.264 339.905 487.264 335.618V301.836C487.264 297.549 483.789 294.074 479.502 294.074Z" fill="white"/>
<path d="M479.502 344.404H445.71C443.38 344.403 441.145 343.477 439.497 341.829C437.849 340.182 436.921 337.948 436.919 335.618V301.826C436.921 299.496 437.849 297.262 439.497 295.615C441.145 293.967 443.38 293.041 445.71 293.04H479.502C481.832 293.041 484.066 293.967 485.715 295.615C487.363 297.262 488.29 299.496 488.293 301.826V335.618C488.29 337.948 487.363 340.182 485.715 341.829C484.066 343.477 481.832 344.403 479.502 344.404ZM445.71 295.098C443.923 295.1 442.209 295.81 440.945 297.073C439.681 298.336 438.969 300.049 438.967 301.836V335.628C438.969 337.415 439.681 339.128 440.945 340.391C442.209 341.655 443.923 342.365 445.71 342.366H479.502C481.289 342.365 483.002 341.655 484.266 340.391C485.531 339.128 486.242 337.415 486.245 335.628V301.836C486.242 300.049 485.531 298.336 484.266 297.073C483.002 295.81 481.289 295.1 479.502 295.098H445.71Z" fill="black"/>
<path d="M454.726 330.396V318.809C454.722 318.601 454.774 318.396 454.878 318.215C454.982 318.035 455.133 317.886 455.315 317.785C456.933 316.879 461.382 313.863 461.899 307.755C462.089 305.548 463.056 304.509 464.075 304.258C465.253 303.971 466.466 305.2 466.635 305.364C469.405 308.252 466.512 314.872 466.246 315.466L469.907 315.368C470.623 315.35 471.337 315.473 472.006 315.731C472.674 315.988 473.286 316.375 473.805 316.869C474.325 317.363 474.741 317.955 475.032 318.61C475.322 319.265 475.481 319.972 475.498 320.688L475.626 325.931C475.644 326.658 475.516 327.38 475.25 328.057C474.984 328.733 474.586 329.349 474.078 329.869C473.571 330.389 472.964 330.803 472.294 331.085C471.624 331.367 470.905 331.512 470.178 331.512H455.873C455.574 331.512 455.287 331.395 455.073 331.187C454.858 330.978 454.734 330.694 454.726 330.396Z" fill="#6DC8C2"/>
<path d="M454.854 316.305H451.434C450.738 316.305 450.174 316.869 450.174 317.565V331.286C450.174 331.982 450.738 332.546 451.434 332.546H454.854C455.55 332.546 456.114 331.982 456.114 331.286V317.565C456.114 316.869 455.55 316.305 454.854 316.305Z" fill="#31326F"/>
<path d="M166.224 163.279C173.008 163.279 178.507 157.779 178.507 150.996C178.507 144.212 173.008 138.713 166.224 138.713C159.441 138.713 153.941 144.212 153.941 150.996C153.941 157.779 159.441 163.279 166.224 163.279Z" fill="#FFC1EB"/>
<path d="M166.909 186.611C173.092 174.869 171.192 161.71 162.665 157.22C154.138 152.73 142.214 158.609 136.031 170.351C129.848 182.093 131.748 195.252 140.275 199.742C148.802 204.232 160.726 198.353 166.909 186.611Z" fill="#FFC1EB"/>
<path d="M164.155 230.095C166.665 212.347 157.006 196.305 142.58 194.265C128.155 192.225 114.426 204.959 111.916 222.708C109.406 240.456 119.066 256.498 133.491 258.538C147.917 260.578 161.645 247.843 164.155 230.095Z" fill="#FFC1EB"/>
<path d="M72.9533 202.605C79.2251 202.605 84.3094 197.521 84.3094 191.249C84.3094 184.977 79.2251 179.893 72.9533 179.893C66.6814 179.893 61.5971 184.977 61.5971 191.249C61.5971 197.521 66.6814 202.605 72.9533 202.605Z" fill="#FFC1EB"/>
<path d="M85.1586 237.459C93.7129 235.456 98.5353 224.812 95.9299 213.687C93.3245 202.561 84.2778 195.166 75.7236 197.169C67.1693 199.172 62.3469 209.815 64.9523 220.941C67.5577 232.067 76.6044 239.462 85.1586 237.459Z" fill="#FFC1EB"/>
<path d="M95.8633 287.547C108.284 285.408 116.219 271.283 113.587 255.998C110.955 240.713 98.7525 230.056 86.3322 232.195C73.912 234.333 65.977 248.458 68.6089 263.743C71.2408 279.028 83.443 289.685 95.8633 287.547Z" fill="#FFC1EB"/>
<path d="M110.601 338.152C110.35 338.154 110.107 338.064 109.918 337.899C109.73 337.734 109.608 337.505 109.577 337.256C103.53 289.287 86.8694 247.6 86.7005 247.206C86.6454 247.08 86.6161 246.945 86.6143 246.808C86.6126 246.67 86.6384 246.534 86.6903 246.407C86.7422 246.28 86.819 246.165 86.9163 246.068C87.0136 245.972 87.1293 245.895 87.2566 245.844C87.3839 245.793 87.5202 245.768 87.6574 245.771C87.7945 245.773 87.9298 245.803 88.0551 245.859C88.1804 245.915 88.2932 245.995 88.3868 246.096C88.4804 246.196 88.5529 246.314 88.6 246.443C88.769 246.858 105.527 288.76 111.64 337C111.657 337.134 111.648 337.27 111.612 337.4C111.577 337.531 111.516 337.652 111.433 337.759C111.35 337.866 111.247 337.955 111.13 338.021C111.012 338.088 110.883 338.131 110.749 338.147L110.601 338.152Z" fill="black"/>
<path d="M122.971 338.68C122.699 338.68 122.439 338.572 122.246 338.38C122.054 338.188 121.947 337.927 121.947 337.656C121.819 289.528 128.603 250.938 134.311 227.018C140.507 201.075 146.84 186.298 146.891 186.16C147.002 185.915 147.204 185.722 147.455 185.625C147.706 185.528 147.985 185.533 148.232 185.64C148.479 185.747 148.674 185.947 148.775 186.197C148.875 186.446 148.874 186.726 148.77 186.974C148.709 187.117 142.442 201.771 136.288 227.565C130.61 251.363 123.867 289.789 124 337.645C124 337.917 123.892 338.177 123.7 338.37C123.508 338.562 123.247 338.669 122.976 338.669L122.971 338.68Z" fill="black"/>
<path d="M128.853 337.656H103.028C95.2322 337.656 88.9123 343.976 88.9123 351.772V449.359C88.9123 457.155 95.2322 463.475 103.028 463.475H128.853C136.649 463.475 142.969 457.155 142.969 449.359V351.772C142.969 343.976 136.649 337.656 128.853 337.656Z" fill="#6DC8C2"/>
<path d="M91.544 456.752C91.3436 456.752 91.1475 456.694 90.98 456.584C90.8125 456.474 90.6811 456.317 90.6019 456.133C90.4927 455.886 90.4852 455.606 90.5811 455.354C90.6769 455.102 90.8684 454.898 91.1139 454.786C99.1256 451.316 107.747 449.471 116.477 449.359C125.207 449.246 133.872 450.868 141.971 454.131C142.214 454.238 142.407 454.435 142.508 454.681C142.608 454.928 142.609 455.203 142.51 455.45C142.411 455.697 142.219 455.895 141.976 456.004C141.733 456.112 141.458 456.122 141.208 456.03C133.36 452.869 124.962 451.298 116.502 451.407C108.042 451.516 99.6871 453.303 91.9229 456.665C91.8033 456.718 91.6747 456.748 91.544 456.752Z" fill="black"/>
<path d="M135.474 358.53H97.176C96.9044 358.53 96.644 358.422 96.4519 358.23C96.2599 358.038 96.152 357.778 96.152 357.506C96.152 357.234 96.2599 356.974 96.4519 356.782C96.644 356.59 96.9044 356.482 97.176 356.482H135.474C135.745 356.482 136.006 356.59 136.198 356.782C136.39 356.974 136.498 357.234 136.498 357.506C136.498 357.778 136.39 358.038 136.198 358.23C136.006 358.422 135.745 358.53 135.474 358.53Z" fill="black"/>
<path d="M125.648 451.402C125.377 451.402 125.116 451.294 124.924 451.102C124.732 450.91 124.624 450.649 124.624 450.378V357.808C124.624 357.536 124.732 357.276 124.924 357.084C125.116 356.892 125.377 356.784 125.648 356.784C125.92 356.784 126.18 356.892 126.372 357.084C126.564 357.276 126.672 357.536 126.672 357.808V450.378C126.672 450.649 126.564 450.91 126.372 451.102C126.18 451.294 125.92 451.402 125.648 451.402Z" fill="black"/>
<path d="M106.976 451.402C106.704 451.402 106.444 451.294 106.252 451.102C106.06 450.91 105.952 450.649 105.952 450.378V357.808C105.952 357.536 106.06 357.276 106.252 357.084C106.444 356.892 106.704 356.784 106.976 356.784C107.247 356.784 107.508 356.892 107.7 357.084C107.892 357.276 108 357.536 108 357.808V450.378C108 450.649 107.892 450.91 107.7 451.102C107.508 451.294 107.247 451.402 106.976 451.402Z" fill="black"/>
</svg>
