<svg width="709" height="550" viewBox="0 0 709 550" fill="none" xmlns="http://www.w3.org/2000/svg">
<g clip-path="url(#clip0_14_587)">
<path d="M639.856 550C652.311 550.027 664.471 546.213 674.681 539.077C684.892 531.942 692.656 521.831 696.916 510.123C715.603 458.267 721.315 372.889 648.309 268.77C567.717 153.831 574.064 43.2444 460.66 31.0751C283.01 12.0112 171.912 158.896 109.416 228.001C8.92304 339.125 10.0594 417.062 0.405846 493.284C-0.482461 500.387 0.149955 507.597 2.26109 514.435C4.37222 521.274 7.91374 527.586 12.6504 532.95C17.3871 538.314 23.2105 542.609 29.7337 545.548C36.257 548.488 43.3309 550.006 50.4854 550H639.856Z" fill="#F3F5FD"/>
<path d="M149.093 183.869C149.093 183.869 155.459 179.41 151.638 161.044L165.39 156.687C165.39 156.687 165.87 173.523 173.646 177.923L149.093 183.869Z" fill="#E98862"/>
<path opacity="0.15" d="M170.33 174.798L157.528 167.299L166.7 166.065C167.356 169.177 168.587 172.139 170.33 174.798Z" fill="black"/>
<path d="M142.76 154.834C144.432 160.34 148.164 165.295 153.354 166.499C159.032 167.976 164.985 168.041 170.694 166.689C185.946 163.514 178.556 128.841 170.397 122.94C162.238 117.039 141.302 124.012 140.101 135.724C139.48 141.781 141.168 149.589 142.76 154.834Z" fill="#E98862"/>
<path d="M175.629 123.52C175.079 122.847 174.361 122.331 173.547 122.024C166.244 119.15 153.403 119.434 147.536 122.013C140.732 125.003 132.607 132.028 136.66 146.115C136.831 146.708 137.006 147.278 137.184 147.837C134.905 147.733 132.642 148.258 130.641 149.355C128.641 150.452 126.981 152.079 125.844 154.057C124.706 156.035 124.134 158.288 124.191 160.569C124.248 162.85 124.932 165.072 126.167 166.991C127.402 168.909 129.141 170.451 131.194 171.446C133.246 172.442 135.533 172.853 137.804 172.635C140.075 172.417 142.242 171.578 144.067 170.21C145.893 168.842 147.307 166.997 148.155 164.879C149.316 165.654 150.547 166.318 151.834 166.86C152.739 167.256 152.893 166.823 153.069 165.85C153.686 162.453 153.085 149.392 151.122 140.094L167.655 137.461L169.528 128.868L172.919 136.809L178.573 136.107C178.775 131.556 178.931 126.401 175.629 123.52Z" fill="#0F1011"/>
<path d="M164.106 147.773C164.817 147.773 165.393 147.197 165.393 146.486C165.393 145.775 164.817 145.199 164.106 145.199C163.396 145.199 162.82 145.775 162.82 146.486C162.82 147.197 163.396 147.773 164.106 147.773Z" fill="#0F1011"/>
<path d="M174.075 145.698C174.785 145.698 175.361 145.122 175.361 144.412C175.361 143.701 174.785 143.125 174.075 143.125C173.364 143.125 172.789 143.701 172.789 144.412C172.789 145.122 173.364 145.698 174.075 145.698Z" fill="#0F1011"/>
<path d="M172.489 141.193L175.876 140.815" stroke="#0F1011" stroke-width="1.362" stroke-miterlimit="10" stroke-linecap="round"/>
<path d="M160.99 143.914L164.225 142.697" stroke="#0F1011" stroke-width="1.362" stroke-miterlimit="10" stroke-linecap="round"/>
<path d="M157.853 150.435C158.008 151.14 158.022 151.869 157.894 152.58C157.766 153.29 157.498 153.969 157.106 154.575C156.714 155.181 156.205 155.704 155.61 156.112C155.014 156.52 154.344 156.806 153.637 156.953C152.93 157.1 152.202 157.105 151.493 156.968C150.784 156.831 150.11 156.554 149.508 156.155C148.907 155.755 148.391 155.24 147.991 154.639C147.59 154.038 147.313 153.364 147.175 152.655C147.016 151.953 147.001 151.226 147.129 150.518C147.257 149.809 147.526 149.134 147.921 148.532C148.315 147.93 148.827 147.413 149.425 147.013C150.024 146.613 150.696 146.337 151.403 146.203C155.244 145.601 157.239 147.485 157.853 150.435Z" fill="#E98862"/>
<g opacity="0.15">
<path d="M170.651 152.867C170.545 152.88 170.439 152.855 170.351 152.796C170.262 152.737 170.198 152.648 170.17 152.546C170.141 152.444 170.15 152.335 170.195 152.239C170.24 152.143 170.318 152.066 170.414 152.022L172.912 150.902L170.595 147.083C170.537 146.982 170.521 146.863 170.55 146.751C170.579 146.639 170.651 146.543 170.75 146.483C170.849 146.423 170.968 146.404 171.08 146.43C171.193 146.456 171.291 146.525 171.354 146.623L173.928 150.874C173.961 150.928 173.981 150.988 173.989 151.051C173.997 151.113 173.991 151.177 173.972 151.237C173.953 151.297 173.922 151.352 173.88 151.399C173.839 151.446 173.788 151.484 173.73 151.509L170.774 152.835C170.735 152.851 170.693 152.863 170.651 152.867Z" fill="black"/>
</g>
<path d="M165.943 156.472C165.943 156.472 170.716 156.383 173.877 154.82C173.877 154.82 174.232 157.929 170.544 158.696C166.856 159.464 165.943 156.472 165.943 156.472Z" fill="#F8FCFF"/>
<path d="M203.904 88.4249L213.764 84.7765C213.764 84.7765 215.007 71.227 203.635 64.0624C199.865 61.6884 197.115 65.9088 197.806 67.2872C200.088 71.8434 202.795 76.0354 202.741 80.4148C201.283 79.0533 199.181 77.3063 198.561 77.9458C196.931 79.6173 203.904 88.4249 203.904 88.4249Z" fill="#E98862"/>
<path d="M57.8518 389.266L61.5493 370.986C61.6044 370.997 61.6763 371.011 61.7615 371.033C60.4219 370.694 52.3592 368.102 45.6566 365.895L39.8267 383.611C55.6368 388.818 57.304 389.155 57.8518 389.266Z" fill="#E98862"/>
<path d="M27.3936 404.57C27.2758 405.057 27.2597 405.564 27.3465 406.058C27.4332 406.552 27.6208 407.023 27.8975 407.441C28.1743 407.859 28.5343 408.215 28.955 408.488C29.3757 408.761 29.8481 408.944 30.3427 409.026C31.0284 409.139 31.7322 409.054 32.3712 408.781C33.0102 408.507 33.5579 408.057 33.9497 407.483L46.2008 388.145C46.4366 387.771 46.5886 387.349 46.6463 386.91C46.7041 386.471 46.6663 386.024 46.5355 385.601C45.2397 382.208 45.0664 378.488 46.041 374.989C46.9121 372.292 48.5238 369.893 50.692 368.068C50.9006 367.912 51.0605 367.7 51.1531 367.456C51.2457 367.213 51.2672 366.948 51.2149 366.693C51.1627 366.437 51.039 366.202 50.8582 366.014C50.6775 365.827 50.4471 365.694 50.194 365.633L39.8915 363.093C39.5877 363.018 39.272 363.004 38.9627 363.051C38.6533 363.098 38.3564 363.206 38.0889 363.369C37.8214 363.531 37.5886 363.745 37.4039 363.998C37.2192 364.251 37.0861 364.537 37.0125 364.842L27.3936 404.57Z" fill="#C1D8ED"/>
<path d="M195.239 517.114C201.841 501.827 202.326 500.196 202.486 499.66L184.618 494.338C184.634 494.284 184.654 494.215 184.684 494.132C184.227 495.436 180.923 503.238 178.125 509.718L195.239 517.114Z" fill="#E98862"/>
<path d="M214.989 531.382C215.464 531.544 215.968 531.605 216.468 531.564C216.968 531.522 217.454 531.377 217.896 531.139C218.337 530.9 218.725 530.573 219.035 530.178C219.344 529.783 219.569 529.328 219.694 528.842C219.869 528.169 219.847 527.461 219.632 526.8C219.418 526.139 219.019 525.553 218.483 525.112L200.33 511.168C199.977 510.899 199.571 510.71 199.139 510.613C198.707 510.517 198.259 510.514 197.826 510.607C194.332 511.593 190.614 511.432 187.217 510.148C184.61 509.038 182.367 507.216 180.744 504.892C180.607 504.671 180.41 504.492 180.176 504.378C179.942 504.264 179.68 504.219 179.421 504.249C179.162 504.278 178.917 504.38 178.714 504.543C178.511 504.707 178.359 504.924 178.275 505.171L174.822 515.207C174.721 515.503 174.678 515.817 174.697 516.129C174.717 516.442 174.798 516.747 174.936 517.028C175.074 517.31 175.266 517.561 175.501 517.768C175.736 517.974 176.009 518.132 176.306 518.233L214.989 531.382Z" fill="#C1D8ED"/>
<path d="M234.677 398.091C233.763 377.871 215.05 285.872 213.067 275.95L145.919 278.992C145.919 278.992 123.657 365.603 122.753 368.015L58.2274 363.442L51.6118 395.629L131.411 409.091C135.661 410.134 140.142 409.649 144.072 407.723C148.002 405.797 151.13 402.551 152.912 398.553C152.912 398.553 178.285 323.932 178.797 322.556L199.679 391.789L176.105 498.198L207.47 507.959C207.47 507.959 235.048 406.268 234.677 398.091Z" fill="#262626"/>
<path d="M84.2603 115.239L73.767 115.886C73.767 115.886 68.2628 102.342 75.7698 91.1959C78.2555 87.5004 82.4795 90.2492 82.404 91.7901C82.1563 96.88 80.2734 103.461 82.0897 107.444C82.8727 105.61 84.0925 103.167 84.9155 103.498C87.0816 104.363 84.2603 115.239 84.2603 115.239Z" fill="#E98862"/>
<path d="M234.032 146.632L200.874 188.818C204.434 200.515 203.227 217.461 205.419 231.005C210.018 259.479 218.62 263.493 216.348 272.836C214.146 281.896 142.752 297.926 139.21 283.263C136.964 273.938 143.835 264.257 140.639 245.881C138.074 231.085 123.985 214.894 124.518 200.702L83.1656 176.882C81.9596 176.185 80.9177 175.236 80.1104 174.101C79.3032 172.965 78.7496 171.669 78.4871 170.301L67.5942 113.122L86.6101 109.49L96.6773 162.316L135.18 184.502C138.562 182.695 142.218 181.456 146.001 180.834C146.01 180.834 146.046 180.825 146.126 180.816C147.626 185.612 157.427 192.478 168.053 189.866C176.026 187.93 177.419 180.461 176.798 175.612C176.745 175.621 176.682 175.63 176.62 175.638C178.183 175.39 179.15 175.248 179.257 175.23C181.806 174.864 184.394 174.858 186.945 175.212L215.646 138.692L198.752 85.5012L217.2 79.6306L235.648 137.715C236.127 139.22 236.23 140.82 235.948 142.374C235.667 143.929 235.009 145.391 234.032 146.632Z" fill="#8ECFEF"/>
<path d="M168.053 189.864C157.427 192.475 147.626 185.61 146.125 180.814V180.805C148.158 180.458 174.765 175.929 175.191 175.858C175.768 175.769 176.247 175.689 176.62 175.636C176.682 175.627 176.744 175.618 176.798 175.609C177.419 180.458 176.025 187.93 168.053 189.864Z" fill="#E98862"/>
<path d="M425.011 550H526.076C533.489 544.081 534 530.745 526.316 524.79C520.393 520.201 511.439 521.429 505.872 526.202C506.912 522.648 506.933 518.873 505.932 515.308C504.121 508.887 500.098 502.365 493.954 499.766C478.276 493.148 467.135 507.014 464.903 514.768C460.889 508.862 451.908 505.74 446.273 509.717C439.133 514.752 439.456 522.689 445.152 528.387C437.563 526.971 431.848 528.064 426.584 533.716C422.575 538.021 421.964 545.352 425.011 550Z" fill="#8DDBE0"/>
<path d="M623.841 360.919C620.411 359.795 616.89 361.056 613.523 363.619C617.962 352.411 619.791 342.288 612.206 341.833C606.899 341.514 602.833 345.587 599.745 351.377C598.659 341.196 595.856 333.602 589.579 336.12C582.687 338.884 581.639 348.357 582.685 358.268C579.649 353.205 576.382 350.383 573.411 353.352C564.553 362.214 586.296 387.19 586.296 387.19H591.694L594.775 390.536C594.154 391.856 593.809 392.641 593.809 392.641L597.724 400.61C597.724 400.61 638.077 365.58 623.841 360.919Z" fill="#8DDBE0"/>
<path d="M614.16 418.458H583.598L578.481 382.765H619.275L614.16 418.458Z" fill="#C1D8ED"/>
<path d="M570.615 429.578L546.379 547.839C546.224 548.457 545.867 549.005 545.365 549.396C544.863 549.787 544.245 550 543.609 550C543.175 550 542.746 549.901 542.356 549.71C541.966 549.52 541.624 549.243 541.358 548.9C541.091 548.558 540.905 548.159 540.815 547.734C540.726 547.309 540.734 546.869 540.84 546.447L565.421 426.82L570.615 429.578Z" fill="#C1D8ED"/>
<path d="M627.56 429.389L651.795 547.65C651.95 548.267 652.307 548.816 652.808 549.207C653.31 549.599 653.928 549.812 654.564 549.812C654.999 549.812 655.427 549.713 655.817 549.522C656.207 549.331 656.549 549.054 656.816 548.712C657.083 548.369 657.269 547.97 657.358 547.545C657.448 547.12 657.44 546.681 657.334 546.259L632.752 426.631L627.56 429.389Z" fill="#C1D8ED"/>
<path d="M653.031 418.011H545.141C542.413 418.011 540.202 420.223 540.202 422.953V433.83C540.202 436.56 542.413 438.772 545.141 438.772H653.031C655.759 438.772 657.97 436.56 657.97 433.83V422.953C657.97 420.223 655.759 418.011 653.031 418.011Z" fill="#DEE8F5"/>
<path d="M601.315 109.591L602.114 103.463L559.147 97.8677L392.937 76.237L349.969 70.6418L349.17 76.7699C349.637 76.8082 350.091 76.9409 350.505 77.1598C350.919 77.3788 351.285 77.6795 351.579 78.0438C351.874 78.408 352.091 78.8283 352.219 79.2791C352.346 79.73 352.381 80.202 352.321 80.6666C352.261 81.1313 352.107 81.5789 351.869 81.9824C351.631 82.3859 351.314 82.7369 350.936 83.0142C350.559 83.2914 350.129 83.4892 349.673 83.5955C349.217 83.7018 348.744 83.7144 348.283 83.6326L347.621 88.7198C348.087 88.7595 348.54 88.8931 348.953 89.1128C349.366 89.3324 349.731 89.6335 350.024 89.9978C350.317 90.3621 350.534 90.7822 350.661 91.2326C350.788 91.6829 350.822 92.1543 350.761 92.6183C350.701 93.0823 350.547 93.5292 350.31 93.9321C350.072 94.3351 349.755 94.6856 349.378 94.9626C349.001 95.2396 348.572 95.4374 348.116 95.5439C347.661 95.6504 347.189 95.6636 346.728 95.5825L346.067 100.67C346.533 100.709 346.986 100.843 347.399 101.063C347.812 101.282 348.176 101.583 348.47 101.948C348.763 102.312 348.98 102.732 349.106 103.182C349.233 103.633 349.267 104.104 349.207 104.568C349.147 105.032 348.993 105.479 348.755 105.882C348.517 106.285 348.2 106.636 347.823 106.913C347.446 107.19 347.017 107.387 346.562 107.494C346.107 107.6 345.634 107.613 345.174 107.532L344.437 113.197L344.488 113.203C349.442 113.88 353.928 116.489 356.965 120.463C360.002 124.436 361.345 129.45 360.7 134.41C360.056 139.371 357.475 143.874 353.523 146.938C349.571 150.002 344.568 151.377 339.606 150.763L339.555 150.756L338.737 157.043C339.203 157.082 339.657 157.216 340.07 157.436C340.483 157.655 340.847 157.956 341.14 158.321C341.434 158.685 341.65 159.105 341.777 159.555C341.904 160.006 341.938 160.477 341.878 160.941C341.817 161.405 341.663 161.852 341.426 162.255C341.188 162.658 340.871 163.008 340.494 163.285C340.117 163.562 339.688 163.76 339.233 163.867C338.777 163.973 338.305 163.986 337.844 163.905L337.183 168.993C337.652 169.029 338.108 169.16 338.524 169.379C338.941 169.597 339.308 169.898 339.604 170.264C339.901 170.629 340.119 171.051 340.247 171.503C340.375 171.956 340.41 172.43 340.349 172.896C340.288 173.362 340.132 173.811 339.892 174.216C339.652 174.62 339.332 174.971 338.952 175.248C338.571 175.524 338.139 175.72 337.68 175.824C337.222 175.928 336.747 175.937 336.285 175.852L335.623 180.939C336.09 180.977 336.544 181.11 336.958 181.329C337.372 181.548 337.737 181.848 338.032 182.213C338.326 182.577 338.544 182.997 338.672 183.448C338.799 183.899 338.834 184.371 338.774 184.836C338.714 185.3 338.56 185.748 338.322 186.151C338.084 186.555 337.767 186.906 337.389 187.183C337.011 187.46 336.582 187.658 336.126 187.765C335.669 187.871 335.196 187.883 334.735 187.802L334.018 193.312L376.986 198.908L543.188 220.544L586.16 226.139L586.877 220.633C586.412 220.592 585.96 220.457 585.548 220.237C585.136 220.017 584.773 219.716 584.481 219.352C584.189 218.987 583.973 218.568 583.847 218.118C583.72 217.669 583.686 217.198 583.747 216.735C583.807 216.272 583.96 215.826 584.197 215.423C584.434 215.021 584.75 214.671 585.126 214.394C585.502 214.117 585.93 213.918 586.384 213.811C586.839 213.704 587.31 213.689 587.77 213.769L588.431 208.683C587.965 208.643 587.512 208.51 587.1 208.29C586.687 208.071 586.322 207.77 586.029 207.406C585.735 207.042 585.519 206.622 585.392 206.172C585.265 205.722 585.23 205.251 585.29 204.787C585.35 204.323 585.504 203.876 585.741 203.473C585.978 203.07 586.295 202.719 586.671 202.442C587.047 202.165 587.476 201.967 587.931 201.86C588.386 201.752 588.858 201.739 589.319 201.819L589.981 196.733C589.515 196.693 589.062 196.56 588.65 196.34C588.237 196.121 587.873 195.82 587.579 195.456C587.286 195.092 587.069 194.672 586.942 194.222C586.815 193.772 586.78 193.301 586.84 192.837C586.9 192.373 587.054 191.926 587.291 191.523C587.528 191.12 587.845 190.769 588.221 190.492C588.598 190.215 589.026 190.017 589.481 189.91C589.936 189.803 590.408 189.789 590.869 189.869L591.687 183.584L591.636 183.577C589.171 183.256 586.793 182.453 584.638 181.213C582.483 179.972 580.594 178.32 579.078 176.349C577.561 174.379 576.447 172.128 575.8 169.727C575.153 167.326 574.985 164.821 575.306 162.355C575.626 159.888 576.429 157.51 577.669 155.354C578.908 153.198 580.56 151.308 582.53 149.791C584.5 148.274 586.749 147.16 589.149 146.512C591.55 145.865 594.054 145.697 596.519 146.017L596.57 146.023L597.307 140.359C596.84 140.321 596.386 140.188 595.972 139.969C595.558 139.75 595.193 139.449 594.898 139.085C594.604 138.721 594.386 138.301 594.259 137.85C594.131 137.399 594.096 136.927 594.157 136.462C594.217 135.998 594.37 135.55 594.608 135.146C594.846 134.743 595.164 134.392 595.541 134.115C595.919 133.837 596.349 133.64 596.805 133.533C597.261 133.427 597.734 133.414 598.195 133.496L598.857 128.409C598.39 128.371 597.936 128.238 597.522 128.019C597.108 127.8 596.743 127.499 596.448 127.135C596.154 126.771 595.936 126.351 595.809 125.9C595.681 125.449 595.646 124.977 595.707 124.512C595.767 124.048 595.92 123.6 596.158 123.197C596.396 122.793 596.714 122.442 597.091 122.165C597.469 121.887 597.899 121.69 598.355 121.583C598.811 121.477 599.284 121.465 599.745 121.546L600.406 116.459C599.94 116.419 599.487 116.286 599.074 116.066C598.661 115.847 598.297 115.545 598.004 115.181C597.71 114.817 597.493 114.397 597.367 113.946C597.24 113.496 597.206 113.025 597.266 112.561C597.327 112.097 597.48 111.65 597.718 111.247C597.956 110.844 598.273 110.493 598.65 110.216C599.027 109.939 599.456 109.742 599.911 109.635C600.366 109.528 600.839 109.515 601.299 109.596L601.315 109.591Z" fill="#DEE8F5"/>
<path d="M562.22 212.369C562.17 212.374 562.12 212.374 562.071 212.369L360.815 186.169C360.719 186.157 360.626 186.126 360.542 186.077C360.458 186.029 360.385 185.965 360.326 185.888C360.267 185.811 360.223 185.724 360.198 185.63C360.173 185.537 360.166 185.439 360.178 185.343L373.224 85.0509C373.249 84.8571 373.351 84.6812 373.505 84.5619C373.66 84.4427 373.856 84.3898 374.05 84.415L575.306 110.615C575.402 110.628 575.494 110.659 575.578 110.707C575.662 110.756 575.736 110.82 575.795 110.897C575.854 110.974 575.897 111.061 575.922 111.155C575.947 111.248 575.954 111.346 575.941 111.442L562.898 211.733C562.876 211.901 562.796 212.056 562.672 212.172C562.549 212.288 562.389 212.358 562.22 212.369ZM361.737 184.8L561.532 210.808L574.382 111.981L374.59 85.9719L361.737 184.8Z" fill="#F3F5FD"/>
<path d="M449.845 262.989C449.339 262.976 448.86 262.763 448.511 262.397C448.163 262.03 447.974 261.54 447.986 261.035L448.874 226.337C448.887 225.831 449.101 225.35 449.468 225.001C449.835 224.652 450.325 224.463 450.832 224.476C451.338 224.489 451.818 224.703 452.167 225.07C452.516 225.438 452.705 225.928 452.692 226.435L451.804 261.133C451.797 261.383 451.741 261.63 451.639 261.859C451.537 262.088 451.39 262.294 451.209 262.467C451.027 262.639 450.812 262.774 450.578 262.864C450.344 262.953 450.095 262.996 449.845 262.989Z" fill="#FFBE00"/>
<path d="M513.091 247.249C512.841 247.243 512.595 247.187 512.366 247.085C512.138 246.983 511.932 246.838 511.76 246.656L487.86 221.493C487.517 221.125 487.334 220.637 487.349 220.134C487.364 219.631 487.578 219.155 487.942 218.808C488.307 218.462 488.793 218.274 489.296 218.284C489.798 218.294 490.277 218.503 490.626 218.864L514.522 244.027C514.782 244.301 514.956 244.645 515.02 245.017C515.084 245.389 515.037 245.772 514.883 246.117C514.73 246.462 514.478 246.753 514.159 246.955C513.84 247.157 513.468 247.259 513.091 247.249Z" fill="#FFBE00"/>
<path d="M387.487 244.03C387.11 244.02 386.744 243.899 386.436 243.681C386.128 243.463 385.891 243.159 385.756 242.807C385.62 242.454 385.592 242.07 385.675 241.702C385.758 241.334 385.948 240.998 386.222 240.738L411.374 216.833C411.554 216.654 411.769 216.513 412.004 216.419C412.24 216.324 412.492 216.277 412.745 216.281C412.999 216.284 413.25 216.339 413.482 216.441C413.715 216.543 413.925 216.69 414.1 216.874C414.275 217.058 414.411 217.276 414.501 217.513C414.591 217.751 414.632 218.004 414.623 218.258C414.614 218.511 414.554 218.761 414.448 218.991C414.341 219.222 414.189 219.429 414.002 219.6L388.85 243.506C388.668 243.679 388.455 243.814 388.221 243.904C387.987 243.994 387.737 244.037 387.487 244.03Z" fill="#FFBE00"/>
<path d="M469.995 0.00888647C470.499 0.0561427 470.963 0.30164 471.286 0.69138C471.609 1.08112 471.764 1.58318 471.716 2.08713L468.465 36.6438C468.412 37.143 468.164 37.6012 467.776 37.9191C467.387 38.237 466.89 38.3891 466.39 38.3424C465.89 38.2957 465.429 38.0539 465.106 37.6695C464.784 37.285 464.625 36.7889 464.666 36.2885L467.918 1.73277C467.941 1.48299 468.013 1.2402 468.13 1.0183C468.246 0.796404 468.406 0.599754 468.599 0.439619C468.792 0.279484 469.015 0.159009 469.254 0.085097C469.494 0.0111847 469.745 -0.0147133 469.995 0.00888647Z" fill="#FFBE00"/>
<path d="M405.823 11.3975C406.073 11.4206 406.315 11.4928 406.537 11.61C406.758 11.7272 406.955 11.8871 407.114 12.0805L429.24 38.8135C429.562 39.2033 429.717 39.7054 429.669 40.2092C429.622 40.7131 429.376 41.1774 428.987 41.5001C428.597 41.8228 428.095 41.9774 427.592 41.93C427.088 41.8825 426.624 41.6368 426.301 41.247L404.176 14.514C403.935 14.2233 403.786 13.8677 403.747 13.4923C403.709 13.1168 403.782 12.7384 403.959 12.4047C404.135 12.0711 404.406 11.7972 404.738 11.6178C405.07 11.4383 405.448 11.3614 405.823 11.3966V11.3975Z" fill="#FFBE00"/>
<path d="M530.916 23.1805C531.293 23.2149 531.651 23.3607 531.945 23.5992C532.238 23.8377 532.455 24.1582 532.566 24.5199C532.677 24.8817 532.678 25.2683 532.569 25.6307C532.46 25.9932 532.246 26.315 531.954 26.5554L505.232 48.6896C505.039 48.8494 504.817 48.9696 504.578 49.0434C504.338 49.1171 504.087 49.143 503.837 49.1195C503.588 49.096 503.346 49.0235 503.124 48.9064C502.903 48.7892 502.707 48.6295 502.547 48.4365C502.387 48.2435 502.267 48.0209 502.193 47.7814C502.12 47.5419 502.094 47.2902 502.117 47.0408C502.141 46.7913 502.213 46.5489 502.33 46.3274C502.447 46.1059 502.607 45.9097 502.8 45.7499L529.522 23.6156C529.714 23.4548 529.936 23.3335 530.176 23.2589C530.415 23.1842 530.667 23.1575 530.916 23.1805Z" fill="#FFBE00"/>
<path d="M583.678 76.2077L584.137 69.8264L539.367 66.6034L366.211 54.1375L321.441 50.9144L320.982 57.2948C321.453 57.326 321.914 57.4501 322.337 57.66C322.76 57.8699 323.138 58.1614 323.448 58.5177C323.758 58.874 323.995 59.2882 324.144 59.7363C324.294 60.1845 324.353 60.6578 324.319 61.1291C324.285 61.6003 324.159 62.0602 323.946 62.4823C323.734 62.9044 323.441 63.2803 323.083 63.5885C322.725 63.8967 322.309 64.131 321.86 64.278C321.412 64.4251 320.938 64.4819 320.467 64.4452L320.086 69.7447C320.558 69.7753 321.019 69.8989 321.443 70.1085C321.867 70.318 322.245 70.6094 322.555 70.9658C322.866 71.3222 323.103 71.7366 323.253 72.185C323.403 72.6335 323.463 73.1072 323.429 73.5789C323.395 74.0506 323.268 74.5109 323.056 74.9333C322.843 75.3557 322.549 75.7318 322.191 76.0401C321.832 76.3483 321.416 76.5826 320.967 76.7293C320.518 76.8761 320.044 76.9324 319.572 76.8951L319.191 82.1947C319.662 82.2252 320.123 82.3488 320.547 82.5584C320.971 82.768 321.349 83.0593 321.66 83.4157C321.97 83.7721 322.207 84.1865 322.357 84.635C322.507 85.0835 322.567 85.5572 322.533 86.0288C322.499 86.5005 322.372 86.9608 322.16 87.3832C321.947 87.8056 321.653 88.1818 321.295 88.49C320.936 88.7983 320.521 89.0325 320.071 89.1793C319.622 89.326 319.148 89.3824 318.677 89.3451L318.252 95.2468H318.306C323.488 95.6268 328.307 98.0489 331.705 101.981C335.103 105.913 336.803 111.034 336.43 116.219C336.057 121.403 333.642 126.228 329.716 129.633C325.79 133.038 320.674 134.744 315.491 134.378H315.437L314.966 140.926C315.438 140.957 315.899 141.081 316.322 141.29C316.746 141.5 317.124 141.791 317.435 142.148C317.746 142.504 317.983 142.918 318.133 143.367C318.282 143.815 318.342 144.289 318.308 144.761C318.274 145.232 318.147 145.693 317.935 146.115C317.722 146.537 317.429 146.914 317.07 147.222C316.712 147.53 316.296 147.764 315.846 147.911C315.397 148.058 314.923 148.114 314.452 148.077L314.071 153.376C314.542 153.408 315.003 153.532 315.426 153.742C315.849 153.951 316.226 154.243 316.537 154.599C316.847 154.956 317.083 155.37 317.233 155.818C317.382 156.266 317.442 156.739 317.408 157.211C317.374 157.682 317.247 158.142 317.035 158.564C316.823 158.986 316.529 159.362 316.171 159.67C315.813 159.978 315.398 160.213 314.949 160.36C314.5 160.507 314.027 160.563 313.556 160.527L313.175 165.826C313.647 165.857 314.108 165.981 314.532 166.19C314.955 166.4 315.334 166.691 315.644 167.047C315.955 167.404 316.192 167.818 316.342 168.267C316.492 168.715 316.552 169.189 316.518 169.661C316.484 170.132 316.357 170.592 316.144 171.015C315.932 171.437 315.638 171.813 315.279 172.122C314.921 172.43 314.505 172.664 314.056 172.811C313.606 172.958 313.132 173.014 312.661 172.977L312.248 178.718L357.017 181.941L530.172 194.407L574.942 197.63L575.355 191.889C574.883 191.858 574.423 191.733 574 191.524C573.577 191.314 573.199 191.022 572.889 190.666C572.579 190.31 572.342 189.895 572.193 189.447C572.043 188.999 571.984 188.526 572.018 188.055C572.052 187.583 572.178 187.123 572.391 186.701C572.603 186.279 572.896 185.903 573.254 185.595C573.612 185.287 574.028 185.053 574.476 184.906C574.925 184.759 575.399 184.702 575.87 184.738L576.25 179.439C575.779 179.408 575.319 179.284 574.896 179.074C574.472 178.864 574.095 178.572 573.785 178.216C573.475 177.86 573.238 177.445 573.089 176.997C572.939 176.549 572.879 176.076 572.913 175.605C572.947 175.133 573.074 174.673 573.286 174.251C573.498 173.829 573.792 173.453 574.15 173.145C574.508 172.837 574.923 172.603 575.372 172.456C575.821 172.309 576.294 172.252 576.765 172.288L577.146 166.989C576.674 166.958 576.213 166.835 575.79 166.625C575.366 166.416 574.988 166.124 574.677 165.768C574.366 165.411 574.129 164.997 573.979 164.549C573.83 164.1 573.77 163.626 573.804 163.155C573.838 162.683 573.965 162.223 574.177 161.8C574.39 161.378 574.683 161.002 575.042 160.694C575.4 160.385 575.816 160.151 576.266 160.004C576.715 159.858 577.189 159.801 577.66 159.839L578.132 153.29H578.078C572.891 152.917 568.065 150.497 564.661 146.564C561.257 142.63 559.555 137.505 559.928 132.316C560.301 127.127 562.72 122.298 566.652 118.893C570.583 115.488 575.706 113.784 580.893 114.158H580.947L581.371 108.256C580.423 108.188 579.542 107.746 578.92 107.027C578.298 106.309 577.987 105.372 578.055 104.424C578.123 103.476 578.565 102.594 579.283 101.972C580.001 101.35 580.937 101.039 581.885 101.107L582.267 95.8063C581.797 95.7725 581.339 95.6466 580.919 95.4358C580.498 95.225 580.123 94.9333 579.815 94.5775C579.507 94.2216 579.273 93.8086 579.124 93.362C578.976 92.9154 578.917 92.4439 578.951 91.9744C578.984 91.505 579.11 91.0468 579.321 90.626C579.532 90.2052 579.823 89.8301 580.179 89.522C580.534 89.2139 580.947 88.979 581.394 88.8305C581.84 88.682 582.312 88.623 582.781 88.6568L583.162 83.3564C582.692 83.3225 582.234 83.1966 581.814 82.9857C581.393 82.7748 581.018 82.4831 580.71 82.1272C580.402 81.7714 580.168 81.3583 580.019 80.9117C579.871 80.465 579.812 79.9935 579.846 79.524C579.88 79.0546 580.006 78.5964 580.216 78.1756C580.427 77.7549 580.719 77.3798 581.074 77.0717C581.43 76.7637 581.843 76.5288 582.289 76.3804C582.736 76.232 583.207 76.173 583.676 76.2068L583.678 76.2077Z" fill="#FFBE00"/>
<path d="M549.219 184.822L339.541 169.724C339.44 169.717 339.342 169.69 339.252 169.646C339.162 169.601 339.082 169.539 339.016 169.463C338.95 169.387 338.9 169.299 338.868 169.204C338.836 169.108 338.823 169.008 338.831 168.907L346.346 64.4212C346.353 64.3209 346.379 64.2228 346.424 64.1327C346.469 64.0426 346.531 63.9623 346.607 63.8962C346.682 63.8302 346.771 63.7798 346.866 63.748C346.961 63.7161 347.062 63.7035 347.162 63.7107L556.839 78.8091C556.94 78.8157 557.038 78.8422 557.128 78.8868C557.218 78.9315 557.298 78.9936 557.364 79.0694C557.43 79.1453 557.48 79.2334 557.512 79.3288C557.544 79.4242 557.557 79.525 557.55 79.6253L550.034 184.111C550.027 184.212 550.001 184.31 549.956 184.399C549.911 184.489 549.849 184.57 549.774 184.636C549.698 184.702 549.61 184.752 549.515 184.784C549.419 184.816 549.319 184.829 549.219 184.822ZM340.412 168.258L548.567 183.244L555.973 80.2878L347.818 65.2978L340.412 168.258Z" fill="white"/>
<path d="M382.271 108.294C381.333 108.183 380.382 108.309 379.506 108.659C378.629 109.009 377.853 109.573 377.249 110.299C375.991 111.787 375.26 113.934 375.058 116.74C374.639 122.579 376.619 125.656 380.999 125.972C383.292 126.048 385.582 125.744 387.776 125.073L387.442 129.73C385.09 130.487 382.61 130.768 380.148 130.556C376.341 130.282 373.511 128.916 371.66 126.46C369.809 124.004 369.039 120.615 369.352 116.293C369.474 113.821 370.158 111.409 371.351 109.241C372.408 107.342 374.015 105.807 375.96 104.838C378.029 103.854 380.325 103.45 382.604 103.669C385.263 103.889 387.838 104.709 390.134 106.067L388.02 110.452C387.091 109.924 386.134 109.446 385.153 109.021C384.24 108.617 383.266 108.371 382.271 108.294Z" fill="white"/>
<path d="M417.64 119.698C417.328 124.032 416.014 127.286 413.698 129.461C411.383 131.635 408.22 132.577 404.209 132.288C400.198 131.999 397.202 130.613 395.221 128.13C393.24 125.648 392.407 122.227 392.721 117.868C393.034 113.509 394.35 110.258 396.67 108.115C398.99 105.972 402.161 105.044 406.183 105.333C410.208 105.623 413.201 107.003 415.163 109.473C417.125 111.943 417.951 115.352 417.64 119.698ZM398.536 118.322C398.326 121.248 398.722 123.491 399.726 125.052C400.258 125.841 400.976 126.489 401.815 126.938C402.655 127.386 403.592 127.623 404.544 127.627C408.972 127.947 411.399 125.164 411.823 119.279C412.247 113.38 410.257 110.271 405.853 109.953C404.907 109.823 403.942 109.925 403.044 110.251C402.145 110.577 401.34 111.117 400.697 111.824C399.467 113.23 398.747 115.396 398.536 118.322Z" fill="white"/>
<path d="M445.31 108.564L444.091 125.508C444.002 127.294 443.426 129.021 442.426 130.502C441.438 131.911 440.045 132.985 438.431 133.582C436.55 134.265 434.539 134.52 432.546 134.328C429.18 134.086 426.629 133.035 424.891 131.176C424.012 130.196 423.353 129.039 422.959 127.782C422.565 126.526 422.446 125.2 422.608 123.893L423.821 107.018L429.353 107.416L428.203 123.451C428.059 125.469 428.358 126.979 429.102 127.981C429.845 128.983 431.154 129.551 433.028 129.686C433.746 129.805 434.48 129.764 435.18 129.567C435.88 129.37 436.528 129.022 437.078 128.547C437.966 127.659 438.482 126.198 438.627 124.165L439.781 108.171L445.31 108.564Z" fill="white"/>
<path d="M469.213 118.496C469.011 121.314 467.975 123.406 466.106 124.771C464.237 126.137 461.682 126.703 458.44 126.471L456.059 126.3L455.389 135.614L449.839 135.214L451.723 109.028L460.084 109.63C463.258 109.858 465.623 110.717 467.179 112.206C468.734 113.695 469.412 115.792 469.213 118.496ZM456.382 121.749L458.208 121.88C459.556 122.078 460.931 121.819 462.114 121.144C462.568 120.818 462.94 120.39 463.197 119.894C463.455 119.398 463.592 118.848 463.597 118.289C463.68 117.763 463.645 117.225 463.497 116.713C463.349 116.202 463.09 115.729 462.74 115.329C461.823 114.56 460.663 114.144 459.467 114.157L456.943 113.979L456.382 121.749Z" fill="white"/>
<path d="M497.562 125.452C497.25 129.787 495.936 133.041 493.62 135.214C491.304 137.387 488.141 138.33 484.131 138.042C480.121 137.753 477.125 136.367 475.143 133.884C473.161 131.4 472.328 127.979 472.645 123.621C472.958 119.263 474.274 116.012 476.594 113.868C478.913 111.725 482.084 110.798 486.107 111.088C490.132 111.377 493.125 112.757 495.087 115.227C497.049 117.697 497.874 121.106 497.562 125.452ZM478.459 124.073C478.248 126.999 478.645 129.242 479.649 130.802C480.181 131.591 480.898 132.239 481.738 132.687C482.577 133.136 483.514 133.373 484.466 133.377C488.894 133.696 491.32 130.914 491.745 125.029C492.17 119.131 490.179 116.022 485.775 115.703C484.828 115.572 483.864 115.674 482.966 116C482.068 116.326 481.262 116.866 480.62 117.574C479.387 118.983 478.667 121.15 478.459 124.073Z" fill="white"/>
<path d="M525.264 140.643L518.209 140.135L508.244 119.505L508.083 119.494C508.058 123.008 507.992 125.512 507.885 127.005L506.997 139.328L502.037 138.973L503.921 112.787L510.922 113.29L520.88 133.722L521.005 133.731C521.071 130.315 521.154 127.902 521.255 126.493L522.143 114.098L527.139 114.458L525.264 140.643Z" fill="white"/>
</g>
<defs>
<clipPath id="clip0_14_587">
<rect width="709" height="550" fill="white"/>
</clipPath>
</defs>
</svg>
